<?xml version="1.0" encoding="UTF-8" standalone="no"?><!DOCTYPE svg PUBLIC "-//W3C//DTD SVG 1.1//EN" "http://www.w3.org/Graphics/SVG/1.1/DTD/svg11.dtd"><svg width="100%" height="100%" viewBox="0 0 595 591" version="1.1" xmlns="http://www.w3.org/2000/svg" xmlns:xlink="http://www.w3.org/1999/xlink" xml:space="preserve" xmlns:serif="http://www.serif.com/" style="fill-rule:evenodd;clip-rule:evenodd;stroke-linejoin:round;stroke-miterlimit:2;"><g><path d="M576.371,39.913c0,-21.827 -17.721,-39.548 -39.548,-39.548l-467.924,0c-21.827,0 -39.548,17.721 -39.548,39.548l0,481.404c0,21.827 17.721,39.548 39.548,39.548l467.924,0c21.827,0 39.548,-17.721 39.548,-39.548l0,-481.404Z" style="fill:#768175;"/><path d="M549.913,70.332c0,-19.627 -15.841,-35.561 -35.353,-35.561l-418.294,0c-19.512,0 -35.353,15.934 -35.353,35.561l0,432.877c0,19.627 15.841,35.562 35.353,35.562l418.294,0c19.512,0 35.353,-15.935 35.353,-35.562l0,-432.877Z" style="fill:#778274;"/><g><path d="M521.827,31.579c6.086,-5.02 15.059,-4.208 20.026,1.813c4.965,6.02 4.055,14.984 -2.031,20.004c7.754,-1.337 15.07,3.847 16.327,11.572c1.257,7.723 -4.017,15.08 -11.771,16.418c7.344,2.704 11.042,10.873 8.254,18.23c-2.788,7.358 -11.014,11.137 -18.357,8.434c4.965,6.02 4.055,14.984 -2.031,20.004c-6.086,5.02 -15.06,4.208 -20.026,-1.812c1.257,7.724 -4.017,15.08 -11.771,16.418c-7.754,1.338 -15.07,-3.848 -16.327,-11.572c-2.789,7.358 -11.014,11.137 -18.358,8.434c-7.344,-2.704 -11.043,-10.873 -8.255,-18.231c-6.086,5.021 -15.059,4.208 -20.025,-1.812c-4.966,-6.021 -4.056,-14.984 2.03,-20.005c-7.754,1.338 -15.069,-3.847 -16.327,-11.572c-1.257,-7.723 4.018,-15.08 11.772,-16.418c-7.344,-2.704 -11.043,-10.872 -8.255,-18.23c2.789,-7.358 11.014,-11.137 18.358,-8.433c-4.966,-6.021 -4.056,-14.985 2.03,-20.005c6.087,-5.02 15.06,-4.208 20.027,1.813c-1.258,-7.725 4.017,-15.081 11.771,-16.419c7.753,-1.337 15.069,3.848 16.327,11.572c2.788,-7.358 11.014,-11.137 18.357,-8.433c7.344,2.703 11.043,10.872 8.255,18.23Z" style="fill:#626d5f;"/><path d="M175.78,61.521c5.126,-4.228 12.849,-3.344 17.235,1.974c4.386,5.317 3.784,13.067 -1.341,17.295c6.632,-1.003 13.019,3.637 14.255,10.356c1.235,6.719 -3.146,12.988 -9.778,13.99c6.361,2.491 9.703,9.645 7.457,15.965c-2.246,6.319 -9.234,9.428 -15.595,6.937c4.386,5.318 3.786,13.067 -1.34,17.295c-5.125,4.227 -12.847,3.343 -17.233,-1.975c1.235,6.719 -3.146,12.987 -9.778,13.99c-6.632,1.003 -13.019,-3.638 -14.254,-10.357c-2.247,6.32 -9.234,9.429 -15.595,6.938c-6.362,-2.492 -9.702,-9.645 -7.456,-15.965c-5.125,4.228 -12.847,3.343 -17.233,-1.975c-4.386,-5.317 -3.786,-13.066 1.34,-17.294c-6.632,1.003 -13.02,-3.638 -14.255,-10.357c-1.236,-6.718 3.145,-12.988 9.777,-13.99c-6.361,-2.491 -9.702,-9.644 -7.456,-15.964c2.245,-6.32 9.234,-9.429 15.595,-6.938c-4.386,-5.317 -3.786,-13.067 1.34,-17.294c5.125,-4.228 12.847,-3.343 17.233,1.975c-1.235,-6.719 3.145,-12.989 9.778,-13.991c6.631,-1.003 13.019,3.639 14.254,10.357c2.245,-6.32 9.234,-9.428 15.595,-6.937c6.361,2.491 9.702,9.645 7.455,15.965Z" style="fill:#626d5f;"/><path d="M117.56,152.88c6.247,-5.153 15.792,-3.912 21.301,2.767c5.51,6.68 4.912,16.286 -1.335,21.439c8.164,-1.123 16.131,4.754 17.779,13.114c1.648,8.361 -3.643,16.061 -11.807,17.183c7.895,3.208 12.148,12.148 9.494,19.95c-2.655,7.802 -11.22,11.531 -19.115,8.322c5.509,6.68 4.911,16.286 -1.336,21.439c-6.246,5.152 -15.791,3.912 -21.301,-2.768c1.648,8.362 -3.643,16.061 -11.807,17.183c-8.165,1.123 -16.131,-4.755 -17.779,-13.115c-2.655,7.802 -11.22,11.531 -19.115,8.322c-7.895,-3.208 -12.149,-12.147 -9.494,-19.949c-6.246,5.152 -15.791,3.912 -21.3,-2.768c-5.51,-6.679 -4.911,-16.285 1.335,-21.437c-8.165,1.122 -16.131,-4.755 -17.779,-13.116c-1.648,-8.361 3.642,-16.06 11.807,-17.182c-7.895,-3.209 -12.149,-12.148 -9.494,-19.95c2.655,-7.801 11.221,-11.531 19.115,-8.323c-5.509,-6.679 -4.911,-16.286 1.336,-21.438c6.247,-5.152 15.791,-3.912 21.3,2.767c-1.647,-8.361 3.643,-16.06 11.808,-17.183c8.164,-1.122 16.131,4.755 17.779,13.116c2.654,-7.802 11.22,-11.532 19.115,-8.323c7.894,3.209 12.148,12.147 9.493,19.95Z" style="fill:#626d5f;"/><path d="M274.009,488.813c3.675,-3.032 9.191,-2.425 12.308,1.354c3.117,3.78 2.663,9.309 -1.012,12.341c4.741,-0.736 9.292,2.555 10.153,7.343c0.862,4.789 -2.288,9.275 -7.031,10.01c4.538,1.758 6.903,6.85 5.278,11.365c-1.625,4.516 -6.628,6.755 -11.166,4.999c3.117,3.779 2.664,9.309 -1.012,12.341c-3.676,3.032 -9.191,2.425 -12.308,-1.354c0.861,4.789 -2.289,9.274 -7.032,10.011c-4.741,0.736 -9.291,-2.554 -10.153,-7.343c-1.624,4.515 -6.628,6.755 -11.165,4.998c-4.537,-1.757 -6.902,-6.85 -5.278,-11.365c-3.676,3.032 -9.19,2.425 -12.307,-1.354c-3.118,-3.779 -2.665,-9.309 1.011,-12.341c-4.741,0.736 -9.291,-2.554 -10.153,-7.343c-0.862,-4.789 2.289,-9.275 7.031,-10.011c-4.538,-1.757 -6.903,-6.85 -5.278,-11.364c1.625,-4.517 6.628,-6.756 11.166,-4.999c-3.117,-3.779 -2.664,-9.309 1.012,-12.341c3.676,-3.032 9.191,-2.425 12.309,1.354c-0.862,-4.789 2.288,-9.275 7.031,-10.011c4.742,-0.736 9.291,2.554 10.153,7.343c1.624,-4.516 6.628,-6.755 11.165,-4.998c4.538,1.757 6.903,6.85 5.278,11.365Z" style="fill:#626d5f;"/><path d="M557.28,422.478c4.782,-3.945 12.02,-3.079 16.153,1.93c4.132,5.01 3.604,12.28 -1.179,16.224c6.208,-0.911 12.211,3.473 13.399,9.783c1.187,6.312 -2.888,12.175 -9.095,13.086c5.969,2.367 9.13,9.094 7.055,15.016c-2.075,5.92 -8.607,8.806 -14.577,6.44c4.132,5.01 3.605,12.28 -1.177,16.224c-4.783,3.945 -12.02,3.08 -16.153,-1.93c1.187,6.311 -2.888,12.174 -9.096,13.086c-6.207,0.911 -12.211,-3.473 -13.399,-9.784c-2.075,5.921 -8.607,8.807 -14.576,6.441c-5.971,-2.366 -9.131,-9.095 -7.056,-15.016c-4.783,3.945 -12.02,3.08 -16.152,-1.929c-4.132,-5.01 -3.605,-12.28 1.177,-16.225c-6.207,0.911 -12.211,-3.472 -13.398,-9.783c-1.188,-6.311 2.889,-12.174 9.096,-13.085c-5.969,-2.367 -9.132,-9.095 -7.057,-15.016c2.076,-5.921 8.608,-8.807 14.578,-6.441c-4.132,-5.01 -3.604,-12.279 1.178,-16.224c4.782,-3.944 12.019,-3.079 16.152,1.93c-1.188,-6.311 2.888,-12.174 9.095,-13.085c6.208,-0.912 12.212,3.473 13.4,9.784c2.075,-5.921 8.606,-8.808 14.576,-6.441c5.97,2.366 9.131,9.094 7.056,15.015Z" style="fill:#626d5f;"/><path d="M101.885,294.716c4.918,-4.057 12.472,-3.034 16.858,2.284c4.386,5.317 3.953,12.928 -0.965,16.985c6.452,-0.855 12.778,3.837 14.117,10.47c1.339,6.634 -2.812,12.713 -9.265,13.567c6.258,2.577 9.661,9.68 7.594,15.851c-2.066,6.173 -8.824,9.091 -15.082,6.515c4.386,5.318 3.954,12.928 -0.965,16.985c-4.918,4.057 -12.472,3.034 -16.858,-2.284c1.339,6.633 -2.812,12.713 -9.265,13.567c-6.452,0.855 -12.777,-3.836 -14.117,-10.47c-2.066,6.172 -8.825,9.091 -15.082,6.514c-6.257,-2.576 -9.66,-9.679 -7.594,-15.85c-4.917,4.056 -12.471,3.033 -16.858,-2.285c-4.386,-5.317 -3.953,-12.928 0.965,-16.984c-6.452,0.854 -12.777,-3.837 -14.117,-10.471c-1.339,-6.633 2.813,-12.712 9.265,-13.567c-6.257,-2.576 -9.661,-9.679 -7.594,-15.851c2.067,-6.172 8.825,-9.091 15.082,-6.515c-4.385,-5.317 -3.954,-12.928 0.964,-16.985c4.919,-4.057 12.474,-3.033 16.859,2.284c-1.338,-6.633 2.813,-12.712 9.265,-13.567c6.452,-0.855 12.778,3.837 14.117,10.471c2.067,-6.172 8.824,-9.091 15.082,-6.515c6.258,2.577 9.66,9.679 7.594,15.851Z" style="fill:#626d5f;"/><path d="M188.84,360.812c3.762,-3.104 9.407,-2.484 12.597,1.384c3.189,3.867 2.724,9.526 -1.038,12.63c4.853,-0.755 9.509,2.612 10.39,7.513c0.881,4.9 -2.344,9.492 -7.197,10.246c4.644,1.797 7.063,7.008 5.4,11.629c-1.665,4.622 -6.785,6.915 -11.43,5.117c3.19,3.867 2.725,9.527 -1.037,12.63c-3.763,3.104 -9.407,2.483 -12.597,-1.384c0.881,4.902 -2.344,9.492 -7.197,10.247c-4.854,0.754 -9.509,-2.613 -10.39,-7.513c-1.664,4.621 -6.785,6.913 -11.429,5.116c-4.643,-1.797 -7.063,-7.009 -5.399,-11.629c-3.763,3.104 -9.407,2.483 -12.597,-1.384c-3.189,-3.868 -2.725,-9.526 1.038,-12.63c-4.853,0.754 -9.509,-2.613 -10.39,-7.513c-0.881,-4.901 2.344,-9.492 7.197,-10.246c-4.643,-1.798 -7.062,-7.008 -5.399,-11.63c1.664,-4.621 6.784,-6.914 11.429,-5.117c-3.19,-3.867 -2.726,-9.526 1.037,-12.63c3.762,-3.103 9.407,-2.483 12.597,1.384c-0.881,-4.902 2.344,-9.492 7.198,-10.247c4.853,-0.753 9.508,2.613 10.39,7.513c1.663,-4.62 6.784,-6.913 11.428,-5.116c4.643,1.797 7.063,7.009 5.399,11.63Z" style="fill:#626d5f;"/><path d="M400.166,100.931c3.924,-3.236 9.711,-2.711 12.914,1.172c3.203,3.883 2.618,9.664 -1.306,12.901c5,-0.862 9.718,2.484 10.53,7.465c0.811,4.981 -2.589,9.724 -7.589,10.586c4.737,1.745 7.123,7.014 5.325,11.759c-1.797,4.744 -7.101,7.181 -11.837,5.436c3.204,3.883 2.617,9.664 -1.307,12.901c-3.924,3.237 -9.711,2.712 -12.914,-1.171c0.812,4.981 -2.589,9.725 -7.588,10.586c-5,0.863 -9.719,-2.482 -10.531,-7.465c-1.797,4.746 -7.101,7.181 -11.837,5.437c-4.736,-1.745 -7.122,-7.013 -5.325,-11.758c-3.924,3.237 -9.711,2.712 -12.914,-1.172c-3.203,-3.883 -2.618,-9.664 1.306,-12.901c-4.999,0.863 -9.718,-2.483 -10.53,-7.464c-0.811,-4.982 2.589,-9.725 7.589,-10.587c-4.737,-1.745 -7.122,-7.013 -5.325,-11.758c1.797,-4.745 7.101,-7.181 11.837,-5.436c-3.203,-3.884 -2.617,-9.664 1.307,-12.901c3.924,-3.236 9.711,-2.713 12.914,1.171c-0.812,-4.981 2.589,-9.725 7.589,-10.587c5,-0.861 9.718,2.483 10.53,7.465c1.797,-4.745 7.101,-7.181 11.837,-5.437c4.736,1.746 7.123,7.014 5.325,11.758Z" style="fill:#626d5f;"/><path d="M434.9,324.99c3.488,-2.877 8.708,-2.319 11.648,1.246c2.94,3.565 2.496,8.795 -0.993,11.673c4.492,-0.709 8.79,2.389 9.592,6.915c0.802,4.526 -2.194,8.777 -6.684,9.487c4.29,1.648 6.514,6.457 4.963,10.731c-1.55,4.274 -6.293,6.406 -10.583,4.758c2.94,3.564 2.495,8.795 -0.994,11.673c-3.488,2.877 -8.707,2.319 -11.648,-1.246c0.802,4.526 -2.193,8.777 -6.685,9.486c-4.491,0.709 -8.789,-2.389 -9.591,-6.915c-1.551,4.274 -6.293,6.406 -10.584,4.757c-4.291,-1.648 -6.516,-6.457 -4.965,-10.732c-3.489,2.878 -8.708,2.319 -11.648,-1.245c-2.941,-3.565 -2.496,-8.796 0.993,-11.674c-4.492,0.711 -8.79,-2.388 -9.591,-6.914c-0.802,-4.526 2.192,-8.777 6.684,-9.486c-4.291,-1.649 -6.515,-6.458 -4.965,-10.732c1.551,-4.274 6.294,-6.407 10.585,-4.758c-2.94,-3.565 -2.496,-8.795 0.993,-11.672c3.488,-2.878 8.708,-2.32 11.649,1.245c-0.803,-4.526 2.193,-8.776 6.683,-9.486c4.492,-0.709 8.79,2.389 9.592,6.915c1.55,-4.274 6.294,-6.406 10.585,-4.757c4.291,1.648 6.515,6.457 4.964,10.731Z" style="fill:#626d5f;"/><path d="M348.207,459.743c5.188,-4.279 13.125,-3.237 17.713,2.325c4.588,5.562 4.1,13.551 -1.088,17.831c6.787,-0.925 13.416,3.972 14.796,10.928c1.379,6.956 -3.011,13.355 -9.797,14.28c6.566,2.677 10.113,10.117 7.914,16.604c-2.199,6.487 -9.316,9.58 -15.883,6.901c4.588,5.563 4.101,13.553 -1.086,17.831c-5.188,4.279 -13.125,3.238 -17.713,-2.324c1.38,6.956 -3.01,13.354 -9.797,14.279c-6.787,0.925 -13.416,-3.972 -14.796,-10.928c-2.198,6.487 -9.315,9.579 -15.882,6.901c-6.567,-2.677 -10.113,-10.117 -7.914,-16.604c-5.188,4.279 -13.125,3.238 -17.712,-2.324c-4.588,-5.562 -4.101,-13.552 1.087,-17.831c-6.787,0.925 -13.416,-3.972 -14.796,-10.929c-1.379,-6.956 3.011,-13.354 9.797,-14.279c-6.566,-2.678 -10.113,-10.118 -7.914,-16.604c2.199,-6.487 9.316,-9.58 15.883,-6.902c-4.588,-5.562 -4.101,-13.552 1.087,-17.832c5.187,-4.278 13.124,-3.236 17.712,2.326c-1.379,-6.956 3.01,-13.355 9.797,-14.28c6.787,-0.925 13.416,3.972 14.796,10.929c2.199,-6.487 9.316,-9.58 15.882,-6.902c6.567,2.678 10.113,10.117 7.914,16.604Z" style="fill:#626d5f;"/><path d="M561.477,127.37c4.313,-3.557 10.804,-2.821 14.486,1.643c3.682,4.464 3.17,10.977 -1.142,14.534c5.576,-0.85 10.941,3.045 11.974,8.69c1.032,5.644 -2.657,10.917 -8.234,11.765c5.346,2.087 8.148,8.096 6.253,13.409c-1.894,5.313 -7.771,7.931 -13.117,5.844c3.682,4.464 3.17,10.977 -1.143,14.534c-4.313,3.558 -10.804,2.822 -14.486,-1.642c1.033,5.645 -2.657,10.916 -8.233,11.766c-5.576,0.848 -10.942,-3.045 -11.974,-8.691c-1.894,5.314 -7.772,7.932 -13.117,5.846c-5.346,-2.088 -8.148,-8.097 -6.253,-13.409c-4.313,3.557 -10.804,2.821 -14.487,-1.643c-3.682,-4.464 -3.17,-10.977 1.144,-14.535c-5.577,0.849 -10.942,-3.044 -11.975,-8.689c-1.031,-5.645 2.657,-10.917 8.233,-11.766c-5.345,-2.087 -8.147,-8.096 -6.253,-13.408c1.894,-5.313 7.772,-7.932 13.117,-5.845c-3.682,-4.464 -3.17,-10.977 1.143,-14.535c4.313,-3.557 10.805,-2.82 14.486,1.644c-1.031,-5.645 2.657,-10.917 8.234,-11.766c5.576,-0.849 10.942,3.045 11.973,8.69c1.895,-5.313 7.773,-7.932 13.118,-5.845c5.345,2.088 8.147,8.095 6.253,13.409Z" style="fill:#626d5f;"/></g><g><path d="M54.772,14.66c0,-7.889 6.336,-14.295 14.141,-14.295c7.804,0 14.14,6.406 14.14,14.295c3.902,-6.832 12.557,-9.177 19.316,-5.232c6.758,3.945 9.077,12.695 5.175,19.528c6.759,-3.945 15.414,-1.6 19.316,5.232c3.902,6.833 1.583,15.583 -5.175,19.528c7.804,0 14.14,6.406 14.14,14.296c0,7.889 -6.336,14.295 -14.14,14.295c6.758,3.945 9.077,12.695 5.175,19.528c-3.902,6.833 -12.557,9.177 -19.316,5.232c3.902,6.833 1.583,15.583 -5.175,19.528c-6.759,3.945 -15.414,1.601 -19.316,-5.232c0,7.89 -6.336,14.295 -14.14,14.295c-7.805,0 -14.141,-6.405 -14.141,-14.295c-3.902,6.833 -12.557,9.177 -19.316,5.232c-6.758,-3.945 -9.077,-12.695 -5.175,-19.528c-6.759,3.945 -15.414,1.601 -19.316,-5.232c-3.902,-6.833 -1.583,-15.583 5.176,-19.528c-7.805,0 -14.141,-6.406 -14.141,-14.295c0,-7.89 6.336,-14.296 14.141,-14.296c-6.759,-3.945 -9.078,-12.695 -5.176,-19.528c3.902,-6.832 12.557,-9.177 19.316,-5.232c-3.902,-6.833 -1.583,-15.583 5.175,-19.528c6.759,-3.945 15.414,-1.6 19.316,5.232Z" style="fill:#5b6657;"/><path d="M96.494,337.301c0,-6.644 5.596,-12.039 12.489,-12.039c6.893,0 12.489,5.395 12.489,12.039c3.446,-5.754 11.09,-7.729 17.06,-4.407c5.969,3.322 8.017,10.691 4.571,16.445c5.969,-3.322 13.614,-1.348 17.06,4.406c3.446,5.754 1.398,13.123 -4.571,16.445c6.893,0 12.489,5.394 12.489,12.038c0,6.644 -5.596,12.038 -12.489,12.038c5.969,3.322 8.017,10.691 4.571,16.445c-3.446,5.754 -11.091,7.728 -17.06,4.406c3.446,5.754 1.398,13.123 -4.571,16.445c-5.97,3.322 -13.614,1.347 -17.06,-4.407c0,6.644 -5.596,12.038 -12.489,12.038c-6.893,0 -12.489,-5.394 -12.489,-12.038c-3.446,5.754 -11.091,7.729 -17.06,4.407c-5.969,-3.322 -8.018,-10.691 -4.571,-16.445c-5.969,3.322 -13.614,1.348 -17.06,-4.406c-3.447,-5.754 -1.398,-13.123 4.571,-16.445c-6.893,0 -12.489,-5.394 -12.489,-12.038c0,-6.644 5.596,-12.038 12.489,-12.038c-5.969,-3.322 -8.018,-10.691 -4.571,-16.445c3.446,-5.754 11.091,-7.728 17.06,-4.406c-3.447,-5.754 -1.398,-13.123 4.571,-16.445c5.969,-3.322 13.614,-1.347 17.06,4.407Z" style="fill:#5b6657;"/><path d="M430.682,92.07c0,-8.098 7.03,-14.672 15.688,-14.672c8.659,0 15.689,6.574 15.689,14.672c4.329,-7.013 13.932,-9.419 21.43,-5.371c7.499,4.049 10.072,13.03 5.743,20.042c7.498,-4.049 17.101,-1.642 21.431,5.37c4.329,7.013 1.756,15.993 -5.743,20.042c8.659,0 15.689,6.574 15.689,14.672c0,8.097 -7.03,14.671 -15.689,14.671c7.499,4.049 10.072,13.03 5.743,20.042c-4.33,7.013 -13.933,9.419 -21.431,5.37c4.329,7.013 1.756,15.993 -5.743,20.042c-7.498,4.049 -17.101,1.643 -21.43,-5.37c0,8.097 -7.03,14.671 -15.689,14.671c-8.658,0 -15.688,-6.574 -15.688,-14.671c-4.33,7.013 -13.932,9.419 -21.431,5.37c-7.499,-4.049 -10.072,-13.029 -5.742,-20.042c-7.499,4.049 -17.102,1.643 -21.431,-5.37c-4.329,-7.012 -1.756,-15.993 5.742,-20.042c-8.658,0 -15.688,-6.574 -15.688,-14.671c0,-8.098 7.03,-14.672 15.688,-14.672c-7.498,-4.049 -10.071,-13.029 -5.742,-20.042c4.329,-7.012 13.932,-9.419 21.431,-5.37c-4.33,-7.012 -1.757,-15.993 5.742,-20.042c7.499,-4.048 17.101,-1.642 21.431,5.371Z" style="fill:#5b6657;"/><path d="M539.799,497.924c0,-4.764 3.978,-8.633 8.877,-8.633c4.899,0 8.876,3.869 8.876,8.633c2.449,-4.126 7.883,-5.542 12.125,-3.16c4.243,2.382 5.699,7.667 3.249,11.793c4.243,-2.382 9.676,-0.966 12.125,3.161c2.45,4.127 0.994,9.411 -3.248,11.794c4.898,0 8.876,3.869 8.876,8.633c0,4.766 -3.978,8.634 -8.876,8.634c4.242,2.383 5.698,7.667 3.248,11.794c-2.449,4.127 -7.882,5.543 -12.125,3.16c2.45,4.127 0.994,9.412 -3.249,11.794c-4.242,2.382 -9.676,0.966 -12.125,-3.16c0,4.765 -3.977,8.633 -8.876,8.633c-4.899,0 -8.877,-3.868 -8.877,-8.633c-2.449,4.126 -7.882,5.542 -12.125,3.16c-4.243,-2.382 -5.699,-7.667 -3.249,-11.794c-4.243,2.383 -9.676,0.967 -12.125,-3.16c-2.45,-4.127 -0.994,-9.411 3.249,-11.794c-4.899,0 -8.877,-3.868 -8.877,-8.634c0,-4.764 3.978,-8.633 8.877,-8.633c-4.243,-2.383 -5.699,-7.667 -3.249,-11.794c2.449,-4.127 7.882,-5.543 12.125,-3.161c-2.45,-4.126 -0.994,-9.411 3.249,-11.793c4.243,-2.382 9.676,-0.966 12.125,3.16Z" style="fill:#5b6657;"/><path d="M501.328,327.622c0,-6.199 5.273,-11.232 11.767,-11.232c6.494,0 11.766,5.033 11.766,11.232c3.247,-5.368 10.449,-7.21 16.073,-4.111c5.624,3.1 7.554,9.975 4.307,15.343c5.624,-3.099 12.826,-1.257 16.073,4.112c3.247,5.368 1.317,12.243 -4.307,15.343c6.494,0 11.767,5.033 11.767,11.232c0,6.199 -5.273,11.232 -11.767,11.232c5.624,3.1 7.554,9.975 4.307,15.344c-3.247,5.368 -10.449,7.21 -16.073,4.111c3.247,5.368 1.317,12.244 -4.307,15.343c-5.624,3.1 -12.826,1.257 -16.073,-4.111c0,6.199 -5.272,11.232 -11.766,11.232c-6.494,0 -11.767,-5.033 -11.767,-11.232c-3.247,5.368 -10.449,7.211 -16.073,4.111c-5.624,-3.099 -7.553,-9.975 -4.306,-15.343c-5.624,3.099 -12.827,1.257 -16.074,-4.111c-3.247,-5.369 -1.317,-12.244 4.307,-15.344c-6.494,0 -11.766,-5.033 -11.766,-11.232c0,-6.199 5.272,-11.232 11.766,-11.232c-5.624,-3.1 -7.554,-9.975 -4.307,-15.343c3.247,-5.369 10.45,-7.211 16.074,-4.112c-3.247,-5.368 -1.318,-12.243 4.306,-15.343c5.624,-3.099 12.826,-1.257 16.073,4.111Z" style="fill:#5b6657;"/><path d="M95.412,484.224c0,-6.375 5.596,-11.551 12.489,-11.551c6.893,0 12.489,5.176 12.489,11.551c3.446,-5.521 11.091,-7.416 17.06,-4.227c5.969,3.188 8.018,10.258 4.571,15.78c5.97,-3.188 13.614,-1.294 17.06,4.227c3.447,5.522 1.398,12.592 -4.571,15.78c6.893,0 12.489,5.177 12.489,11.553c0,6.375 -5.596,11.551 -12.489,11.551c5.969,3.188 8.018,10.259 4.571,15.78c-3.446,5.522 -11.09,7.416 -17.06,4.228c3.447,5.522 1.398,12.593 -4.571,15.78c-5.969,3.188 -13.614,1.294 -17.06,-4.227c0,6.375 -5.596,11.551 -12.489,11.551c-6.893,0 -12.489,-5.176 -12.489,-11.551c-3.446,5.521 -11.09,7.415 -17.06,4.227c-5.969,-3.187 -8.017,-10.258 -4.571,-15.78c-5.969,3.188 -13.614,1.294 -17.06,-4.228c-3.446,-5.521 -1.398,-12.592 4.571,-15.78c-6.892,0 -12.489,-5.176 -12.489,-11.551c0,-6.376 5.597,-11.553 12.489,-11.553c-5.969,-3.188 -8.017,-10.258 -4.571,-15.78c3.446,-5.521 11.091,-7.415 17.06,-4.227c-3.446,-5.522 -1.398,-12.592 4.571,-15.78c5.97,-3.189 13.614,-1.294 17.06,4.227Z" style="fill:#5b6657;"/><path d="M201.731,459.201c0,-4.877 4.07,-8.837 9.083,-8.837c5.013,0 9.083,3.96 9.083,8.837c2.506,-4.224 8.066,-5.673 12.407,-3.235c4.341,2.438 5.831,7.848 3.325,12.072c4.341,-2.439 9.9,-0.989 12.407,3.234c2.506,4.225 1.017,9.633 -3.325,12.073c5.013,0 9.083,3.96 9.083,8.837c0,4.878 -4.07,8.837 -9.083,8.837c4.342,2.439 5.831,7.848 3.325,12.073c-2.507,4.223 -8.066,5.673 -12.407,3.234c2.506,4.224 1.016,9.633 -3.325,12.072c-4.341,2.438 -9.901,0.989 -12.407,-3.235c0,4.878 -4.07,8.837 -9.083,8.837c-5.013,0 -9.083,-3.959 -9.083,-8.837c-2.506,4.224 -8.066,5.673 -12.407,3.235c-4.341,-2.439 -5.831,-7.848 -3.325,-12.072c-4.341,2.439 -9.9,0.989 -12.407,-3.234c-2.506,-4.225 -1.017,-9.634 3.325,-12.073c-5.013,0 -9.083,-3.959 -9.083,-8.837c0,-4.877 4.07,-8.837 9.083,-8.837c-4.342,-2.44 -5.831,-7.848 -3.325,-12.073c2.507,-4.223 8.066,-5.673 12.407,-3.234c-2.506,-4.224 -1.016,-9.634 3.325,-12.072c4.341,-2.438 9.901,-0.989 12.407,3.235Z" style="fill:#5b6657;"/><path d="M135.717,130.813c0,-5.087 4.087,-9.217 9.121,-9.217c5.034,0 9.121,4.13 9.121,9.217c2.517,-4.406 8.1,-5.917 12.459,-3.374c4.359,2.544 5.855,8.185 3.338,12.591c4.36,-2.544 9.943,-1.032 12.459,3.374c2.517,4.405 1.022,10.047 -3.338,12.59c5.034,0 9.121,4.131 9.121,9.218c0,5.087 -4.087,9.217 -9.121,9.217c4.36,2.543 5.855,8.185 3.338,12.59c-2.516,4.406 -8.099,5.918 -12.459,3.374c2.517,4.406 1.021,10.047 -3.338,12.591c-4.359,2.543 -9.942,1.032 -12.459,-3.374c0,5.087 -4.087,9.217 -9.121,9.217c-5.034,0 -9.121,-4.13 -9.121,-9.217c-2.516,4.406 -8.099,5.917 -12.459,3.374c-4.359,-2.544 -5.855,-8.185 -3.338,-12.591c-4.36,2.544 -9.942,1.032 -12.459,-3.374c-2.517,-4.405 -1.021,-10.047 3.338,-12.59c-5.034,0 -9.12,-4.13 -9.12,-9.217c0,-5.087 4.086,-9.218 9.12,-9.218c-4.359,-2.543 -5.855,-8.185 -3.338,-12.59c2.517,-4.406 8.099,-5.918 12.459,-3.374c-2.517,-4.406 -1.021,-10.047 3.338,-12.591c4.36,-2.543 9.943,-1.032 12.459,3.374Z" style="fill:#5b6657;"/><path d="M531.242,33.491c0,-4.522 3.752,-8.193 8.373,-8.193c4.621,0 8.373,3.671 8.373,8.193c2.311,-3.916 7.436,-5.26 11.438,-2.999c4.002,2.261 5.375,7.277 3.065,11.193c4.002,-2.261 9.127,-0.917 11.437,2.999c2.311,3.916 0.938,8.931 -3.064,11.192c4.621,0 8.373,3.672 8.373,8.194c0,4.522 -3.752,8.193 -8.373,8.193c4.002,2.261 5.375,7.277 3.064,11.193c-2.31,3.916 -7.435,5.26 -11.437,2.999c2.31,3.916 0.937,8.931 -3.065,11.192c-4.002,2.262 -9.127,0.918 -11.438,-2.999c0,4.523 -3.752,8.194 -8.373,8.194c-4.621,0 -8.373,-3.671 -8.373,-8.194c-2.31,3.917 -7.435,5.261 -11.437,2.999c-4.002,-2.261 -5.376,-7.276 -3.065,-11.192c-4.002,2.261 -9.127,0.917 -11.438,-2.999c-2.31,-3.916 -0.937,-8.932 3.065,-11.193c-4.621,0 -8.373,-3.671 -8.373,-8.193c0,-4.522 3.752,-8.194 8.373,-8.194c-4.002,-2.261 -5.375,-7.276 -3.065,-11.192c2.311,-3.916 7.436,-5.26 11.438,-2.999c-2.311,-3.916 -0.937,-8.932 3.065,-11.193c4.002,-2.261 9.127,-0.917 11.437,2.999Z" style="fill:#5b6657;"/><path d="M447.31,425.729c0,-6.725 5.854,-12.185 13.064,-12.185c7.21,0 13.063,5.46 13.063,12.185c3.605,-5.824 11.601,-7.822 17.845,-4.46c6.244,3.362 8.387,10.82 4.782,16.644c6.244,-3.362 14.24,-1.364 17.845,4.46c3.605,5.824 1.463,13.282 -4.782,16.644c7.21,0 13.064,5.46 13.064,12.184c0,6.725 -5.854,12.185 -13.064,12.185c6.245,3.362 8.387,10.82 4.782,16.644c-3.605,5.824 -11.601,7.822 -17.845,4.46c3.605,5.824 1.462,13.282 -4.782,16.644c-6.244,3.362 -14.24,1.364 -17.845,-4.46c0,6.725 -5.853,12.185 -13.063,12.185c-7.21,0 -13.064,-5.46 -13.064,-12.185c-3.605,5.824 -11.601,7.822 -17.845,4.46c-6.244,-3.362 -8.387,-10.82 -4.782,-16.644c-6.244,3.362 -14.24,1.364 -17.845,-4.46c-3.605,-5.824 -1.462,-13.282 4.782,-16.644c-7.21,0 -13.064,-5.46 -13.064,-12.185c0,-6.724 5.854,-12.184 13.064,-12.184c-6.244,-3.362 -8.387,-10.82 -4.782,-16.644c3.605,-5.824 11.601,-7.822 17.845,-4.46c-3.605,-5.824 -1.462,-13.282 4.782,-16.644c6.244,-3.362 14.24,-1.364 17.845,4.46Z" style="fill:#5b6657;"/><path d="M324.114,28.258c0,-5.59 4.698,-10.129 10.485,-10.129c5.787,0 10.485,4.539 10.485,10.129c2.893,-4.842 9.311,-6.503 14.323,-3.707c5.011,2.795 6.731,8.995 3.837,13.838c5.012,-2.797 11.43,-1.135 14.323,3.707c2.893,4.842 1.174,11.042 -3.838,13.838c5.787,0 10.485,4.54 10.485,10.13c0,5.591 -4.698,10.13 -10.485,10.13c5.012,2.795 6.731,8.996 3.838,13.838c-2.893,4.842 -9.311,6.503 -14.323,3.708c2.894,4.842 1.174,11.042 -3.837,13.838c-5.012,2.795 -11.43,1.134 -14.323,-3.708c0,5.591 -4.698,10.13 -10.485,10.13c-5.787,0 -10.485,-4.539 -10.485,-10.13c-2.894,4.842 -9.311,6.503 -14.323,3.708c-5.011,-2.796 -6.731,-8.996 -3.838,-13.838c-5.011,2.795 -11.429,1.134 -14.322,-3.708c-2.894,-4.842 -1.174,-11.043 3.837,-13.838c-5.786,0 -10.485,-4.539 -10.485,-10.13c0,-5.59 4.699,-10.13 10.485,-10.13c-5.011,-2.796 -6.731,-8.996 -3.837,-13.838c2.893,-4.842 9.311,-6.504 14.322,-3.707c-2.893,-4.843 -1.173,-11.043 3.838,-13.838c5.012,-2.796 11.429,-1.135 14.323,3.707Z" style="fill:#5b6657;"/></g></g></svg>