<?xml version="1.0" encoding="UTF-8" standalone="no"?><!DOCTYPE svg PUBLIC "-//W3C//DTD SVG 1.1//EN" "http://www.w3.org/Graphics/SVG/1.1/DTD/svg11.dtd"><svg width="100%" height="100%" viewBox="0 0 2480 2463" version="1.1" xmlns="http://www.w3.org/2000/svg" xmlns:xlink="http://www.w3.org/1999/xlink" xml:space="preserve" xmlns:serif="http://www.serif.com/" style="fill-rule:evenodd;clip-rule:evenodd;stroke-linejoin:round;stroke-miterlimit:2;"><g><path d="M2399.31,167.255c-0,-90.946 -73.838,-164.784 -164.783,-164.784l-1949.68,0c-90.946,0 -164.783,73.838 -164.783,164.784l-0,2005.85c-0,90.946 73.837,164.783 164.783,164.783l1949.68,0c90.945,0 164.783,-73.837 164.783,-164.783l-0,-2005.85Z" style="fill:#6f836d;"/><path d="M2296.57,294.003c-0,-81.779 -66.006,-148.173 -147.306,-148.173l-1742.89,-0c-81.299,-0 -147.305,66.394 -147.305,148.173l-0,1803.65c-0,81.778 66.006,148.173 147.305,148.173l1742.89,-0c81.3,-0 147.306,-66.395 147.306,-148.173l-0,-1803.65Z" style="fill:#71846c;"/><g><path d="M195.418,1909.26c-26.976,12.587 -60.044,-1.116 -73.795,-30.587c-13.749,-29.466 -3.007,-63.611 23.969,-76.198c-30.237,-3.833 -53.504,-32.771 -51.922,-64.587c1.583,-31.811 27.417,-54.528 57.656,-50.697c-25.397,-19.227 -32.628,-55.648 -16.141,-81.282c16.49,-25.636 50.496,-30.84 75.892,-11.618c-13.749,-29.466 -3.007,-63.611 23.972,-76.2c26.976,-12.587 60.043,1.116 73.793,30.583c1.583,-31.812 27.417,-54.529 57.657,-50.697c30.239,3.831 53.503,32.771 51.922,64.586c16.49,-25.635 50.495,-30.84 75.891,-11.617c25.398,19.226 32.632,55.646 16.142,81.282c26.979,-12.589 60.043,1.116 73.793,30.582c13.751,29.471 3.012,63.614 -23.967,76.203c30.24,3.831 53.503,32.771 51.922,64.586c-1.583,31.812 -27.417,54.529 -57.657,50.698c25.398,19.226 32.632,55.646 16.141,81.282c-16.49,25.635 -50.495,30.84 -75.893,11.613c13.751,29.471 3.009,63.615 -23.967,76.203c-26.979,12.588 -60.047,-1.115 -73.798,-30.585c-1.581,31.815 -27.415,54.532 -57.655,50.701c-30.236,-3.833 -53.503,-32.771 -51.922,-64.587c-16.49,25.636 -50.496,30.841 -75.892,11.618c-25.398,-19.227 -32.628,-55.648 -16.141,-81.282Z" style="fill:#616f5d;"/><path d="M1619.18,1793.72c-25.086,11.706 -55.316,0.081 -67.461,-25.946c-12.144,-26.027 -1.632,-56.661 23.454,-68.367c-27.797,-2.874 -48.722,-28.257 -46.697,-56.652c2.027,-28.39 26.243,-49.106 54.041,-46.232c-23.06,-16.686 -29.076,-49.03 -13.421,-72.179c15.655,-23.149 47.088,-28.399 70.147,-11.714c-12.144,-26.027 -1.636,-56.66 23.451,-68.366c25.086,-11.705 55.312,-0.079 67.457,25.948c2.027,-28.391 26.243,-49.107 54.04,-46.233c27.798,2.874 48.721,28.263 46.694,56.654c15.655,-23.15 47.087,-28.4 70.147,-11.714c23.061,16.689 29.072,49.031 13.417,72.18c25.086,-11.706 55.313,-0.079 67.457,25.948c12.144,26.027 1.636,56.66 -23.45,68.365c27.797,2.874 48.724,28.261 46.697,56.652c-2.027,28.391 -26.241,49.11 -54.041,46.233c23.06,16.685 29.076,49.029 13.421,72.178c-15.653,23.153 -47.088,28.4 -70.147,11.714c12.144,26.027 1.636,56.66 -23.451,68.366c-25.086,11.706 -55.312,0.079 -67.457,-25.948c-2.027,28.391 -26.241,49.111 -54.04,46.233c-27.798,-2.874 -48.721,-28.262 -46.694,-56.653c-15.653,23.153 -47.087,28.399 -70.147,11.714c-23.06,-16.686 -29.072,-49.032 -13.417,-72.181Z" style="fill:#616f5d;"/><path d="M2042.77,966.792c-25.086,11.706 -55.316,0.081 -67.461,-25.946c-12.144,-26.027 -1.632,-56.661 23.454,-68.367c-27.797,-2.874 -48.722,-28.257 -46.697,-56.652c2.027,-28.391 26.243,-49.106 54.041,-46.232c-23.06,-16.686 -29.076,-49.03 -13.421,-72.179c15.655,-23.149 47.088,-28.399 70.147,-11.714c-12.144,-26.027 -1.636,-56.66 23.451,-68.366c25.086,-11.705 55.313,-0.079 67.457,25.948c2.027,-28.391 26.243,-49.107 54.04,-46.233c27.798,2.874 48.721,28.263 46.694,56.654c15.655,-23.15 47.087,-28.4 70.147,-11.714c23.061,16.689 29.072,49.031 13.417,72.18c25.086,-11.706 55.313,-0.079 67.457,25.948c12.144,26.027 1.637,56.66 -23.45,68.365c27.797,2.874 48.724,28.261 46.697,56.652c-2.027,28.391 -26.241,49.11 -54.041,46.233c23.06,16.685 29.076,49.029 13.421,72.178c-15.653,23.153 -47.088,28.399 -70.147,11.714c12.144,26.027 1.636,56.66 -23.451,68.366c-25.086,11.705 -55.312,0.079 -67.457,-25.948c-2.027,28.391 -26.241,49.111 -54.04,46.233c-27.798,-2.874 -48.721,-28.263 -46.694,-56.653c-15.653,23.153 -47.087,28.399 -70.147,11.714c-23.06,-16.686 -29.071,-49.032 -13.417,-72.181Z" style="fill:#616f5d;"/><path d="M1964.62,2094.75c-30.577,14.267 -67.785,-0.694 -83.039,-33.386c-15.256,-32.695 -2.819,-70.821 27.758,-85.089c-34.107,-3.99 -60.111,-36.01 -58.036,-71.453c2.076,-35.449 31.454,-60.987 65.557,-56.996c-28.499,-21.177 -36.329,-61.678 -17.481,-90.381c18.853,-28.702 57.293,-34.808 85.793,-13.626c-15.255,-32.695 -2.819,-70.822 27.758,-85.089c30.573,-14.266 67.781,0.696 83.037,33.391c2.077,-35.448 31.454,-60.987 65.558,-56.995c34.108,3.994 60.112,36.014 58.034,71.459c18.853,-28.701 57.293,-34.807 85.794,-13.626c28.498,21.178 36.332,61.676 17.479,90.378c30.573,-14.266 67.782,0.696 83.037,33.391c15.254,32.691 2.818,70.818 -27.756,85.084c34.109,3.993 60.111,36.01 58.035,71.459c-2.077,35.449 -31.451,60.985 -65.559,56.991c28.5,21.182 36.334,61.68 17.481,90.382c-18.849,28.699 -57.293,34.807 -85.792,13.629c15.254,32.692 2.817,70.818 -27.756,85.084c-30.577,14.267 -67.785,-0.695 -83.039,-33.386c-2.078,35.445 -31.452,60.982 -65.559,56.992c-34.103,-3.992 -60.11,-36.011 -58.034,-71.46c-18.848,28.704 -57.292,34.812 -85.792,13.63c-28.497,-21.183 -36.329,-61.678 -17.478,-90.383Z" style="fill:#616f5d;"/><path d="M1673.88,831.983c-17.99,8.394 -39.607,0.19 -48.238,-18.308c-8.631,-18.498 -1.03,-40.33 16.96,-48.725c-19.895,-1.977 -34.816,-20 -33.295,-40.214c1.52,-20.218 18.91,-35.027 38.806,-33.046c-16.47,-11.824 -20.695,-34.833 -9.43,-51.35c11.268,-16.523 33.785,-20.334 50.257,-8.516c-8.629,-18.494 -1.03,-40.331 16.96,-48.725c17.995,-8.396 39.607,-0.19 48.236,18.304c1.526,-20.216 18.912,-35.023 38.813,-33.044c19.894,1.977 34.814,19.996 33.294,40.214c11.264,-16.52 33.784,-20.334 50.255,-8.51c16.468,11.82 20.695,34.833 9.43,51.35c17.994,-8.396 39.604,-0.194 48.236,18.304c8.631,18.498 1.036,40.333 -16.959,48.729c19.895,1.977 34.815,19.996 33.295,40.214c-1.519,20.218 -18.909,35.027 -38.806,33.046c16.47,11.824 20.695,34.833 9.43,51.35c-11.268,16.523 -33.784,20.334 -50.259,8.512c8.631,18.498 1.036,40.333 -16.958,48.729c-17.99,8.394 -39.607,0.19 -48.238,-18.308c-1.524,20.22 -18.909,35.027 -38.81,33.048c-19.895,-1.977 -34.814,-19.996 -33.295,-40.215c-11.264,16.521 -33.784,20.335 -50.254,8.511c-16.471,-11.824 -20.696,-34.833 -9.43,-51.35Z" style="fill:#616f5d;"/><path d="M472.142,548.395c-23.407,10.922 -51.701,-0.121 -63.142,-24.641c-11.442,-24.52 -1.726,-53.294 21.68,-64.216c-25.989,-2.802 -45.633,-26.751 -43.84,-53.446c1.796,-26.697 24.355,-46.097 50.345,-43.294c-21.61,-15.776 -27.344,-46.215 -12.792,-67.934c14.548,-21.718 43.907,-26.543 65.521,-10.77c-11.441,-24.52 -1.728,-53.297 21.679,-64.219c23.406,-10.922 51.7,0.121 63.142,24.642c1.796,-26.697 24.355,-46.097 50.348,-43.297c25.99,2.803 45.633,26.751 43.841,53.447c14.548,-21.718 43.911,-26.545 65.521,-10.77c21.613,15.774 27.343,46.215 12.795,67.933c23.407,-10.922 51.699,0.117 63.14,24.637c11.442,24.521 1.728,53.298 -21.679,64.22c25.99,2.802 45.637,26.749 43.841,53.446c-1.793,26.695 -24.357,46.093 -50.347,43.291c21.61,15.775 27.346,46.218 12.798,67.936c-14.552,21.719 -43.911,26.544 -65.525,10.771c11.441,24.52 1.726,53.294 -21.681,64.215c-23.406,10.922 -51.699,-0.117 -63.14,-24.637c-1.796,26.697 -24.355,46.097 -50.345,43.294c-25.993,-2.801 -45.638,-26.753 -43.846,-53.448c-14.548,21.717 -43.905,26.546 -65.519,10.773c-21.61,-15.776 -27.343,-46.215 -12.795,-67.933Z" style="fill:#616f5d;"/><path d="M2096.2,1528.32c-24.072,11.232 -53.476,-0.778 -65.62,-26.805c-12.145,-26.027 -2.459,-56.276 21.612,-67.508c-26.919,-3.284 -47.541,-28.813 -46.019,-56.968c1.521,-28.155 24.608,-48.349 51.53,-45.061c-22.556,-16.925 -28.871,-49.125 -14.094,-71.865c14.775,-22.743 45.082,-27.463 67.636,-10.542c-12.144,-26.027 -2.458,-56.277 21.617,-67.51c24.072,-11.232 53.476,0.778 65.62,26.805c1.521,-28.155 24.609,-48.349 51.53,-45.062c26.92,3.284 47.54,28.809 46.02,56.968c14.775,-22.744 45.087,-27.466 67.637,-10.543c22.554,16.921 28.871,49.125 14.094,71.865c24.071,-11.232 53.475,0.778 65.62,26.805c12.144,26.027 2.458,56.276 -21.613,67.508c26.92,3.283 47.539,28.809 46.02,56.967c-1.517,28.153 -24.611,48.345 -51.53,45.062c22.554,16.921 28.871,49.125 14.094,71.864c-14.777,22.74 -45.083,27.464 -67.637,10.543c12.143,26.023 2.458,56.276 -21.613,67.508c-24.075,11.234 -53.481,-0.78 -65.624,-26.803c-1.521,28.155 -24.61,48.345 -51.53,45.061c-26.919,-3.283 -47.541,-28.812 -46.02,-56.967c-14.777,22.739 -45.083,27.464 -67.637,10.542c-22.555,-16.925 -28.87,-49.124 -14.093,-71.864Z" style="fill:#616f5d;"/><path d="M1917.37,1218.94c-18.415,8.592 -40.538,0.202 -49.37,-18.727c-8.832,-18.928 -1.05,-41.273 17.364,-49.865c-20.363,-2.021 -35.632,-20.461 -34.073,-41.148c1.559,-20.687 19.36,-35.844 39.723,-33.823c-16.855,-12.095 -21.176,-35.639 -9.646,-52.546c11.537,-16.905 34.582,-20.812 51.443,-8.715c-8.832,-18.929 -1.05,-41.273 17.364,-49.865c18.419,-8.595 40.538,-0.202 49.37,18.726c1.561,-20.692 19.36,-35.843 39.727,-33.824c20.364,2.024 35.632,20.46 34.073,41.148c11.532,-16.904 34.583,-20.809 51.438,-8.714c16.855,12.095 21.178,35.642 9.645,52.546c18.419,-8.594 40.538,-0.201 49.37,18.727c8.832,18.928 1.054,41.271 -17.364,49.865c20.363,2.021 35.632,20.461 34.073,41.148c-1.559,20.687 -19.36,35.844 -39.723,33.823c16.856,12.095 21.176,35.639 9.646,52.546c-11.537,16.906 -34.582,20.812 -51.443,8.715c8.832,18.929 1.054,41.271 -17.364,49.866c-18.414,8.592 -40.538,0.201 -49.37,-18.727c-1.561,20.693 -19.359,35.844 -39.726,33.825c-20.365,-2.025 -35.632,-20.461 -34.073,-41.148c-11.533,16.903 -34.584,20.808 -51.439,8.713c-16.855,-12.095 -21.178,-35.642 -9.645,-52.546Z" style="fill:#616f5d;"/><path d="M770.41,2009.42c-19.208,8.962 -42.003,0.807 -50.872,-18.201c-8.869,-19.007 -0.475,-41.716 18.733,-50.678c-21.071,-1.741 -36.613,-20.16 -34.691,-41.099c1.926,-20.941 20.59,-36.528 41.661,-34.787c-17.287,-11.981 -21.415,-35.725 -9.211,-52.988c12.198,-17.265 36.135,-21.56 53.419,-9.578c-8.869,-19.007 -0.472,-41.717 18.736,-50.68c19.208,-8.962 42.003,-0.807 50.872,18.201c1.92,-20.943 20.59,-36.528 41.657,-34.785c21.069,1.737 36.614,20.154 34.69,41.099c12.202,-17.267 36.137,-21.557 53.423,-9.58c17.282,11.979 21.413,35.721 9.211,52.988c19.208,-8.963 42.003,-0.807 50.872,18.201c8.869,19.007 0.475,41.715 -18.733,50.678c21.069,1.737 36.611,20.156 34.691,41.099c-1.926,20.941 -20.59,36.528 -41.661,34.787c17.287,11.98 21.413,35.721 9.211,52.988c-12.198,17.264 -36.137,21.556 -53.419,9.577c8.869,19.008 0.474,41.712 -18.734,50.675c-19.208,8.962 -42.005,0.812 -50.874,-18.195c-1.922,20.939 -20.59,36.528 -41.657,34.785c-21.071,-1.741 -36.614,-20.154 -34.69,-41.099c-12.202,17.267 -36.137,21.556 -53.423,9.58c-17.283,-11.983 -21.415,-35.725 -9.211,-52.988Z" style="fill:#616f5d;"/><path d="M864.09,1069.35c-17.075,7.967 -37.546,0.268 -45.688,-17.181c-8.141,-17.448 -0.89,-38.083 16.184,-46.05c-18.858,-1.826 -32.962,-18.81 -31.476,-37.904c1.487,-19.094 18.007,-33.116 36.863,-31.293c-15.588,-11.128 -19.542,-32.847 -8.826,-48.468c10.715,-15.626 32.07,-19.277 47.658,-8.15c-8.142,-17.448 -0.887,-38.084 16.187,-46.051c17.075,-7.967 37.546,-0.268 45.688,17.18c1.486,-19.094 18.007,-33.116 36.864,-31.289c18.856,1.823 32.961,18.806 31.474,37.9c10.717,-15.621 32.072,-19.273 47.66,-8.145c15.591,11.126 19.546,32.845 8.828,48.472c17.078,-7.969 37.549,-0.27 45.691,17.179c8.141,17.448 0.891,38.082 -16.188,46.051c18.86,1.821 32.964,18.805 31.474,37.901c-1.486,19.094 -18.001,33.118 -36.859,31.291c15.588,11.128 19.543,32.847 8.828,48.472c-10.716,15.622 -32.075,19.275 -47.663,8.148c8.141,17.448 0.891,38.082 -16.184,46.049c-17.074,7.967 -37.549,0.27 -45.691,-17.178c-1.486,19.094 -18.003,33.114 -36.859,31.291c-18.858,-1.827 -32.962,-18.81 -31.476,-37.904c-10.715,15.625 -32.075,19.274 -47.663,8.147c-15.588,-11.128 -19.543,-32.847 -8.826,-48.468Z" style="fill:#616f5d;"/><path d="M1354.4,616.225c-25.393,11.849 -56.323,-0.635 -69.025,-27.859c-12.703,-27.224 -2.399,-58.944 22.993,-70.792c-28.341,-3.351 -49.973,-30.023 -48.28,-59.523c1.694,-29.499 26.078,-50.731 54.42,-47.38c-23.695,-17.653 -30.238,-51.365 -14.599,-75.237c15.639,-23.873 47.573,-28.925 71.27,-11.268c-12.703,-27.224 -2.4,-58.948 22.988,-70.794c25.393,-11.849 56.323,0.636 69.026,27.86c1.692,-29.504 26.078,-50.732 54.42,-47.381c28.342,3.351 49.974,30.023 48.28,59.523c15.639,-23.873 47.575,-28.921 71.271,-11.268c23.695,17.653 30.238,51.365 14.599,75.238c25.393,-11.849 56.321,0.632 69.024,27.856c12.703,27.224 2.4,58.947 -22.992,70.795c28.342,3.351 49.973,30.023 48.28,59.523c-1.694,29.499 -26.078,50.731 -54.42,47.38c23.695,17.653 30.239,51.365 14.599,75.238c-15.639,23.872 -47.575,28.921 -71.27,11.267c12.703,27.224 2.401,58.948 -22.992,70.796c-25.389,11.847 -56.319,-0.638 -69.022,-27.861c-1.693,29.499 -26.078,50.731 -54.42,47.38c-28.342,-3.351 -49.974,-30.023 -48.28,-59.523c-15.639,23.873 -47.575,28.921 -71.27,11.268c-23.696,-17.653 -30.239,-51.365 -14.6,-75.238Z" style="fill:#616f5d;"/><path d="M325.326,1482.94c-22.826,10.65 -50.419,-0.118 -61.579,-24.035c-11.16,-23.917 -1.686,-51.982 21.14,-62.632c-25.35,-2.731 -44.508,-26.092 -42.76,-52.132c1.749,-26.035 23.751,-44.958 49.103,-42.222c-21.082,-15.387 -26.674,-45.078 -12.482,-66.26c14.192,-21.182 42.822,-25.889 63.904,-10.502c-11.159,-23.918 -1.686,-51.982 21.14,-62.633c22.831,-10.652 50.424,0.116 61.584,24.033c1.748,-26.039 23.751,-44.958 49.102,-42.226c25.345,2.733 44.507,26.092 42.759,52.131c14.191,-21.186 42.822,-25.889 63.903,-10.506c21.078,15.388 26.67,45.079 12.478,66.261c22.83,-10.653 50.423,0.116 61.583,24.033c11.16,23.917 1.686,51.981 -21.144,62.634c25.352,2.735 44.512,26.09 42.764,52.13c-1.754,26.037 -23.751,44.957 -49.101,42.226c21.076,15.385 26.668,45.076 12.48,66.256c-14.191,21.186 -42.826,25.891 -63.903,10.506c11.158,23.913 1.687,51.982 -21.144,62.634c-22.826,10.651 -50.421,-0.121 -61.579,-24.034c-1.754,26.037 -23.751,44.957 -49.104,42.222c-25.35,-2.731 -44.512,-26.09 -42.758,-52.127c-14.192,21.181 -42.827,25.887 -63.904,10.502c-21.078,-15.389 -26.672,-45.073 -12.482,-66.259Z" style="fill:#616f5d;"/><path d="M1713.33,463.427c-22.205,10.361 -48.557,0.933 -58.81,-21.041c-10.253,-21.973 -0.549,-48.225 21.656,-58.586c-24.359,-2.013 -42.326,-23.305 -40.104,-47.512c2.227,-24.209 23.803,-42.228 48.162,-40.215c-19.985,-13.85 -24.756,-41.3 -10.649,-61.256c14.102,-19.959 41.774,-24.925 61.755,-11.073c-10.253,-21.973 -0.545,-48.227 21.66,-58.588c22.205,-10.361 48.556,-0.933 58.809,21.041c2.221,-24.211 23.803,-42.228 48.158,-40.213c24.356,2.008 42.328,23.299 40.103,47.512c14.106,-19.961 41.776,-24.92 61.759,-11.075c19.979,13.848 24.754,41.296 10.648,61.256c22.205,-10.361 48.557,-0.932 58.81,21.041c10.253,21.974 0.55,48.225 -21.655,58.586c24.357,2.009 42.323,23.301 40.103,47.512c-2.226,24.209 -23.802,42.229 -48.161,40.216c19.985,13.85 24.754,41.295 10.648,61.256c-14.101,19.958 -41.776,24.92 -61.754,11.072c10.253,21.974 0.547,48.221 -21.658,58.582c-22.205,10.361 -48.559,0.939 -58.812,-21.035c-2.222,24.207 -23.803,42.229 -48.157,40.214c-24.359,-2.013 -42.328,-23.299 -40.104,-47.512c-14.105,19.96 -41.776,24.92 -61.758,11.074c-19.981,-13.852 -24.757,-41.3 -10.649,-61.256Z" style="fill:#616f5d;"/></g><g><path d="M2246.87,374.478c22.964,-18.941 58.41,-13.956 79.103,11.132c20.69,25.084 18.842,60.831 -4.123,79.773c30.233,-3.862 60.006,18.328 66.442,49.525c6.434,31.195 -12.888,59.658 -43.124,63.521c29.404,12.254 45.524,45.704 35.982,74.65c-9.545,28.948 -41.163,42.503 -70.564,30.253c20.69,25.084 18.842,60.831 -4.125,79.775c-22.964,18.941 -58.41,13.956 -79.101,-11.129c6.434,31.195 -12.888,59.657 -43.123,63.521c-30.236,3.864 -60.006,-18.328 -66.442,-49.526c-9.545,28.948 -41.164,42.503 -70.564,30.252c-29.404,-12.253 -45.527,-45.701 -35.982,-74.65c-22.967,18.944 -58.41,13.957 -79.101,-11.128c-20.693,-25.088 -18.847,-60.832 4.12,-79.776c-30.235,3.864 -60.005,-18.328 -66.442,-49.526c-6.433,-31.194 12.889,-59.657 43.124,-63.521c-29.403,-12.253 -45.527,-45.701 -35.982,-74.65c9.545,-28.948 41.164,-42.502 70.567,-30.249c-20.693,-25.088 -18.844,-60.834 4.12,-79.776c22.967,-18.944 58.413,-13.958 79.106,11.13c-6.437,-31.198 12.885,-59.661 43.121,-63.524c30.232,-3.862 60.005,18.328 66.442,49.526c9.545,-28.949 41.163,-42.503 70.564,-30.253c29.403,12.254 45.524,45.704 35.982,74.65Z" style="fill:#65775f;"/><path d="M882.789,830.562c22.821,-18.823 57.124,-14.987 76.551,8.566c19.427,23.554 16.668,57.96 -6.153,76.783c29.477,-4.527 57.804,15.997 63.219,45.808c5.413,29.807 -14.126,57.682 -43.602,62.209c28.233,10.984 43,42.7 32.948,70.776c-10.052,28.077 -41.135,41.956 -69.368,30.972c19.427,23.553 16.671,57.956 -6.15,76.78c-22.821,18.823 -57.12,14.984 -76.547,-8.569c5.413,29.807 -14.126,57.682 -43.603,62.209c-29.476,4.527 -57.803,-16.003 -63.215,-45.81c-10.052,28.076 -41.135,41.956 -69.369,30.972c-28.236,-10.988 -42.996,-42.703 -32.944,-70.779c-22.821,18.823 -57.12,14.984 -76.548,-8.569c-19.427,-23.553 -16.671,-57.957 6.15,-76.78c-29.476,4.527 -57.807,-16 -63.219,-45.808c-5.413,-29.807 14.123,-57.686 43.602,-62.209c-28.233,-10.984 -43,-42.7 -32.948,-70.776c10.049,-28.08 41.135,-41.956 69.369,-30.972c-19.428,-23.553 -16.672,-57.956 6.149,-76.78c22.821,-18.823 57.12,-14.984 76.547,8.569c-5.412,-29.807 14.124,-57.686 43.603,-62.209c29.476,-4.527 57.803,16.003 63.215,45.81c10.049,-28.08 41.135,-41.956 69.369,-30.972c28.233,10.984 42.996,42.703 32.944,70.779Z" style="fill:#65775f;"/><path d="M638.512,1773.95c21.356,-17.615 53.534,-13.931 71.809,8.225c18.275,22.157 15.77,54.448 -5.586,72.063c27.632,-4.179 54.246,15.155 59.396,43.152c5.148,27.994 -13.109,54.114 -40.74,58.293c26.503,10.378 40.427,40.186 31.068,66.518c-9.359,26.331 -38.475,39.286 -64.979,28.907c18.276,22.156 15.774,54.445 -5.582,72.06c-21.356,17.615 -53.531,13.928 -71.806,-8.228c5.148,27.994 -13.109,54.114 -40.74,58.293c-27.632,4.178 -54.246,-15.162 -59.393,-43.155c-9.359,26.332 -38.475,39.286 -64.979,28.907c-26.506,-10.382 -40.424,-40.189 -31.065,-66.521c-21.356,17.615 -53.53,13.929 -71.806,-8.227c-18.275,-22.157 -15.773,-54.445 5.583,-72.06c-27.632,4.179 -54.249,-15.159 -59.396,-43.152c-5.148,-27.994 13.106,-54.118 40.74,-58.293c-26.503,-10.379 -40.427,-40.186 -31.068,-66.518c9.356,-26.335 38.475,-39.286 64.979,-28.907c-18.276,-22.157 -15.774,-54.445 5.582,-72.06c21.356,-17.615 53.531,-13.929 71.806,8.228c-5.148,-27.994 13.106,-54.117 40.74,-58.293c27.632,-4.179 54.246,15.161 59.393,43.155c9.357,-26.335 38.476,-39.286 64.979,-28.907c26.503,10.378 40.424,40.188 31.065,66.52Z" style="fill:#65775f;"/><path d="M487.595,637.952c26.029,-21.47 65.799,-16.302 88.753,11.527c22.958,27.833 20.465,67.859 -5.565,89.329c34.02,-4.678 67.214,19.81 74.081,54.643c6.867,34.84 -15.179,66.921 -49.195,71.597c32.894,13.366 50.617,50.615 39.558,83.124c-11.065,32.508 -46.751,48.046 -79.648,34.676c22.958,27.833 20.465,67.859 -5.564,89.329c-26.027,21.468 -65.796,16.3 -88.754,-11.533c6.867,34.84 -15.179,66.921 -49.195,71.597c-34.022,4.675 -67.216,-19.813 -74.08,-54.649c-11.065,32.508 -46.751,48.046 -79.648,34.677c-32.894,-13.366 -50.62,-50.612 -39.556,-83.121c-26.026,21.468 -65.795,16.3 -88.753,-11.532c-22.954,-27.83 -20.462,-67.856 5.565,-89.323c-34.022,4.675 -67.214,-19.81 -74.081,-54.649c-6.867,-34.84 15.176,-66.919 49.198,-71.594c-32.896,-13.369 -50.623,-50.615 -39.558,-83.123c11.062,-32.506 46.751,-48.046 79.645,-34.68c-22.954,-27.83 -20.462,-67.856 5.565,-89.323c26.029,-21.47 65.799,-16.303 88.753,11.527c-6.864,-34.836 15.179,-66.915 49.198,-71.594c34.016,-4.676 67.213,19.81 74.08,54.649c11.059,-32.509 46.749,-48.049 79.646,-34.68c32.893,13.372 50.617,50.615 39.555,83.126Z" style="fill:#65775f;"/><path d="M1085.3,1787.67c15.315,-12.632 38.297,-10.103 51.286,5.644c12.988,15.747 11.097,38.788 -4.218,51.42c19.756,-3.068 38.715,10.644 42.305,30.595c3.592,19.954 -9.536,38.646 -29.294,41.711c18.906,7.322 28.759,28.54 21.988,47.352c-6.771,18.818 -27.615,28.147 -46.523,20.83c12.986,15.744 11.097,38.788 -4.217,51.42c-15.318,12.635 -38.297,10.102 -51.283,-5.641c3.586,19.954 -9.538,38.643 -29.3,41.71c-19.756,3.068 -38.713,-10.641 -42.305,-30.595c-6.767,18.815 -27.615,28.147 -46.522,20.824c-18.904,-7.319 -28.759,-28.54 -21.989,-47.352c-15.318,12.635 -38.294,10.106 -51.282,-5.641c-12.989,-15.747 -11.104,-38.788 4.215,-51.423c-19.757,3.068 -38.713,-10.641 -42.305,-30.595c-3.592,-19.954 9.535,-38.646 29.294,-41.711c-18.906,-7.323 -28.759,-28.541 -21.989,-47.352c6.772,-18.818 27.616,-28.147 46.526,-20.827c-12.989,-15.747 -11.103,-38.788 4.215,-51.423c15.315,-12.632 38.297,-10.103 51.285,5.644c-3.588,-19.957 9.536,-38.646 29.298,-41.714c19.756,-3.068 38.713,10.641 42.305,30.596c6.767,-18.815 27.615,-28.147 46.522,-20.825c18.906,7.323 28.759,28.541 21.988,47.353Z" style="fill:#65775f;"/><path d="M2327.35,1711.7c19.926,-16.435 50.083,-12.829 67.301,8.044c17.217,20.874 15.017,51.164 -4.909,67.599c25.863,-3.795 50.879,14.471 55.828,40.765c4.946,26.296 -12.035,50.727 -37.898,54.522c24.872,9.861 38.045,37.895 29.396,62.566c-8.646,24.669 -35.861,36.693 -60.736,26.834c17.217,20.874 15.019,51.167 -4.906,67.602c-19.926,16.436 -50.084,12.83 -67.301,-8.044c4.946,26.297 -12.035,50.728 -37.902,54.526c-25.863,3.795 -50.878,-14.471 -55.827,-40.765c-8.646,24.669 -35.865,36.695 -60.737,26.834c-24.875,-9.858 -38.045,-37.894 -29.4,-62.563c-19.925,16.435 -50.08,12.833 -67.298,-8.041c-17.217,-20.874 -15.019,-51.167 4.906,-67.602c-25.863,3.795 -50.881,-14.468 -55.828,-40.764c-4.949,-26.294 12.038,-50.724 37.901,-54.52c-24.872,-9.861 -38.048,-37.897 -29.402,-62.566c8.649,-24.672 35.865,-36.695 60.74,-26.837c-17.218,-20.874 -15.017,-51.164 4.908,-67.599c19.926,-16.435 50.081,-12.833 67.298,8.041c-4.946,-26.296 12.036,-50.727 37.899,-54.522c25.866,-3.798 50.884,14.471 55.834,40.765c8.645,-24.669 35.858,-36.696 60.733,-26.838c24.872,9.861 38.046,37.895 29.4,62.563Z" style="fill:#65775f;"/><path d="M422.28,1228.93c20.491,-16.902 51.966,-12.638 70.241,9.518c18.276,22.157 16.474,53.868 -4.018,70.77c26.884,-3.563 53.242,15.989 58.82,43.628c5.578,27.638 -11.717,52.97 -38.604,56.53c26.076,10.737 40.253,40.329 31.642,66.045c-8.609,25.718 -36.769,37.878 -62.842,27.144c18.275,22.157 16.473,53.868 -4.021,70.773c-20.492,16.902 -51.967,12.638 -70.242,-9.518c5.578,27.638 -11.717,52.971 -38.604,56.53c-26.884,3.562 -53.239,-15.986 -58.819,-43.628c-8.609,25.719 -36.772,37.881 -62.842,27.145c-26.073,-10.734 -40.253,-40.33 -31.641,-66.045c-20.492,16.902 -51.967,12.638 -70.242,-9.518c-18.275,-22.157 -16.473,-53.868 4.018,-70.77c-26.884,3.562 -53.239,-15.986 -58.819,-43.628c-5.582,-27.636 11.719,-52.967 38.603,-56.53c-26.073,-10.734 -40.253,-40.329 -31.641,-66.045c8.611,-25.715 36.768,-37.878 62.841,-27.144c-18.272,-22.154 -16.473,-53.868 4.019,-70.77c20.494,-16.905 51.972,-12.638 70.245,9.515c-5.578,-27.639 11.719,-52.968 38.603,-56.53c26.884,-3.562 53.242,15.989 58.82,43.628c8.611,-25.716 36.768,-37.879 62.841,-27.145c26.076,10.737 40.253,40.33 31.642,66.045Z" style="fill:#65775f;"/><path d="M784.593,1504.33c15.676,-12.929 39.196,-10.346 52.487,5.767c13.29,16.114 11.352,39.695 -4.324,52.625c20.22,-3.143 39.621,10.886 43.292,31.304c3.671,20.418 -9.766,39.55 -29.987,42.693c19.347,7.488 29.427,29.2 22.497,48.456c-6.935,19.256 -28.268,28.809 -47.621,21.32c13.291,16.114 11.353,39.695 -4.323,52.625c-15.68,12.933 -39.195,10.347 -52.486,-5.767c3.67,20.425 -9.767,39.55 -29.99,42.696c-20.223,3.139 -39.621,-10.886 -43.292,-31.304c-6.932,19.253 -28.271,28.806 -47.618,21.317c-19.347,-7.488 -29.428,-29.203 -22.496,-48.456c-15.68,12.933 -39.196,10.346 -52.487,-5.767c-13.29,-16.113 -11.356,-39.692 4.324,-52.625c-20.22,3.143 -39.621,-10.885 -43.292,-31.304c-3.671,-20.418 9.766,-39.55 29.987,-42.692c-19.347,-7.489 -29.427,-29.2 -22.497,-48.457c6.935,-19.256 28.268,-28.809 47.621,-21.32c-13.291,-16.113 -11.356,-39.692 4.323,-52.625c15.676,-12.93 39.195,-10.346 52.486,5.767c-3.67,-20.424 9.767,-39.55 29.99,-42.696c20.223,-3.139 39.621,10.886 43.292,31.305c6.932,-19.253 28.271,-28.806 47.618,-21.318c19.347,7.489 29.428,29.203 22.496,48.456Z" style="fill:#65775f;"/><path d="M1665.12,421.499c16.351,-13.487 40.462,-11.3 53.809,4.881c13.346,16.181 10.907,40.268 -5.445,53.755c20.836,-3.591 40.495,10.349 43.878,31.102c3.379,20.756 -10.786,40.52 -31.622,44.111c19.737,7.27 29.679,29.224 22.187,48.993c-7.486,19.769 -29.585,29.922 -49.318,22.65c13.346,16.181 10.904,40.27 -5.448,53.757c-16.351,13.487 -40.462,11.3 -53.808,-4.881c3.385,20.757 -10.787,40.521 -31.619,44.109c-20.833,3.594 -40.495,-10.343 -43.877,-31.102c-7.489,19.772 -29.588,29.919 -49.322,22.653c-19.731,-7.269 -29.676,-29.221 -22.187,-48.993c-16.351,13.487 -40.462,11.3 -53.808,-4.881c-13.347,-16.181 -10.907,-40.268 5.444,-53.755c-20.833,3.595 -40.492,-10.345 -43.877,-31.102c-3.38,-20.756 10.786,-40.52 31.621,-44.111c-19.736,-7.27 -29.676,-29.221 -22.187,-48.993c7.486,-19.769 29.588,-29.919 49.319,-22.65c-13.347,-16.181 -10.905,-40.264 5.447,-53.751c16.351,-13.487 40.462,-11.306 53.809,4.875c-3.383,-20.753 10.786,-40.52 31.618,-44.109c20.836,-3.591 40.495,10.343 43.878,31.102c7.489,-19.772 29.587,-29.919 49.321,-22.652c19.734,7.272 29.679,29.224 22.187,48.992Z" style="fill:#65775f;"/><path d="M1809.84,1355.08c14.535,-11.989 36.282,-9.661 48.534,5.192c12.251,14.854 10.399,36.647 -4.136,48.636c18.714,-2.954 36.622,9.956 39.965,28.814c3.343,18.858 -9.14,36.57 -27.852,39.527c17.878,6.87 27.146,26.906 20.683,44.714c-6.461,17.811 -26.221,26.693 -44.099,19.824c12.252,14.854 10.396,36.649 -4.139,48.638c-14.535,11.989 -36.282,9.662 -48.534,-5.192c3.343,18.859 -9.14,36.571 -27.854,39.525c-18.712,2.957 -36.62,-9.953 -39.963,-28.811c-6.462,17.807 -26.222,26.69 -44.1,19.821c-17.882,-6.867 -27.149,-26.904 -20.686,-44.717c-14.538,11.992 -36.286,9.664 -48.537,-5.189c-12.252,-14.853 -10.399,-36.646 4.139,-48.638c-18.715,2.96 -36.623,-9.95 -39.962,-28.811c-3.343,-18.858 9.134,-36.571 27.848,-39.525c-17.878,-6.869 -27.145,-26.906 -20.685,-44.717c6.463,-17.807 26.226,-26.693 44.104,-19.823c-12.251,-14.854 -10.399,-36.647 4.136,-48.636c14.535,-11.989 36.286,-9.664 48.537,5.189c-3.342,-18.858 9.137,-36.567 27.849,-39.525c18.714,-2.954 36.622,9.957 39.965,28.815c6.46,-17.811 26.226,-26.693 44.104,-19.824c17.878,6.869 27.146,26.906 20.683,44.713Z" style="fill:#65775f;"/><path d="M1448.62,1916.55c21.617,-17.83 54.687,-13.489 73.803,9.686c19.116,23.176 17.083,56.465 -4.533,74.295c28.278,-3.854 55.9,16.551 61.648,45.535c5.748,28.984 -12.543,55.645 -40.821,59.498c27.361,11.157 42.138,42.156 32.976,69.185c-9.163,27.028 -38.814,39.916 -66.178,28.756c19.116,23.176 17.086,56.468 -4.527,74.295c-21.616,17.83 -54.687,13.489 -73.803,-9.686c5.751,28.987 -12.543,55.645 -40.821,59.499c-28.278,3.853 -55.9,-16.552 -61.647,-45.535c-9.163,27.028 -38.817,39.913 -66.178,28.756c-27.361,-11.156 -42.138,-42.155 -32.976,-69.184c-21.616,17.83 -54.684,13.492 -73.8,-9.683c-19.116,-23.175 -17.086,-56.468 4.53,-74.298c-28.278,3.854 -55.899,-16.551 -61.647,-45.535c-5.748,-28.983 12.543,-55.645 40.821,-59.498c-27.362,-11.157 -42.139,-42.156 -32.976,-69.185c9.162,-27.028 38.816,-39.913 66.177,-28.756c-19.115,-23.176 -17.086,-56.468 4.531,-74.298c21.613,-17.827 54.684,-13.486 73.799,9.689c-5.748,-28.984 12.543,-55.645 40.821,-59.499c28.278,-3.853 55.9,16.552 61.648,45.535c9.162,-27.028 38.816,-39.913 66.177,-28.756c27.362,11.156 42.139,42.155 32.976,69.184Z" style="fill:#65775f;"/><path d="M2227.87,819.743c19.431,-16.027 48.842,-12.512 65.636,7.848c16.794,20.36 14.65,49.903 -4.782,65.931c25.227,-3.705 49.624,14.114 54.453,39.762c4.826,25.644 -11.736,49.473 -36.965,53.174c24.264,9.617 37.113,36.961 28.677,61.022c-8.435,24.061 -34.974,35.788 -59.238,26.171c16.794,20.36 14.65,49.903 -4.781,65.931c-19.436,16.03 -48.846,12.515 -65.64,-7.845c4.829,25.647 -11.736,49.473 -36.962,53.177c-25.223,3.701 -49.624,-14.115 -54.453,-39.762c-8.433,24.064 -34.974,35.788 -59.235,26.174c-24.26,-9.619 -37.109,-36.964 -28.674,-61.025c-19.435,16.031 -48.846,12.515 -65.639,-7.845c-16.794,-20.36 -14.65,-49.903 4.785,-65.933c-25.229,3.7 -49.627,-14.112 -54.456,-39.76c-4.823,-25.647 11.736,-49.473 36.962,-53.177c-24.257,-9.616 -37.106,-36.961 -28.674,-61.019c8.432,-24.064 34.977,-35.791 59.234,-26.174c-16.79,-20.357 -14.649,-49.903 4.786,-65.934c19.431,-16.027 48.845,-12.509 65.636,7.848c-4.822,-25.647 11.736,-49.473 36.965,-53.174c25.226,-3.704 49.627,14.112 54.45,39.759c8.435,-24.061 34.98,-35.787 59.238,-26.171c24.26,9.62 37.11,36.958 28.677,61.022Z" style="fill:#65775f;"/></g><g><path d="M225.977,62.034c-0,-32.871 26.4,-59.563 58.921,-59.563c32.516,0 58.916,26.692 58.916,59.563c16.259,-28.467 52.321,-38.238 80.484,-21.8c28.158,16.437 37.82,52.896 21.562,81.367c28.163,-16.438 64.225,-6.667 80.483,21.8c16.259,28.47 6.596,64.929 -21.562,81.366c32.517,0 58.917,26.692 58.917,59.567c-0,32.871 -26.4,59.562 -58.917,59.562c28.158,16.438 37.821,52.896 21.562,81.367c-16.258,28.471 -52.32,38.238 -80.483,21.8c16.258,28.471 6.596,64.929 -21.562,81.367c-28.163,16.437 -64.225,6.671 -80.484,-21.8c0,32.875 -26.4,59.562 -58.916,59.562c-32.521,0 -58.921,-26.687 -58.921,-59.562c-16.259,28.471 -52.321,38.237 -80.484,21.8c-28.158,-16.438 -37.82,-52.896 -21.562,-81.367c-28.163,16.438 -64.225,6.671 -80.483,-21.8c-16.259,-28.471 -6.596,-64.929 21.566,-81.367c-32.521,0 -58.921,-26.691 -58.921,-59.562c0,-32.875 26.4,-59.567 58.921,-59.567c-28.162,-16.437 -37.825,-52.896 -21.566,-81.366c16.258,-28.467 52.32,-38.238 80.483,-21.8c-16.258,-28.471 -6.596,-64.93 21.562,-81.367c28.163,-16.438 64.225,-6.667 80.484,21.8Z" style="fill:#7e8f78;"/><path d="M399.818,1406.37c0,-27.683 23.317,-50.162 52.038,-50.162c28.721,-0 52.037,22.479 52.037,50.162c14.359,-23.975 46.209,-32.204 71.084,-18.362c24.871,13.842 33.404,44.546 19.046,68.521c24.87,-13.842 56.725,-5.617 71.083,18.358c14.358,23.975 5.825,54.679 -19.046,68.521c28.721,-0 52.038,22.475 52.038,50.158c-0,27.684 -23.317,50.159 -52.038,50.159c24.871,13.841 33.404,44.545 19.046,68.52c-14.358,23.975 -46.213,32.2 -71.083,18.359c14.358,23.975 5.825,54.679 -19.046,68.521c-24.875,13.841 -56.725,5.612 -71.084,-18.363c0,27.683 -23.316,50.158 -52.037,50.158c-28.721,0 -52.038,-22.475 -52.038,-50.158c-14.358,23.975 -46.212,32.204 -71.083,18.363c-24.871,-13.842 -33.408,-44.546 -19.046,-68.521c-24.871,13.841 -56.725,5.616 -71.083,-18.359c-14.363,-23.975 -5.825,-54.679 19.046,-68.52c-28.721,-0 -52.038,-22.475 -52.038,-50.159c0,-27.683 23.317,-50.158 52.038,-50.158c-24.871,-13.842 -33.409,-44.546 -19.046,-68.521c14.358,-23.975 46.212,-32.2 71.083,-18.358c-14.362,-23.975 -5.825,-54.679 19.046,-68.521c24.871,-13.842 56.725,-5.613 71.083,18.362Z" style="fill:#7e8f78;"/><path d="M1792.27,384.576c0,-33.742 29.292,-61.134 65.367,-61.134c36.079,0 65.371,27.392 65.371,61.134c18.037,-29.221 58.05,-39.246 89.292,-22.38c31.245,16.871 41.966,54.292 23.929,83.509c31.241,-16.871 71.254,-6.842 89.296,22.375c18.037,29.221 7.316,66.637 -23.93,83.508c36.08,0 65.371,27.392 65.371,61.133c0,33.738 -29.291,61.13 -65.371,61.13c31.246,16.87 41.967,54.291 23.93,83.508c-18.042,29.221 -58.055,39.246 -89.296,22.375c18.037,29.221 7.316,66.637 -23.929,83.508c-31.242,16.871 -71.255,6.846 -89.292,-22.375c-0,33.738 -29.292,61.129 -65.371,61.129c-36.075,0 -65.367,-27.391 -65.367,-61.129c-18.041,29.221 -58.05,39.246 -89.295,22.375c-31.246,-16.871 -41.967,-54.287 -23.925,-83.508c-31.246,16.871 -71.259,6.846 -89.296,-22.375c-18.038,-29.217 -7.317,-66.638 23.925,-83.508c-36.075,-0 -65.367,-27.392 -65.367,-61.13c0,-33.741 29.292,-61.133 65.367,-61.133c-31.242,-16.871 -41.963,-54.287 -23.925,-83.508c18.037,-29.217 58.05,-39.246 89.296,-22.375c-18.042,-29.217 -7.321,-66.638 23.925,-83.509c31.245,-16.866 71.254,-6.841 89.295,22.38Z" style="fill:#7e8f78;"/><path d="M2210.01,2015.13c0,-21.623 18.484,-39.181 41.246,-39.181c22.763,-0 41.242,17.558 41.242,39.181c11.379,-18.727 36.627,-25.154 56.337,-14.342c19.715,10.812 26.48,34.797 15.096,53.524c19.715,-10.812 44.959,-4.385 56.338,14.342c11.383,18.732 4.618,42.713 -15.092,53.529c22.758,0 41.242,17.559 41.242,39.182c-0,21.629 -18.484,39.182 -41.242,39.182c19.71,10.817 26.475,34.797 15.092,53.529c-11.379,18.727 -36.623,25.154 -56.338,14.342c11.384,18.727 4.619,42.713 -15.096,53.524c-19.71,10.812 -44.958,4.385 -56.337,-14.342c-0,21.628 -18.479,39.182 -41.242,39.182c-22.762,-0 -41.246,-17.554 -41.246,-39.182c-11.379,18.727 -36.622,25.154 -56.337,14.342c-19.715,-10.811 -26.48,-34.797 -15.096,-53.524c-19.715,10.812 -44.959,4.385 -56.338,-14.342c-11.383,-18.732 -4.618,-42.712 15.096,-53.529c-22.762,-0 -41.246,-17.553 -41.246,-39.182c0,-21.623 18.484,-39.182 41.246,-39.182c-19.714,-10.816 -26.479,-34.797 -15.096,-53.529c11.379,-18.727 36.623,-25.154 56.338,-14.342c-11.384,-18.727 -4.619,-42.712 15.096,-53.524c19.715,-10.812 44.958,-4.385 56.337,14.342Z" style="fill:#7e8f78;"/><path d="M2086.63,1366.04c-0,-25.829 21.971,-46.8 49.029,-46.8c27.058,0 49.025,20.971 49.025,46.8c13.529,-22.366 43.537,-30.041 66.971,-17.129c23.433,12.917 31.475,41.563 17.946,63.929c23.433,-12.912 53.441,-5.237 66.97,17.134c13.53,22.366 5.488,51.012 -17.945,63.929c27.058,-0 49.029,20.971 49.029,46.8c-0,25.829 -21.971,46.8 -49.029,46.8c23.433,12.916 31.475,41.562 17.945,63.933c-13.529,22.367 -43.537,30.042 -66.97,17.129c13.529,22.367 5.487,51.017 -17.946,63.929c-23.434,12.917 -53.442,5.238 -66.971,-17.129c-0,25.829 -21.967,46.8 -49.025,46.8c-27.058,0 -49.029,-20.971 -49.029,-46.8c-13.529,22.367 -43.538,30.046 -66.971,17.129c-23.433,-12.912 -31.471,-41.562 -17.942,-63.929c-23.433,12.913 -53.446,5.238 -66.975,-17.129c-13.529,-22.371 -5.487,-51.017 17.946,-63.933c-27.058,-0 -49.025,-20.971 -49.025,-46.8c0,-25.829 21.967,-46.8 49.025,-46.8c-23.433,-12.917 -31.475,-41.563 -17.946,-63.929c13.529,-22.371 43.542,-30.046 66.975,-17.134c-13.529,-22.366 -5.491,-51.012 17.942,-63.929c23.433,-12.912 53.442,-5.237 66.971,17.129Z" style="fill:#7e8f78;"/><path d="M254.464,1953.25c0,-26.563 23.317,-48.131 52.038,-48.131c28.721,0 52.037,21.568 52.037,48.131c14.359,-23.006 46.213,-30.899 71.084,-17.615c24.87,13.283 33.408,42.744 19.045,65.75c24.875,-13.283 56.725,-5.391 71.084,17.616c14.362,23.006 5.825,52.467 -19.046,65.75c28.721,0 52.037,21.568 52.037,48.135c0,26.563 -23.316,48.131 -52.037,48.131c24.871,13.284 33.408,42.745 19.046,65.751c-14.359,23.006 -46.209,30.899 -71.084,17.615c14.363,23.006 5.825,52.471 -19.045,65.751c-24.871,13.283 -56.725,5.391 -71.084,-17.616c0,26.563 -23.316,48.131 -52.037,48.131c-28.721,0 -52.038,-21.568 -52.038,-48.131c-14.358,23.007 -46.208,30.899 -71.083,17.616c-24.871,-13.28 -33.404,-42.745 -19.046,-65.751c-24.871,13.284 -56.725,5.391 -71.083,-17.615c-14.359,-23.006 -5.825,-52.467 19.046,-65.751c-28.717,0 -52.038,-21.568 -52.038,-48.131c0,-26.567 23.321,-48.135 52.038,-48.135c-24.871,-13.283 -33.405,-42.744 -19.046,-65.75c14.358,-23.007 46.212,-30.899 71.083,-17.616c-14.358,-23.006 -5.825,-52.467 19.046,-65.75c24.875,-13.284 56.725,-5.391 71.083,17.615Z" style="fill:#7e8f78;"/><path d="M838.306,1914.29c-0,-20.321 16.958,-36.821 37.846,-36.821c20.887,0 37.846,16.5 37.846,36.821c10.441,-17.599 33.608,-23.638 51.695,-13.478c18.088,10.16 24.296,32.7 13.855,50.298c18.087,-10.16 41.25,-4.12 51.695,13.478c10.442,17.603 4.238,40.138 -13.854,50.303c20.888,0 37.846,16.5 37.846,36.82c0,20.325 -16.958,36.821 -37.846,36.821c18.092,10.165 24.296,32.7 13.854,50.303c-10.445,17.598 -33.608,23.638 -51.695,13.478c10.441,17.598 4.233,40.138 -13.855,50.298c-18.087,10.16 -41.254,4.12 -51.695,-13.478c-0,20.325 -16.959,36.821 -37.846,36.821c-20.888,-0 -37.846,-16.496 -37.846,-36.821c-10.442,17.598 -33.608,23.638 -51.696,13.478c-18.087,-10.16 -24.296,-32.7 -13.854,-50.298c-18.088,10.16 -41.25,4.12 -51.696,-13.478c-10.442,-17.603 -4.237,-40.138 13.854,-50.303c-20.887,-0 -37.846,-16.496 -37.846,-36.821c0,-20.32 16.959,-36.82 37.846,-36.82c-18.091,-10.165 -24.296,-32.7 -13.854,-50.303c10.446,-17.598 33.608,-23.638 51.696,-13.478c-10.442,-17.598 -4.233,-40.138 13.854,-50.298c18.088,-10.16 41.254,-4.121 51.696,13.478Z" style="fill:#7e8f78;"/><path d="M504.447,574.455c-0,-25.298 20.445,-45.836 45.627,-45.836c25.182,-0 45.627,20.538 45.627,45.836c12.591,-21.911 40.52,-29.425 62.325,-16.779c21.806,12.652 29.29,40.705 16.699,62.616c21.81,-12.651 49.739,-5.132 62.325,16.779c12.591,21.906 5.112,49.964 -16.698,62.611c25.182,-0 45.627,20.544 45.627,45.842c-0,25.298 -20.445,45.836 -45.627,45.836c21.81,12.647 29.289,40.705 16.698,62.611c-12.586,21.911 -40.515,29.431 -62.325,16.779c12.591,21.912 5.107,49.965 -16.699,62.616c-21.805,12.647 -49.734,5.132 -62.325,-16.779c0,25.298 -20.445,45.837 -45.627,45.837c-25.182,-0 -45.627,-20.539 -45.627,-45.837c-12.586,21.911 -40.515,29.426 -62.326,16.779c-21.805,-12.651 -29.289,-40.704 -16.698,-62.616c-21.81,12.652 -49.734,5.132 -62.325,-16.779c-12.591,-21.906 -5.107,-49.964 16.698,-62.611c-25.182,0 -45.622,-20.538 -45.622,-45.836c-0,-25.298 20.44,-45.842 45.622,-45.842c-21.805,-12.647 -29.289,-40.705 -16.698,-62.611c12.591,-21.911 40.515,-29.43 62.325,-16.779c-12.591,-21.911 -5.107,-49.964 16.698,-62.616c21.811,-12.646 49.74,-5.132 62.326,16.779Z" style="fill:#7e8f78;"/><path d="M2211.27,140.496c0,-18.841 15.634,-34.137 34.888,-34.137c19.254,-0 34.887,15.296 34.887,34.137c9.63,-16.316 30.984,-21.916 47.659,-12.495c16.675,9.42 22.396,30.32 12.771,46.637c16.675,-9.421 38.029,-3.821 47.654,12.496c9.629,16.317 3.908,37.212 -12.767,46.633c19.254,0 34.888,15.3 34.888,34.142c-0,18.842 -15.634,34.137 -34.888,34.137c16.675,9.421 22.396,30.321 12.767,46.638c-9.625,16.317 -30.979,21.917 -47.654,12.496c9.625,16.316 3.904,37.212 -12.771,46.633c-16.675,9.425 -38.029,3.825 -47.659,-12.496c0,18.846 -15.633,34.142 -34.887,34.142c-19.254,-0 -34.888,-15.296 -34.888,-34.142c-9.625,16.321 -30.979,21.921 -47.654,12.496c-16.675,-9.421 -22.4,-30.317 -12.771,-46.633c-16.675,9.421 -38.029,3.821 -47.658,-12.496c-9.625,-16.317 -3.904,-37.217 12.771,-46.638c-19.254,0 -34.888,-15.295 -34.888,-34.137c0,-18.842 15.634,-34.142 34.888,-34.142c-16.675,-9.421 -22.396,-30.316 -12.771,-46.633c9.629,-16.317 30.983,-21.917 47.658,-12.496c-9.629,-16.317 -3.904,-37.217 12.771,-46.637c16.675,-9.421 38.029,-3.821 47.654,12.495Z" style="fill:#7e8f78;"/><path d="M1796.76,1749.57c-0,-28.02 24.391,-50.77 54.433,-50.77c30.042,-0 54.429,22.75 54.429,50.77c15.021,-24.266 48.338,-32.591 74.354,-18.583c26.017,14.008 34.946,45.083 19.925,69.35c26.017,-14.008 59.334,-5.683 74.354,18.583c15.021,24.267 6.096,55.342 -19.925,69.35c30.042,0 54.434,22.75 54.434,50.767c-0,28.021 -24.392,50.771 -54.434,50.771c26.021,14.008 34.946,45.083 19.925,69.35c-15.02,24.267 -48.337,32.592 -74.354,18.583c15.021,24.267 6.092,55.342 -19.925,69.35c-26.016,14.009 -59.333,5.684 -74.354,-18.583c0,28.021 -24.387,50.771 -54.429,50.771c-30.042,-0 -54.433,-22.75 -54.433,-50.771c-15.021,24.267 -48.338,32.592 -74.355,18.583c-26.016,-14.008 -34.945,-45.083 -19.925,-69.35c-26.016,14.009 -59.333,5.684 -74.354,-18.583c-15.021,-24.267 -6.091,-55.342 19.925,-69.35c-30.041,-0 -54.433,-22.75 -54.433,-50.771c-0,-28.017 24.392,-50.767 54.433,-50.767c-26.016,-14.008 -34.946,-45.083 -19.925,-69.35c15.021,-24.266 48.338,-32.591 74.354,-18.583c-15.02,-24.267 -6.091,-55.342 19.925,-69.35c26.017,-14.008 59.334,-5.683 74.355,18.583Z" style="fill:#7e8f78;"/><path d="M1348.24,118.694c0,-23.293 19.575,-42.206 43.688,-42.206c24.112,0 43.687,18.913 43.687,42.206c12.054,-20.176 38.796,-27.095 59.679,-15.449c20.879,11.647 28.046,37.484 15.988,57.659c20.883,-11.651 47.625,-4.727 59.679,15.449c12.054,20.176 4.892,46.008 -15.992,57.659c24.113,-0 43.688,18.913 43.688,42.206c-0,23.297 -19.575,42.21 -43.688,42.21c20.884,11.646 28.046,37.483 15.992,57.659c-12.054,20.171 -38.796,27.095 -59.679,15.448c12.058,20.176 4.891,46.008 -15.988,57.659c-20.883,11.647 -47.625,4.723 -59.679,-15.453c0,23.298 -19.575,42.211 -43.687,42.211c-24.113,-0 -43.688,-18.913 -43.688,-42.211c-12.058,20.176 -38.796,27.1 -59.679,15.453c-20.879,-11.651 -28.046,-37.483 -15.992,-57.659c-20.879,11.647 -47.621,4.723 -59.675,-15.448c-12.058,-20.176 -4.891,-46.013 15.988,-57.659c-24.109,-0 -43.688,-18.913 -43.688,-42.21c0,-23.293 19.579,-42.206 43.688,-42.206c-20.879,-11.651 -28.046,-37.483 -15.988,-57.659c12.054,-20.176 38.796,-27.1 59.675,-15.449c-12.054,-20.175 -4.887,-46.012 15.992,-57.659c20.883,-11.646 47.621,-4.727 59.679,15.449Z" style="fill:#7e8f78;"/></g></g></svg>