<?xml version="1.0" encoding="UTF-8" standalone="no"?><!DOCTYPE svg PUBLIC "-//W3C//DTD SVG 1.1//EN" "http://www.w3.org/Graphics/SVG/1.1/DTD/svg11.dtd"><svg width="100%" height="100%" viewBox="0 0 600 600" version="1.1" xmlns="http://www.w3.org/2000/svg" xmlns:xlink="http://www.w3.org/1999/xlink" xml:space="preserve" xmlns:serif="http://www.serif.com/" style="fill-rule:evenodd;clip-rule:evenodd;stroke-linejoin:round;stroke-miterlimit:1.41421;"><g><path d="M582.458,51.142c0,-21.827 -17.721,-39.548 -39.548,-39.548l-467.924,0c-21.827,0 -39.548,17.721 -39.548,39.548l0,481.404c0,21.827 17.721,39.548 39.548,39.548l467.924,0c21.827,0 39.548,-17.721 39.548,-39.548l0,-481.404Z" style="fill:#5e6a5e;"/><g><path d="M60.859,25.889c0,-7.889 6.336,-14.295 14.141,-14.295c7.804,0 14.14,6.406 14.14,14.295c3.902,-6.832 12.557,-9.177 19.316,-5.232c6.758,3.945 9.077,12.695 5.175,19.528c6.759,-3.945 15.414,-1.6 19.316,5.232c3.902,6.833 1.583,15.583 -5.175,19.528c7.804,0 14.14,6.406 14.14,14.296c0,7.889 -6.336,14.295 -14.14,14.295c6.758,3.945 9.077,12.695 5.175,19.528c-3.902,6.833 -12.557,9.177 -19.316,5.232c3.902,6.833 1.583,15.583 -5.175,19.528c-6.759,3.945 -15.414,1.601 -19.316,-5.232c0,7.89 -6.336,14.295 -14.14,14.295c-7.805,0 -14.141,-6.405 -14.141,-14.295c-3.902,6.833 -12.557,9.177 -19.316,5.232c-6.758,-3.945 -9.077,-12.695 -5.175,-19.528c-6.759,3.945 -15.414,1.601 -19.316,-5.232c-3.902,-6.833 -1.583,-15.583 5.176,-19.528c-7.805,0 -14.141,-6.406 -14.141,-14.295c0,-7.89 6.336,-14.296 14.141,-14.296c-6.759,-3.945 -9.078,-12.695 -5.176,-19.528c3.902,-6.832 12.557,-9.177 19.316,-5.232c-3.902,-6.833 -1.583,-15.583 5.175,-19.528c6.759,-3.945 15.414,-1.6 19.316,5.232Z" style="fill:#425a44;"/><path d="M143.587,258.615c0,-6.644 5.596,-12.038 12.489,-12.038c6.892,0 12.489,5.394 12.489,12.038c3.446,-5.754 11.09,-7.728 17.06,-4.406c5.969,3.322 8.017,10.69 4.571,16.444c5.969,-3.322 13.613,-1.347 17.06,4.407c3.446,5.754 1.398,13.122 -4.571,16.444c6.892,0 12.488,5.394 12.488,12.038c0,6.644 -5.596,12.039 -12.488,12.039c5.969,3.322 8.017,10.69 4.571,16.444c-3.447,5.754 -11.091,7.728 -17.06,4.406c3.446,5.754 1.398,13.123 -4.571,16.445c-5.97,3.322 -13.614,1.348 -17.06,-4.406c0,6.644 -5.597,12.038 -12.489,12.038c-6.893,0 -12.489,-5.394 -12.489,-12.038c-3.446,5.754 -11.091,7.728 -17.06,4.406c-5.969,-3.322 -8.018,-10.691 -4.571,-16.445c-5.97,3.322 -13.614,1.348 -17.06,-4.406c-3.447,-5.754 -1.398,-13.122 4.571,-16.444c-6.893,0 -12.489,-5.395 -12.489,-12.039c0,-6.644 5.596,-12.038 12.489,-12.038c-5.969,-3.322 -8.018,-10.69 -4.571,-16.444c3.446,-5.754 11.09,-7.729 17.06,-4.407c-3.447,-5.754 -1.398,-13.122 4.571,-16.444c5.969,-3.322 13.614,-1.348 17.06,4.406Z" style="fill:#425a44;"/><path d="M400.71,93.912c0,-8.097 7.03,-14.671 15.689,-14.671c8.658,0 15.688,6.574 15.688,14.671c4.329,-7.012 13.932,-9.419 21.431,-5.37c7.498,4.049 10.071,13.029 5.742,20.042c7.499,-4.049 17.102,-1.643 21.431,5.37c4.329,7.013 1.756,15.993 -5.742,20.042c8.658,0 15.688,6.574 15.688,14.671c0,8.098 -7.03,14.672 -15.688,14.672c7.498,4.049 10.071,13.029 5.742,20.042c-4.329,7.012 -13.932,9.419 -21.431,5.37c4.329,7.012 1.756,15.993 -5.742,20.042c-7.499,4.048 -17.102,1.642 -21.431,-5.371c0,8.098 -7.03,14.672 -15.688,14.672c-8.659,0 -15.689,-6.574 -15.689,-14.672c-4.329,7.013 -13.932,9.419 -21.431,5.371c-7.498,-4.049 -10.071,-13.03 -5.742,-20.042c-7.499,4.049 -17.101,1.642 -21.431,-5.37c-4.329,-7.013 -1.756,-15.993 5.743,-20.042c-8.659,0 -15.689,-6.574 -15.689,-14.672c0,-8.097 7.03,-14.671 15.689,-14.671c-7.499,-4.049 -10.072,-13.029 -5.743,-20.042c4.33,-7.013 13.932,-9.419 21.431,-5.37c-4.329,-7.013 -1.756,-15.993 5.742,-20.042c7.499,-4.049 17.102,-1.642 21.431,5.37Z" style="fill:#425a44;"/><path d="M545.886,508.366c0,-4.33 3.978,-7.846 8.877,-7.846c4.899,0 8.876,3.516 8.876,7.846c2.449,-3.75 7.883,-5.037 12.125,-2.872c4.243,2.165 5.699,6.968 3.249,10.718c4.243,-2.165 9.676,-0.878 12.125,2.872c2.45,3.751 0.994,8.553 -3.248,10.719c4.898,0 8.876,3.516 8.876,7.846c0,4.331 -3.978,7.846 -8.876,7.846c4.242,2.166 5.698,6.968 3.248,10.719c-2.449,3.75 -7.882,5.037 -12.125,2.872c2.45,3.75 0.994,8.553 -3.249,10.718c-4.242,2.165 -9.676,0.878 -12.125,-2.872c0,4.331 -3.977,7.846 -8.876,7.846c-4.899,0 -8.877,-3.515 -8.877,-7.846c-2.449,3.75 -7.882,5.037 -12.125,2.872c-4.243,-2.165 -5.699,-6.968 -3.249,-10.718c-4.243,2.165 -9.676,0.878 -12.125,-2.872c-2.45,-3.751 -0.994,-8.553 3.249,-10.719c-4.899,0 -8.877,-3.515 -8.877,-7.846c0,-4.33 3.978,-7.846 8.877,-7.846c-4.243,-2.166 -5.699,-6.968 -3.249,-10.719c2.449,-3.75 7.882,-5.037 12.125,-2.872c-2.45,-3.75 -0.994,-8.553 3.249,-10.718c4.243,-2.165 9.676,-0.878 12.125,2.872Z" style="fill:#425a44;"/><path d="M488.639,303.076c0,-6.199 5.272,-11.232 11.766,-11.232c6.494,0 11.767,5.033 11.767,11.232c3.247,-5.368 10.449,-7.211 16.073,-4.111c5.624,3.099 7.553,9.975 4.306,15.343c5.624,-3.099 12.826,-1.257 16.073,4.111c3.247,5.369 1.318,12.244 -4.306,15.344c6.494,0 11.766,5.033 11.766,11.232c0,6.199 -5.272,11.232 -11.766,11.232c5.624,3.1 7.553,9.975 4.306,15.343c-3.247,5.369 -10.449,7.211 -16.073,4.112c3.247,5.368 1.318,12.243 -4.306,15.343c-5.624,3.099 -12.826,1.257 -16.073,-4.111c0,6.199 -5.273,11.232 -11.767,11.232c-6.494,0 -11.766,-5.033 -11.766,-11.232c-3.247,5.368 -10.449,7.21 -16.073,4.111c-5.624,-3.1 -7.554,-9.975 -4.307,-15.343c-5.624,3.099 -12.826,1.257 -16.073,-4.112c-3.247,-5.368 -1.317,-12.243 4.307,-15.343c-6.494,0 -11.767,-5.033 -11.767,-11.232c0,-6.199 5.273,-11.232 11.767,-11.232c-5.624,-3.1 -7.554,-9.975 -4.307,-15.344c3.247,-5.368 10.449,-7.21 16.073,-4.111c-3.247,-5.368 -1.317,-12.244 4.307,-15.343c5.624,-3.1 12.826,-1.257 16.073,4.111Z" style="fill:#425a44;"/><path d="M101.499,495.08c0,-6.169 5.596,-11.178 12.489,-11.178c6.893,0 12.489,5.009 12.489,11.178c3.446,-5.343 11.091,-7.176 17.06,-4.091c5.969,3.085 8.018,9.927 4.571,15.27c5.97,-3.085 13.614,-1.252 17.06,4.091c3.447,5.343 1.398,12.185 -4.571,15.27c6.893,0 12.489,5.009 12.489,11.179c0,6.169 -5.596,11.178 -12.489,11.178c5.969,3.085 8.018,9.927 4.571,15.27c-3.446,5.343 -11.09,7.176 -17.06,4.091c3.447,5.343 1.398,12.186 -4.571,15.27c-5.969,3.085 -13.614,1.252 -17.06,-4.091c0,6.169 -5.596,11.178 -12.489,11.178c-6.893,0 -12.489,-5.009 -12.489,-11.178c-3.446,5.343 -11.09,7.176 -17.06,4.091c-5.969,-3.084 -8.017,-9.927 -4.571,-15.27c-5.969,3.085 -13.614,1.252 -17.06,-4.091c-3.446,-5.343 -1.398,-12.185 4.571,-15.27c-6.892,0 -12.489,-5.009 -12.489,-11.178c0,-6.17 5.597,-11.179 12.489,-11.179c-5.969,-3.085 -8.017,-9.927 -4.571,-15.27c3.446,-5.343 11.091,-7.176 17.06,-4.091c-3.446,-5.343 -1.398,-12.185 4.571,-15.27c5.97,-3.085 13.614,-1.252 17.06,4.091Z" style="fill:#425a44;"/><path d="M279.352,445.665c0,-4.331 4.07,-7.847 9.083,-7.847c5.013,0 9.083,3.516 9.083,7.847c2.506,-3.751 8.066,-5.038 12.407,-2.872c4.341,2.165 5.831,6.968 3.325,10.718c4.341,-2.165 9.9,-0.878 12.407,2.872c2.506,3.75 1.017,8.553 -3.325,10.718c5.013,0 9.083,3.516 9.083,7.847c0,4.33 -4.07,7.846 -9.083,7.846c4.342,2.165 5.831,6.968 3.325,10.718c-2.507,3.75 -8.066,5.037 -12.407,2.872c2.506,3.75 1.016,8.553 -3.325,10.718c-4.341,2.166 -9.901,0.879 -12.407,-2.872c0,4.331 -4.07,7.847 -9.083,7.847c-5.013,0 -9.083,-3.516 -9.083,-7.847c-2.506,3.751 -8.066,5.038 -12.407,2.872c-4.341,-2.165 -5.831,-6.968 -3.325,-10.718c-4.341,2.165 -9.9,0.878 -12.407,-2.872c-2.506,-3.75 -1.017,-8.553 3.325,-10.718c-5.013,0 -9.083,-3.516 -9.083,-7.846c0,-4.331 4.07,-7.847 9.083,-7.847c-4.342,-2.165 -5.831,-6.968 -3.325,-10.718c2.507,-3.75 8.066,-5.037 12.407,-2.872c-2.506,-3.75 -1.016,-8.553 3.325,-10.718c4.341,-2.166 9.901,-0.879 12.407,2.872Z" style="fill:#425a44;"/></g></g></svg>