<?xml version="1.0" encoding="UTF-8" standalone="no"?><!DOCTYPE svg PUBLIC "-//W3C//DTD SVG 1.1//EN" "http://www.w3.org/Graphics/SVG/1.1/DTD/svg11.dtd"><svg width="100%" height="100%" viewBox="0 0 595 591" version="1.1" xmlns="http://www.w3.org/2000/svg" xmlns:xlink="http://www.w3.org/1999/xlink" xml:space="preserve" xmlns:serif="http://www.serif.com/" style="fill-rule:evenodd;clip-rule:evenodd;stroke-linejoin:round;stroke-miterlimit:1.41421;"><g><path d="M576.458,51.142c0,-21.827 -17.721,-39.548 -39.548,-39.548l-467.924,0c-21.827,0 -39.548,17.721 -39.548,39.548l0,481.404c0,21.827 17.721,39.548 39.548,39.548l467.924,0c21.827,0 39.548,-17.721 39.548,-39.548l0,-481.404Z" style="fill:#7b8d7c;"/><g><path d="M54.859,25.889c0,-7.889 6.336,-14.295 14.141,-14.295c7.804,0 14.14,6.406 14.14,14.295c3.902,-6.832 12.557,-9.177 19.316,-5.232c6.758,3.945 9.077,12.695 5.175,19.528c6.759,-3.945 15.414,-1.6 19.316,5.232c3.902,6.833 1.583,15.583 -5.175,19.528c7.804,0 14.14,6.406 14.14,14.296c0,7.889 -6.336,14.295 -14.14,14.295c6.758,3.945 9.077,12.695 5.175,19.528c-3.902,6.833 -12.557,9.177 -19.316,5.232c3.902,6.833 1.583,15.583 -5.175,19.528c-6.759,3.945 -15.414,1.601 -19.316,-5.232c0,7.89 -6.336,14.295 -14.14,14.295c-7.805,0 -14.141,-6.405 -14.141,-14.295c-3.902,6.833 -12.557,9.177 -19.316,5.232c-6.758,-3.945 -9.077,-12.695 -5.175,-19.528c-6.759,3.945 -15.414,1.601 -19.316,-5.232c-3.902,-6.833 -1.583,-15.583 5.176,-19.528c-7.805,0 -14.141,-6.406 -14.141,-14.295c0,-7.89 6.336,-14.296 14.141,-14.296c-6.759,-3.945 -9.078,-12.695 -5.176,-19.528c3.902,-6.832 12.557,-9.177 19.316,-5.232c-3.902,-6.833 -1.583,-15.583 5.175,-19.528c6.759,-3.945 15.414,-1.6 19.316,5.232Z" style="fill:#647765;"/><path d="M96.581,348.53c0,-6.644 5.596,-12.039 12.489,-12.039c6.893,0 12.489,5.395 12.489,12.039c3.446,-5.754 11.09,-7.729 17.06,-4.407c5.969,3.322 8.017,10.691 4.571,16.445c5.969,-3.322 13.614,-1.348 17.06,4.406c3.446,5.754 1.398,13.123 -4.571,16.445c6.893,0 12.489,5.394 12.489,12.038c0,6.644 -5.596,12.038 -12.489,12.038c5.969,3.322 8.017,10.691 4.571,16.445c-3.446,5.754 -11.091,7.728 -17.06,4.406c3.446,5.754 1.398,13.123 -4.571,16.445c-5.97,3.322 -13.614,1.347 -17.06,-4.407c0,6.644 -5.596,12.038 -12.489,12.038c-6.893,0 -12.489,-5.394 -12.489,-12.038c-3.446,5.754 -11.091,7.729 -17.06,4.407c-5.969,-3.322 -8.018,-10.691 -4.571,-16.445c-5.969,3.322 -13.614,1.348 -17.06,-4.406c-3.447,-5.754 -1.398,-13.123 4.571,-16.445c-6.893,0 -12.489,-5.394 -12.489,-12.038c0,-6.644 5.596,-12.038 12.489,-12.038c-5.969,-3.322 -8.018,-10.691 -4.571,-16.445c3.446,-5.754 11.091,-7.728 17.06,-4.406c-3.447,-5.754 -1.398,-13.123 4.571,-16.445c5.969,-3.322 13.614,-1.347 17.06,4.407Z" style="fill:#647765;"/><path d="M430.769,103.299c0,-8.098 7.03,-14.672 15.688,-14.672c8.659,0 15.689,6.574 15.689,14.672c4.329,-7.013 13.932,-9.419 21.43,-5.371c7.499,4.049 10.072,13.03 5.743,20.042c7.498,-4.049 17.101,-1.642 21.431,5.37c4.329,7.013 1.756,15.993 -5.743,20.042c8.659,0 15.689,6.574 15.689,14.672c0,8.097 -7.03,14.671 -15.689,14.671c7.499,4.049 10.072,13.03 5.743,20.042c-4.33,7.013 -13.933,9.419 -21.431,5.37c4.329,7.013 1.756,15.993 -5.743,20.042c-7.498,4.049 -17.101,1.643 -21.43,-5.37c0,8.097 -7.03,14.671 -15.689,14.671c-8.658,0 -15.688,-6.574 -15.688,-14.671c-4.33,7.013 -13.932,9.419 -21.431,5.37c-7.499,-4.049 -10.072,-13.029 -5.742,-20.042c-7.499,4.049 -17.102,1.643 -21.431,-5.37c-4.329,-7.012 -1.756,-15.993 5.742,-20.042c-8.658,0 -15.688,-6.574 -15.688,-14.671c0,-8.098 7.03,-14.672 15.688,-14.672c-7.498,-4.049 -10.071,-13.029 -5.742,-20.042c4.329,-7.012 13.932,-9.419 21.431,-5.37c-4.33,-7.012 -1.757,-15.993 5.742,-20.042c7.499,-4.048 17.101,-1.642 21.431,5.371Z" style="fill:#647765;"/><path d="M539.886,508.366c0,-4.33 3.978,-7.846 8.877,-7.846c4.899,0 8.876,3.516 8.876,7.846c2.449,-3.75 7.883,-5.037 12.125,-2.872c4.243,2.165 5.699,6.968 3.249,10.718c4.243,-2.165 9.676,-0.878 12.125,2.872c2.45,3.751 0.994,8.553 -3.248,10.719c4.898,0 8.876,3.516 8.876,7.846c0,4.331 -3.978,7.846 -8.876,7.846c4.242,2.166 5.698,6.968 3.248,10.719c-2.449,3.75 -7.882,5.037 -12.125,2.872c2.45,3.75 0.994,8.553 -3.249,10.718c-4.242,2.165 -9.676,0.878 -12.125,-2.872c0,4.331 -3.977,7.846 -8.876,7.846c-4.899,0 -8.877,-3.515 -8.877,-7.846c-2.449,3.75 -7.882,5.037 -12.125,2.872c-4.243,-2.165 -5.699,-6.968 -3.249,-10.718c-4.243,2.165 -9.676,0.878 -12.125,-2.872c-2.45,-3.751 -0.994,-8.553 3.249,-10.719c-4.899,0 -8.877,-3.515 -8.877,-7.846c0,-4.33 3.978,-7.846 8.877,-7.846c-4.243,-2.166 -5.699,-6.968 -3.249,-10.719c2.449,-3.75 7.882,-5.037 12.125,-2.872c-2.45,-3.75 -0.994,-8.553 3.249,-10.718c4.243,-2.165 9.676,-0.878 12.125,2.872Z" style="fill:#647765;"/><path d="M501.415,338.851c0,-6.199 5.273,-11.232 11.767,-11.232c6.494,0 11.766,5.033 11.766,11.232c3.247,-5.368 10.449,-7.21 16.073,-4.111c5.624,3.1 7.554,9.975 4.307,15.343c5.624,-3.099 12.826,-1.257 16.073,4.112c3.247,5.368 1.317,12.243 -4.307,15.343c6.494,0 11.767,5.033 11.767,11.232c0,6.199 -5.273,11.232 -11.767,11.232c5.624,3.1 7.554,9.975 4.307,15.344c-3.247,5.368 -10.449,7.21 -16.073,4.111c3.247,5.368 1.317,12.244 -4.307,15.343c-5.624,3.1 -12.826,1.257 -16.073,-4.111c0,6.199 -5.272,11.232 -11.766,11.232c-6.494,0 -11.767,-5.033 -11.767,-11.232c-3.247,5.368 -10.449,7.211 -16.073,4.111c-5.624,-3.099 -7.553,-9.975 -4.306,-15.343c-5.624,3.099 -12.827,1.257 -16.074,-4.111c-3.247,-5.369 -1.317,-12.244 4.307,-15.344c-6.494,0 -11.766,-5.033 -11.766,-11.232c0,-6.199 5.272,-11.232 11.766,-11.232c-5.624,-3.1 -7.554,-9.975 -4.307,-15.343c3.247,-5.369 10.45,-7.211 16.074,-4.112c-3.247,-5.368 -1.318,-12.243 4.306,-15.343c5.624,-3.099 12.826,-1.257 16.073,4.111Z" style="fill:#647765;"/><path d="M95.499,495.08c0,-6.169 5.596,-11.178 12.489,-11.178c6.893,0 12.489,5.009 12.489,11.178c3.446,-5.343 11.091,-7.176 17.06,-4.091c5.969,3.085 8.018,9.927 4.571,15.27c5.97,-3.085 13.614,-1.252 17.06,4.091c3.447,5.343 1.398,12.185 -4.571,15.27c6.893,0 12.489,5.009 12.489,11.179c0,6.169 -5.596,11.178 -12.489,11.178c5.969,3.085 8.018,9.927 4.571,15.27c-3.446,5.343 -11.09,7.176 -17.06,4.091c3.447,5.343 1.398,12.186 -4.571,15.27c-5.969,3.085 -13.614,1.252 -17.06,-4.091c0,6.169 -5.596,11.178 -12.489,11.178c-6.893,0 -12.489,-5.009 -12.489,-11.178c-3.446,5.343 -11.09,7.176 -17.06,4.091c-5.969,-3.084 -8.017,-9.927 -4.571,-15.27c-5.969,3.085 -13.614,1.252 -17.06,-4.091c-3.446,-5.343 -1.398,-12.185 4.571,-15.27c-6.892,0 -12.489,-5.009 -12.489,-11.178c0,-6.17 5.597,-11.179 12.489,-11.179c-5.969,-3.085 -8.017,-9.927 -4.571,-15.27c3.446,-5.343 11.091,-7.176 17.06,-4.091c-3.446,-5.343 -1.398,-12.185 4.571,-15.27c5.97,-3.085 13.614,-1.252 17.06,4.091Z" style="fill:#647765;"/><path d="M201.818,469.439c0,-4.33 4.07,-7.846 9.083,-7.846c5.013,0 9.083,3.516 9.083,7.846c2.506,-3.75 8.066,-5.037 12.407,-2.872c4.341,2.165 5.831,6.968 3.325,10.718c4.341,-2.165 9.9,-0.878 12.407,2.872c2.506,3.751 1.017,8.553 -3.325,10.719c5.013,0 9.083,3.516 9.083,7.846c0,4.331 -4.07,7.846 -9.083,7.846c4.342,2.166 5.831,6.968 3.325,10.719c-2.507,3.75 -8.066,5.037 -12.407,2.872c2.506,3.75 1.016,8.553 -3.325,10.718c-4.341,2.165 -9.901,0.878 -12.407,-2.872c0,4.331 -4.07,7.846 -9.083,7.846c-5.013,0 -9.083,-3.515 -9.083,-7.846c-2.506,3.75 -8.066,5.037 -12.407,2.872c-4.341,-2.165 -5.831,-6.968 -3.325,-10.718c-4.341,2.165 -9.9,0.878 -12.407,-2.872c-2.506,-3.751 -1.017,-8.553 3.325,-10.719c-5.013,0 -9.083,-3.515 -9.083,-7.846c0,-4.33 4.07,-7.846 9.083,-7.846c-4.342,-2.166 -5.831,-6.968 -3.325,-10.719c2.507,-3.75 8.066,-5.037 12.407,-2.872c-2.506,-3.75 -1.016,-8.553 3.325,-10.718c4.341,-2.165 9.901,-0.878 12.407,2.872Z" style="fill:#647765;"/><path d="M135.804,142.042c0,-5.087 4.087,-9.217 9.121,-9.217c5.034,0 9.121,4.13 9.121,9.217c2.517,-4.406 8.1,-5.917 12.459,-3.374c4.359,2.544 5.855,8.185 3.338,12.591c4.36,-2.544 9.943,-1.032 12.459,3.374c2.517,4.405 1.022,10.047 -3.338,12.59c5.034,0 9.121,4.131 9.121,9.218c0,5.087 -4.087,9.217 -9.121,9.217c4.36,2.543 5.855,8.185 3.338,12.59c-2.516,4.406 -8.099,5.918 -12.459,3.374c2.517,4.406 1.021,10.047 -3.338,12.591c-4.359,2.543 -9.942,1.032 -12.459,-3.374c0,5.087 -4.087,9.217 -9.121,9.217c-5.034,0 -9.121,-4.13 -9.121,-9.217c-2.516,4.406 -8.099,5.917 -12.459,3.374c-4.359,-2.544 -5.855,-8.185 -3.338,-12.591c-4.36,2.544 -9.942,1.032 -12.459,-3.374c-2.517,-4.405 -1.021,-10.047 3.338,-12.59c-5.034,0 -9.12,-4.13 -9.12,-9.217c0,-5.087 4.086,-9.218 9.12,-9.218c-4.359,-2.543 -5.855,-8.185 -3.338,-12.59c2.517,-4.406 8.099,-5.918 12.459,-3.374c-2.517,-4.406 -1.021,-10.047 3.338,-12.591c4.36,-2.543 9.943,-1.032 12.459,3.374Z" style="fill:#647765;"/><path d="M531.329,44.72c0,-4.522 3.752,-8.193 8.373,-8.193c4.621,0 8.373,3.671 8.373,8.193c2.311,-3.916 7.436,-5.26 11.438,-2.999c4.002,2.261 5.375,7.277 3.065,11.193c4.002,-2.261 9.127,-0.917 11.437,2.999c2.311,3.916 0.938,8.931 -3.064,11.192c4.621,0 8.373,3.672 8.373,8.194c0,4.522 -3.752,8.193 -8.373,8.193c4.002,2.261 5.375,7.277 3.064,11.193c-2.31,3.916 -7.435,5.26 -11.437,2.999c2.31,3.916 0.937,8.931 -3.065,11.192c-4.002,2.262 -9.127,0.918 -11.438,-2.999c0,4.523 -3.752,8.194 -8.373,8.194c-4.621,0 -8.373,-3.671 -8.373,-8.194c-2.31,3.917 -7.435,5.261 -11.437,2.999c-4.002,-2.261 -5.376,-7.276 -3.065,-11.192c-4.002,2.261 -9.127,0.917 -11.438,-2.999c-2.31,-3.916 -0.937,-8.932 3.065,-11.193c-4.621,0 -8.373,-3.671 -8.373,-8.193c0,-4.522 3.752,-8.194 8.373,-8.194c-4.002,-2.261 -5.375,-7.276 -3.065,-11.192c2.311,-3.916 7.436,-5.26 11.438,-2.999c-2.311,-3.916 -0.937,-8.932 3.065,-11.193c4.002,-2.261 9.127,-0.917 11.437,2.999Z" style="fill:#647765;"/><path d="M447.397,436.958c0,-6.725 5.854,-12.185 13.064,-12.185c7.21,0 13.063,5.46 13.063,12.185c3.605,-5.824 11.601,-7.822 17.845,-4.46c6.244,3.362 8.387,10.82 4.782,16.644c6.244,-3.362 14.24,-1.364 17.845,4.46c3.605,5.824 1.463,13.282 -4.782,16.644c7.21,0 13.064,5.46 13.064,12.184c0,6.725 -5.854,12.185 -13.064,12.185c6.245,3.362 8.387,10.82 4.782,16.644c-3.605,5.824 -11.601,7.822 -17.845,4.46c3.605,5.824 1.462,13.282 -4.782,16.644c-6.244,3.362 -14.24,1.364 -17.845,-4.46c0,6.725 -5.853,12.185 -13.063,12.185c-7.21,0 -13.064,-5.46 -13.064,-12.185c-3.605,5.824 -11.601,7.822 -17.845,4.46c-6.244,-3.362 -8.387,-10.82 -4.782,-16.644c-6.244,3.362 -14.24,1.364 -17.845,-4.46c-3.605,-5.824 -1.462,-13.282 4.782,-16.644c-7.21,0 -13.064,-5.46 -13.064,-12.185c0,-6.724 5.854,-12.184 13.064,-12.184c-6.244,-3.362 -8.387,-10.82 -4.782,-16.644c3.605,-5.824 11.601,-7.822 17.845,-4.46c-3.605,-5.824 -1.462,-13.282 4.782,-16.644c6.244,-3.362 14.24,-1.364 17.845,4.46Z" style="fill:#647765;"/><path d="M324.201,38.849c0,-5.238 4.698,-9.491 10.485,-9.491c5.787,0 10.485,4.253 10.485,9.491c2.893,-4.537 9.311,-6.093 14.323,-3.474c5.011,2.619 6.731,8.429 3.837,12.966c5.012,-2.62 11.43,-1.063 14.323,3.474c2.893,4.537 1.174,10.346 -3.838,12.966c5.787,0 10.485,4.253 10.485,9.491c0,5.239 -4.698,9.492 -10.485,9.492c5.012,2.619 6.731,8.429 3.838,12.966c-2.893,4.536 -9.311,6.093 -14.323,3.474c2.894,4.537 1.174,10.346 -3.837,12.966c-5.012,2.619 -11.43,1.062 -14.323,-3.475c0,5.239 -4.698,9.492 -10.485,9.492c-5.787,0 -10.485,-4.253 -10.485,-9.492c-2.894,4.537 -9.311,6.094 -14.323,3.475c-5.011,-2.62 -6.731,-8.429 -3.838,-12.966c-5.011,2.619 -11.429,1.062 -14.322,-3.474c-2.894,-4.537 -1.174,-10.347 3.837,-12.966c-5.786,0 -10.485,-4.253 -10.485,-9.492c0,-5.238 4.699,-9.491 10.485,-9.491c-5.011,-2.62 -6.731,-8.429 -3.837,-12.966c2.893,-4.537 9.311,-6.094 14.322,-3.474c-2.893,-4.537 -1.173,-10.347 3.838,-12.966c5.012,-2.619 11.429,-1.063 14.323,3.474Z" style="fill:#647765;"/></g></g></svg>