<?xml version="1.0" encoding="UTF-8" standalone="no"?><!DOCTYPE svg PUBLIC "-//W3C//DTD SVG 1.1//EN" "http://www.w3.org/Graphics/SVG/1.1/DTD/svg11.dtd"><svg width="100%" height="100%" viewBox="0 0 591 566" version="1.1" xmlns="http://www.w3.org/2000/svg" xmlns:xlink="http://www.w3.org/1999/xlink" xml:space="preserve" xmlns:serif="http://www.serif.com/" style="fill-rule:evenodd;clip-rule:evenodd;stroke-linejoin:round;stroke-miterlimit:2;"><g><path d="M574.371,39.548c0,-21.827 -17.721,-39.548 -39.548,-39.548l-467.924,0c-21.827,0 -39.548,17.721 -39.548,39.548l0,481.404c0,21.827 17.721,39.548 39.548,39.548l467.924,0c21.827,0 39.548,-17.721 39.548,-39.548l0,-481.404Z" style="fill:#626e61;"/><path d="M547.913,69.967c0,-19.626 -15.841,-35.561 -35.353,-35.561l-418.294,0c-19.512,0 -35.353,15.935 -35.353,35.561l0,432.878c0,19.626 15.841,35.561 35.353,35.561l418.294,0c19.512,0 35.353,-15.935 35.353,-35.561l0,-432.878Z" style="fill:#636f5f;"/><path d="M489.913,96.61c0,-17.095 -12.761,-30.975 -28.479,-30.975l-336.955,0c-15.718,0 -28.479,13.88 -28.479,30.975l0,377.05c0,17.096 12.761,30.975 28.479,30.975l336.955,0c15.718,0 28.479,-13.879 28.479,-30.975l0,-377.05Z" style="fill:#646f60;"/><g><path d="M45.438,457.628c-6.474,3.021 -14.411,-0.267 -17.711,-7.34c-3.3,-7.072 -0.722,-15.267 5.753,-18.288c-7.257,-0.92 -12.841,-7.865 -12.462,-15.501c0.38,-7.634 6.58,-13.087 13.838,-12.167c-6.096,-4.614 -7.831,-13.356 -3.874,-19.508c3.958,-6.152 12.119,-7.401 18.214,-2.788c-3.3,-7.072 -0.722,-15.267 5.753,-18.288c6.474,-3.021 14.411,0.268 17.711,7.34c0.38,-7.635 6.58,-13.087 13.837,-12.168c7.258,0.92 12.841,7.866 12.461,15.501c3.958,-6.152 12.119,-7.401 18.215,-2.788c6.095,4.615 7.831,13.355 3.873,19.508c6.475,-3.021 14.411,0.268 17.711,7.34c3.3,7.073 0.723,15.267 -5.752,18.288c7.257,0.92 12.841,7.865 12.461,15.501c-0.38,7.635 -6.58,13.087 -13.838,12.167c6.096,4.615 7.832,13.355 3.874,19.508c-3.957,6.153 -12.119,7.402 -18.214,2.787c3.3,7.073 0.722,15.268 -5.752,18.289c-6.475,3.021 -14.411,-0.268 -17.712,-7.341c-0.379,7.636 -6.579,13.088 -13.837,12.169c-7.257,-0.92 -12.841,-7.865 -12.461,-15.501c-3.958,6.153 -12.119,7.402 -18.214,2.788c-6.096,-4.614 -7.831,-13.355 -3.874,-19.508Z" style="fill:#556051;"/><path d="M407.802,435.437c-6.021,2.809 -13.276,0.019 -16.191,-6.227c-2.915,-6.247 -0.392,-13.599 5.629,-16.408c-6.672,-0.69 -11.694,-6.782 -11.207,-13.597c0.486,-6.813 6.298,-11.785 12.969,-11.095c-5.534,-4.005 -6.978,-11.768 -3.221,-17.323c3.758,-5.556 11.301,-6.816 16.836,-2.812c-2.915,-6.246 -0.393,-13.598 5.628,-16.407c6.02,-2.81 13.275,-0.019 16.189,6.227c0.487,-6.814 6.299,-11.786 12.97,-11.096c6.672,0.69 11.693,6.783 11.207,13.597c3.757,-5.556 11.301,-6.816 16.835,-2.811c5.535,4.005 6.977,11.767 3.22,17.323c6.021,-2.809 13.275,-0.019 16.19,6.227c2.914,6.247 0.392,13.599 -5.628,16.408c6.671,0.69 11.693,6.783 11.207,13.596c-0.487,6.814 -6.298,11.787 -12.97,11.096c5.535,4.005 6.978,11.767 3.221,17.323c-3.757,5.557 -11.301,6.816 -16.835,2.812c2.914,6.246 0.393,13.598 -5.628,16.407c-6.021,2.81 -13.275,0.019 -16.19,-6.227c-0.486,6.814 -6.298,11.786 -12.97,11.096c-6.671,-0.69 -11.693,-6.783 -11.206,-13.597c-3.757,5.557 -11.301,6.816 -16.835,2.811c-5.535,-4.004 -6.978,-11.767 -3.22,-17.323Z" style="fill:#556051;"/><path d="M401.802,103.437c-6.021,2.809 -13.276,0.019 -16.191,-6.227c-2.915,-6.247 -0.392,-13.599 5.629,-16.408c-6.672,-0.69 -11.694,-6.782 -11.207,-13.597c0.486,-6.813 6.298,-11.785 12.969,-11.095c-5.534,-4.005 -6.978,-11.768 -3.221,-17.323c3.758,-5.556 11.301,-6.816 16.836,-2.812c-2.915,-6.246 -0.393,-13.598 5.628,-16.407c6.02,-2.81 13.275,-0.019 16.189,6.227c0.487,-6.814 6.299,-11.786 12.97,-11.096c6.672,0.69 11.693,6.783 11.207,13.597c3.757,-5.556 11.301,-6.816 16.835,-2.811c5.535,4.005 6.977,11.767 3.22,17.323c6.021,-2.809 13.275,-0.019 16.19,6.227c2.914,6.247 0.392,13.599 -5.628,16.408c6.671,0.69 11.693,6.783 11.207,13.596c-0.487,6.814 -6.298,11.787 -12.97,11.096c5.535,4.005 6.978,11.767 3.221,17.323c-3.757,5.557 -11.301,6.816 -16.835,2.812c2.914,6.246 0.393,13.598 -5.628,16.407c-6.021,2.81 -13.275,0.019 -16.19,-6.227c-0.486,6.814 -6.298,11.786 -12.97,11.096c-6.671,-0.69 -11.693,-6.783 -11.206,-13.597c-3.757,5.557 -11.301,6.816 -16.835,2.811c-5.535,-4.004 -6.978,-11.767 -3.22,-17.323Z" style="fill:#556051;"/><path d="M488.802,231.437c-6.021,2.809 -13.276,0.019 -16.191,-6.227c-2.915,-6.247 -0.392,-13.599 5.629,-16.408c-6.672,-0.69 -11.694,-6.782 -11.207,-13.597c0.486,-6.813 6.298,-11.785 12.969,-11.095c-5.534,-4.005 -6.978,-11.768 -3.221,-17.323c3.758,-5.556 11.301,-6.816 16.836,-2.812c-2.915,-6.246 -0.393,-13.598 5.628,-16.407c6.02,-2.81 13.275,-0.019 16.189,6.227c0.487,-6.814 6.299,-11.786 12.97,-11.096c6.672,0.69 11.693,6.783 11.207,13.597c3.757,-5.556 11.301,-6.816 16.835,-2.811c5.535,4.005 6.977,11.767 3.22,17.323c6.021,-2.809 13.275,-0.019 16.19,6.227c2.914,6.247 0.392,13.599 -5.628,16.408c6.671,0.69 11.693,6.783 11.207,13.596c-0.487,6.814 -6.298,11.787 -12.97,11.096c5.535,4.005 6.978,11.767 3.221,17.323c-3.757,5.557 -11.301,6.816 -16.835,2.812c2.914,6.246 0.393,13.598 -5.628,16.407c-6.021,2.81 -13.275,0.019 -16.19,-6.227c-0.486,6.814 -6.298,11.786 -12.97,11.096c-6.671,-0.69 -11.693,-6.783 -11.206,-13.597c-3.757,5.557 -11.301,6.816 -16.835,2.811c-5.535,-4.004 -6.978,-11.767 -3.22,-17.323Z" style="fill:#556051;"/><path d="M406.224,521.044c-7.338,3.424 -16.268,-0.167 -19.929,-8.013c-3.662,-7.847 -0.677,-16.997 6.662,-20.421c-8.186,-0.958 -14.427,-8.643 -13.929,-17.149c0.498,-8.508 7.549,-14.637 15.734,-13.679c-6.84,-5.083 -8.719,-14.803 -4.196,-21.692c4.525,-6.888 13.75,-8.353 20.591,-3.27c-3.662,-7.847 -0.677,-16.997 6.661,-20.421c7.338,-3.424 16.268,0.167 19.929,8.014c0.499,-8.508 7.549,-14.637 15.734,-13.679c8.186,0.958 14.427,8.643 13.928,17.15c4.525,-6.888 13.751,-8.354 20.591,-3.27c6.839,5.082 8.72,14.802 4.195,21.69c7.337,-3.423 16.267,0.168 19.929,8.014c3.661,7.846 0.676,16.997 -6.662,20.42c8.187,0.959 14.427,8.643 13.929,17.151c-0.499,8.507 -7.548,14.636 -15.735,13.678c6.841,5.083 8.721,14.803 4.196,21.691c-4.524,6.888 -13.75,8.354 -20.59,3.271c3.661,7.846 0.676,16.997 -6.661,20.42c-7.339,3.424 -16.269,-0.166 -19.93,-8.012c-0.499,8.506 -7.548,14.635 -15.734,13.678c-8.185,-0.958 -14.427,-8.643 -13.928,-17.151c-4.524,6.889 -13.75,8.355 -20.59,3.272c-6.84,-5.084 -8.719,-14.803 -4.195,-21.692Z" style="fill:#556051;"/><path d="M400.269,199.083c-4.317,2.014 -9.505,0.045 -11.577,-4.394c-2.071,-4.44 -0.247,-9.679 4.07,-11.694c-4.774,-0.475 -8.355,-4.8 -7.99,-9.652c0.364,-4.852 4.538,-8.406 9.313,-7.931c-3.953,-2.837 -4.967,-8.359 -2.263,-12.324c2.704,-3.965 8.108,-4.88 12.062,-2.043c-2.071,-4.439 -0.247,-9.68 4.07,-11.694c4.319,-2.015 9.506,-0.046 11.577,4.393c0.366,-4.852 4.538,-8.406 9.315,-7.931c4.774,0.475 8.355,4.799 7.99,9.651c2.704,-3.964 8.109,-4.88 12.061,-2.042c3.953,2.837 4.967,8.36 2.264,12.324c4.318,-2.015 9.505,-0.047 11.576,4.393c2.072,4.439 0.249,9.68 -4.07,11.695c4.775,0.474 8.356,4.799 7.991,9.651c-0.365,4.853 -4.538,8.407 -9.313,7.931c3.952,2.838 4.966,8.36 2.263,12.324c-2.705,3.966 -8.108,4.88 -12.062,2.043c2.071,4.44 0.248,9.68 -4.07,11.695c-4.318,2.015 -9.506,0.046 -11.577,-4.394c-0.366,4.853 -4.539,8.407 -9.315,7.932c-4.775,-0.475 -8.355,-4.799 -7.991,-9.652c-2.703,3.965 -8.108,4.88 -12.061,2.043c-3.953,-2.838 -4.967,-8.36 -2.263,-12.324Z" style="fill:#556051;"/><path d="M111.852,131.022c-5.618,2.621 -12.409,-0.029 -15.154,-5.914c-2.746,-5.885 -0.415,-12.791 5.203,-15.412c-6.238,-0.673 -10.952,-6.42 -10.522,-12.827c0.431,-6.407 5.845,-11.063 12.083,-10.391c-5.187,-3.786 -6.563,-11.091 -3.07,-16.304c3.491,-5.212 10.538,-6.37 15.725,-2.584c-2.746,-5.885 -0.415,-12.792 5.203,-15.413c5.617,-2.621 12.408,0.029 15.154,5.914c0.431,-6.407 5.845,-11.063 12.084,-10.391c6.237,0.672 10.951,6.42 10.521,12.827c3.492,-5.212 10.539,-6.371 15.725,-2.585c5.188,3.786 6.563,11.092 3.071,16.304c5.618,-2.621 12.408,0.028 15.154,5.913c2.746,5.885 0.414,12.791 -5.203,15.413c6.237,0.672 10.953,6.419 10.522,12.827c-0.431,6.407 -5.846,11.062 -12.084,10.39c5.187,3.786 6.563,11.092 3.072,16.304c-3.493,5.213 -10.539,6.371 -15.726,2.585c2.746,5.885 0.414,12.791 -5.204,15.412c-5.617,2.621 -12.407,-0.028 -15.153,-5.913c-0.431,6.407 -5.845,11.063 -12.083,10.391c-6.238,-0.673 -10.953,-6.421 -10.523,-12.828c-3.491,5.212 -10.537,6.371 -15.725,2.585c-5.186,-3.786 -6.562,-11.091 -3.07,-16.303Z" style="fill:#556051;"/><path d="M501.625,366.203c-5.777,2.696 -12.834,-0.187 -15.748,-6.433c-2.915,-6.246 -0.59,-13.506 5.187,-16.202c-6.461,-0.788 -11.41,-6.915 -11.045,-13.672c0.365,-6.757 5.906,-11.604 12.367,-10.815c-5.413,-4.062 -6.929,-11.79 -3.382,-17.247c3.546,-5.459 10.819,-6.592 16.232,-2.531c-2.914,-6.246 -0.59,-13.506 5.188,-16.202c5.778,-2.696 12.835,0.187 15.749,6.433c0.365,-6.757 5.906,-11.604 12.368,-10.815c6.46,0.788 11.409,6.915 11.044,13.673c3.546,-5.459 10.821,-6.592 16.233,-2.531c5.413,4.061 6.929,11.79 3.383,17.248c5.777,-2.696 12.834,0.187 15.748,6.433c2.915,6.246 0.59,13.506 -5.187,16.202c6.461,0.788 11.41,6.914 11.045,13.672c-0.364,6.757 -5.906,11.603 -12.367,10.815c5.413,4.061 6.929,11.79 3.382,17.247c-3.546,5.458 -10.819,6.592 -16.232,2.531c2.914,6.245 0.59,13.506 -5.187,16.202c-5.779,2.696 -12.836,-0.188 -15.75,-6.433c-0.365,6.757 -5.907,11.603 -12.367,10.815c-6.461,-0.788 -11.41,-6.915 -11.045,-13.673c-3.547,5.458 -10.82,6.592 -16.233,2.531c-5.413,-4.062 -6.929,-11.79 -3.383,-17.248Z" style="fill:#556051;"/><path d="M462.885,285.428c-4.419,2.062 -9.729,0.048 -11.849,-4.495c-2.119,-4.543 -0.252,-9.905 4.168,-11.968c-4.887,-0.485 -8.552,-4.91 -8.178,-9.875c0.374,-4.965 4.647,-8.603 9.534,-8.118c-4.046,-2.902 -5.083,-8.553 -2.315,-12.611c2.769,-4.057 8.299,-4.995 12.346,-2.091c-2.12,-4.543 -0.252,-9.906 4.167,-11.968c4.421,-2.063 9.729,-0.048 11.849,4.494c0.375,-4.966 4.646,-8.602 9.535,-8.117c4.887,0.485 8.551,4.91 8.177,9.875c2.768,-4.057 8.3,-4.994 12.345,-2.091c4.046,2.903 5.083,8.554 2.315,12.611c4.421,-2.063 9.729,-0.048 11.849,4.494c2.12,4.543 0.253,9.905 -4.167,11.968c4.887,0.485 8.551,4.911 8.177,9.875c-0.374,4.965 -4.646,8.603 -9.533,8.118c4.045,2.903 5.082,8.553 2.314,12.611c-2.768,4.057 -8.299,4.995 -12.346,2.092c2.12,4.543 0.253,9.905 -4.167,11.967c-4.42,2.062 -9.729,0.049 -11.849,-4.494c-0.375,4.966 -4.646,8.602 -9.534,8.118c-4.888,-0.486 -8.552,-4.911 -8.178,-9.876c-2.768,4.057 -8.3,4.994 -12.345,2.092c-4.045,-2.903 -5.083,-8.555 -2.315,-12.611Z" style="fill:#556051;"/><path d="M171.078,467.57c-4.61,2.151 -10.081,0.194 -12.209,-4.368c-2.129,-4.562 -0.115,-10.012 4.495,-12.163c-5.057,-0.418 -8.787,-4.838 -8.325,-9.864c0.462,-5.026 4.941,-8.766 9.998,-8.349c-4.149,-2.875 -5.139,-8.574 -2.21,-12.717c2.927,-4.143 8.672,-5.174 12.82,-2.298c-2.129,-4.562 -0.113,-10.013 4.497,-12.164c4.61,-2.151 10.08,-0.193 12.209,4.369c0.461,-5.027 4.941,-8.767 9.998,-8.349c5.056,0.417 8.787,4.837 8.325,9.864c2.929,-4.144 8.673,-5.174 12.822,-2.299c4.147,2.875 5.139,8.573 2.21,12.717c4.61,-2.151 10.081,-0.194 12.21,4.368c2.128,4.562 0.114,10.012 -4.496,12.163c5.056,0.417 8.786,4.837 8.326,9.864c-0.463,5.025 -4.942,8.766 -9.999,8.348c4.149,2.876 5.139,8.574 2.211,12.718c-2.928,4.143 -8.673,5.173 -12.821,2.298c2.129,4.562 0.114,10.011 -4.496,12.162c-4.61,2.151 -10.081,0.195 -12.21,-4.367c-0.461,5.026 -4.941,8.767 -9.997,8.349c-5.057,-0.418 -8.788,-4.837 -8.326,-9.864c-2.929,4.144 -8.673,5.173 -12.822,2.299c-4.148,-2.876 -5.139,-8.574 -2.21,-12.717Z" style="fill:#556051;"/><path d="M205.919,256.05c-4.098,1.912 -9.011,0.065 -10.965,-4.123c-1.954,-4.188 -0.214,-9.14 3.884,-11.052c-4.526,-0.438 -7.911,-4.514 -7.554,-9.097c0.357,-4.583 4.322,-7.948 8.847,-7.51c-3.741,-2.671 -4.69,-7.884 -2.118,-11.633c2.571,-3.75 7.697,-4.626 11.438,-1.956c-1.954,-4.187 -0.213,-9.14 3.885,-11.052c4.098,-1.912 9.011,-0.064 10.965,4.123c0.356,-4.582 4.321,-7.948 8.847,-7.509c4.526,0.437 7.911,4.513 7.554,9.096c2.572,-3.749 7.697,-4.625 11.438,-1.955c3.742,2.67 4.691,7.883 2.119,11.633c4.099,-1.912 9.012,-0.064 10.966,4.123c1.954,4.188 0.214,9.14 -3.885,11.053c4.526,0.437 7.911,4.513 7.554,9.096c-0.357,4.582 -4.321,7.948 -8.847,7.51c3.741,2.67 4.691,7.883 2.119,11.633c-2.572,3.749 -7.698,4.626 -11.439,1.955c1.954,4.188 0.214,9.14 -3.884,11.052c-4.098,1.912 -9.012,0.065 -10.966,-4.123c-0.357,4.583 -4.321,7.948 -8.846,7.51c-4.526,-0.438 -7.911,-4.514 -7.554,-9.097c-2.572,3.75 -7.698,4.626 -11.44,1.956c-3.741,-2.671 -4.69,-7.884 -2.118,-11.633Z" style="fill:#556051;"/><path d="M323.595,147.301c-6.094,2.844 -13.518,-0.153 -16.566,-6.686c-3.049,-6.534 -0.576,-14.147 5.518,-16.99c-6.802,-0.805 -11.994,-7.206 -11.587,-14.286c0.406,-7.08 6.259,-12.175 13.061,-11.371c-5.687,-4.237 -7.258,-12.328 -3.504,-18.057c3.753,-5.73 11.417,-6.942 17.105,-2.704c-3.049,-6.534 -0.576,-14.148 5.517,-16.991c6.094,-2.844 13.517,0.153 16.566,6.686c0.406,-7.08 6.259,-12.175 13.061,-11.371c6.802,0.804 11.994,7.206 11.587,14.286c3.754,-5.73 11.418,-6.942 17.105,-2.705c5.687,4.237 7.257,12.328 3.504,18.057c6.094,-2.843 13.517,0.152 16.566,6.686c3.048,6.533 0.576,14.147 -5.519,16.991c6.803,0.804 11.994,7.205 11.588,14.285c-0.407,7.08 -6.259,12.176 -13.061,11.371c5.687,4.237 7.257,12.328 3.504,18.057c-3.754,5.73 -11.418,6.941 -17.105,2.705c3.049,6.533 0.576,14.147 -5.518,16.991c-6.093,2.843 -13.517,-0.153 -16.565,-6.687c-0.407,7.08 -6.259,12.175 -13.061,11.371c-6.802,-0.804 -11.994,-7.205 -11.587,-14.285c-3.754,5.729 -11.418,6.941 -17.105,2.704c-5.687,-4.237 -7.258,-12.328 -3.504,-18.057Z" style="fill:#556051;"/><path d="M76.616,355.312c-5.478,2.557 -12.101,-0.028 -14.779,-5.768c-2.679,-5.74 -0.405,-12.476 5.073,-15.032c-6.084,-0.655 -10.681,-6.262 -10.262,-12.511c0.42,-6.249 5.7,-10.79 11.785,-10.134c-5.06,-3.693 -6.402,-10.818 -2.996,-15.902c3.406,-5.084 10.277,-6.213 15.337,-2.521c-2.678,-5.74 -0.405,-12.475 5.074,-15.031c5.479,-2.557 12.101,0.027 14.78,5.768c0.419,-6.25 5.7,-10.79 11.784,-10.135c6.083,0.656 10.682,6.262 10.263,12.512c3.405,-5.085 10.277,-6.214 15.336,-2.522c5.059,3.693 6.401,10.819 2.995,15.903c5.479,-2.557 12.101,0.028 14.78,5.768c2.678,5.74 0.404,12.475 -5.075,15.032c6.085,0.656 10.683,6.262 10.264,12.511c-0.421,6.249 -5.701,10.79 -11.785,10.135c5.059,3.692 6.401,10.818 2.996,15.901c-3.406,5.084 -10.279,6.214 -15.337,2.521c2.678,5.739 0.405,12.476 -5.075,15.033c-5.478,2.556 -12.101,-0.03 -14.779,-5.769c-0.421,6.249 -5.7,10.79 -11.785,10.134c-6.084,-0.656 -10.682,-6.262 -10.261,-12.511c-3.407,5.084 -10.279,6.213 -15.337,2.521c-5.059,-3.694 -6.402,-10.818 -2.996,-15.903Z" style="fill:#556051;"/></g><g><path d="M537.787,89.282c5.511,-4.546 14.018,-3.35 18.985,2.671c4.965,6.02 4.522,14.6 -0.99,19.146c7.256,-0.927 14.402,4.398 15.946,11.886c1.544,7.487 -3.093,14.318 -10.349,15.245c7.057,2.941 10.925,10.969 8.635,17.916c-2.29,6.947 -9.879,10.201 -16.935,7.26c4.966,6.021 4.522,14.6 -0.99,19.146c-5.512,4.546 -14.019,3.35 -18.984,-2.67c1.544,7.486 -3.093,14.317 -10.35,15.245c-7.256,0.927 -14.401,-4.399 -15.946,-11.887c-2.291,6.948 -9.879,10.201 -16.935,7.261c-7.057,-2.941 -10.927,-10.968 -8.636,-17.916c-5.512,4.546 -14.018,3.349 -18.984,-2.671c-4.966,-6.021 -4.523,-14.6 0.989,-19.146c-7.257,0.927 -14.402,-4.399 -15.946,-11.886c-1.544,-7.487 3.093,-14.318 10.349,-15.245c-7.056,-2.941 -10.926,-10.969 -8.635,-17.916c2.29,-6.948 9.879,-10.201 16.936,-7.26c-4.967,-6.021 -4.523,-14.6 0.988,-19.146c5.513,-4.547 14.02,-3.35 18.986,2.671c-1.545,-7.488 3.092,-14.319 10.349,-15.246c7.256,-0.927 14.401,4.399 15.946,11.886c2.291,-6.947 9.879,-10.201 16.935,-7.26c7.057,2.941 10.926,10.969 8.636,17.916Z" style="fill:#5b6757;"/><path d="M208.78,197.156c5.126,-4.228 12.849,-3.344 17.235,1.974c4.386,5.317 3.784,13.067 -1.341,17.295c6.632,-1.003 13.019,3.637 14.255,10.356c1.235,6.719 -3.146,12.988 -9.778,13.991c6.361,2.491 9.703,9.644 7.457,15.964c-2.246,6.32 -9.234,9.429 -15.595,6.938c4.386,5.317 3.786,13.066 -1.34,17.294c-5.125,4.228 -12.847,3.343 -17.233,-1.975c1.235,6.719 -3.146,12.988 -9.778,13.991c-6.632,1.003 -13.019,-3.639 -14.254,-10.358c-2.247,6.32 -9.234,9.429 -15.595,6.938c-6.362,-2.491 -9.702,-9.645 -7.456,-15.965c-5.125,4.228 -12.847,3.343 -17.233,-1.974c-4.386,-5.318 -3.786,-13.067 1.34,-17.295c-6.632,1.003 -13.02,-3.638 -14.255,-10.356c-1.236,-6.719 3.145,-12.988 9.777,-13.991c-6.361,-2.49 -9.702,-9.644 -7.456,-15.964c2.245,-6.32 9.234,-9.429 15.595,-6.938c-4.386,-5.317 -3.786,-13.066 1.34,-17.294c5.125,-4.228 12.847,-3.343 17.233,1.975c-1.235,-6.719 3.145,-12.988 9.778,-13.991c6.631,-1.002 13.019,3.639 14.254,10.358c2.245,-6.321 9.234,-9.429 15.595,-6.938c6.361,2.491 9.702,9.645 7.455,15.965Z" style="fill:#5b6757;"/><path d="M182.78,436.156c5.126,-4.228 12.849,-3.344 17.235,1.974c4.386,5.317 3.784,13.067 -1.341,17.295c6.632,-1.003 13.019,3.637 14.255,10.356c1.235,6.719 -3.146,12.988 -9.778,13.991c6.361,2.491 9.703,9.644 7.457,15.964c-2.246,6.32 -9.234,9.429 -15.595,6.938c4.386,5.317 3.786,13.066 -1.34,17.294c-5.125,4.228 -12.847,3.343 -17.233,-1.975c1.235,6.719 -3.146,12.988 -9.778,13.991c-6.632,1.003 -13.019,-3.639 -14.254,-10.358c-2.247,6.32 -9.234,9.429 -15.595,6.938c-6.362,-2.491 -9.702,-9.645 -7.456,-15.965c-5.125,4.228 -12.847,3.343 -17.233,-1.974c-4.386,-5.318 -3.786,-13.067 1.34,-17.295c-6.632,1.003 -13.02,-3.638 -14.255,-10.356c-1.236,-6.719 3.145,-12.988 9.777,-13.991c-6.361,-2.49 -9.702,-9.644 -7.456,-15.964c2.245,-6.32 9.234,-9.429 15.595,-6.938c-4.386,-5.317 -3.786,-13.066 1.34,-17.294c5.125,-4.228 12.847,-3.343 17.233,1.975c-1.235,-6.719 3.145,-12.988 9.778,-13.991c6.631,-1.002 13.019,3.639 14.254,10.358c2.245,-6.321 9.234,-9.429 15.595,-6.938c6.361,2.491 9.702,9.645 7.455,15.965Z" style="fill:#5b6757;"/><path d="M115.56,152.515c6.247,-5.152 15.792,-3.912 21.301,2.767c5.51,6.68 4.912,16.286 -1.335,21.439c8.164,-1.123 16.131,4.754 17.779,13.114c1.648,8.362 -3.643,16.061 -11.807,17.183c7.895,3.208 12.148,12.148 9.494,19.95c-2.655,7.802 -11.22,11.531 -19.115,8.322c5.509,6.68 4.911,16.287 -1.336,21.439c-6.246,5.153 -15.791,3.912 -21.301,-2.767c1.648,8.361 -3.643,16.06 -11.807,17.183c-8.165,1.122 -16.131,-4.755 -17.779,-13.116c-2.655,7.802 -11.22,11.531 -19.115,8.322c-7.895,-3.207 -12.149,-12.147 -9.494,-19.949c-6.246,5.153 -15.791,3.912 -21.3,-2.767c-5.51,-6.68 -4.911,-16.286 1.335,-21.438c-8.165,1.122 -16.131,-4.754 -17.779,-13.116c-1.648,-8.361 3.642,-16.06 11.807,-17.182c-7.895,-3.209 -12.149,-12.148 -9.494,-19.95c2.655,-7.801 11.221,-11.531 19.115,-8.323c-5.509,-6.679 -4.911,-16.285 1.336,-21.437c6.247,-5.153 15.791,-3.913 21.3,2.766c-1.647,-8.361 3.643,-16.06 11.808,-17.182c8.164,-1.123 16.131,4.754 17.779,13.115c2.654,-7.802 11.22,-11.531 19.115,-8.323c7.894,3.209 12.148,12.148 9.493,19.95Z" style="fill:#5b6757;"/><path d="M266.009,432.448c3.675,-3.032 9.191,-2.425 12.308,1.354c3.117,3.78 2.663,9.309 -1.012,12.341c4.741,-0.736 9.292,2.555 10.153,7.343c0.862,4.789 -2.288,9.275 -7.031,10.011c4.538,1.757 6.903,6.849 5.278,11.364c-1.625,4.516 -6.628,6.755 -11.166,4.999c3.117,3.779 2.664,9.309 -1.012,12.341c-3.676,3.032 -9.191,2.425 -12.308,-1.354c0.861,4.789 -2.289,9.275 -7.032,10.011c-4.741,0.736 -9.291,-2.554 -10.153,-7.343c-1.624,4.516 -6.628,6.755 -11.165,4.998c-4.537,-1.757 -6.902,-6.85 -5.278,-11.365c-3.676,3.033 -9.19,2.426 -12.307,-1.354c-3.118,-3.779 -2.665,-9.309 1.011,-12.341c-4.741,0.736 -9.291,-2.554 -10.153,-7.343c-0.862,-4.789 2.289,-9.275 7.031,-10.011c-4.538,-1.757 -6.903,-6.849 -5.278,-11.364c1.625,-4.516 6.628,-6.755 11.166,-4.999c-3.117,-3.779 -2.664,-9.309 1.012,-12.341c3.676,-3.032 9.191,-2.425 12.309,1.355c-0.862,-4.79 2.288,-9.276 7.031,-10.012c4.742,-0.736 9.291,2.554 10.153,7.343c1.624,-4.516 6.628,-6.755 11.165,-4.998c4.538,1.758 6.903,6.85 5.278,11.365Z" style="fill:#5b6757;"/><path d="M555.28,422.113c4.782,-3.945 12.02,-3.079 16.153,1.93c4.132,5.01 3.604,12.28 -1.179,16.224c6.208,-0.911 12.211,3.473 13.399,9.784c1.187,6.311 -2.888,12.174 -9.095,13.085c5.969,2.367 9.13,9.095 7.055,15.016c-2.075,5.92 -8.607,8.806 -14.577,6.44c4.132,5.01 3.605,12.28 -1.177,16.225c-4.783,3.944 -12.02,3.079 -16.153,-1.931c1.187,6.311 -2.888,12.175 -9.096,13.086c-6.207,0.911 -12.211,-3.473 -13.399,-9.783c-2.075,5.92 -8.607,8.806 -14.576,6.44c-5.971,-2.366 -9.131,-9.095 -7.056,-15.015c-4.783,3.944 -12.02,3.08 -16.152,-1.93c-4.132,-5.01 -3.605,-12.28 1.177,-16.225c-6.207,0.911 -12.211,-3.472 -13.398,-9.783c-1.188,-6.311 2.889,-12.174 9.096,-13.085c-5.969,-2.366 -9.132,-9.095 -7.057,-15.016c2.076,-5.921 8.608,-8.807 14.578,-6.441c-4.132,-5.009 -3.604,-12.279 1.178,-16.223c4.782,-3.945 12.019,-3.08 16.152,1.929c-1.188,-6.311 2.888,-12.174 9.095,-13.085c6.208,-0.911 12.212,3.473 13.4,9.784c2.075,-5.921 8.606,-8.807 14.576,-6.441c5.97,2.366 9.131,9.094 7.056,15.015Z" style="fill:#5b6757;"/><path d="M99.885,294.351c4.918,-4.057 12.472,-3.033 16.858,2.284c4.386,5.318 3.953,12.928 -0.965,16.985c6.452,-0.855 12.778,3.837 14.117,10.471c1.339,6.633 -2.812,12.713 -9.265,13.567c6.258,2.577 9.661,9.679 7.594,15.851c-2.066,6.172 -8.824,9.09 -15.082,6.514c4.386,5.318 3.954,12.928 -0.965,16.986c-4.918,4.056 -12.472,3.033 -16.858,-2.285c1.339,6.634 -2.812,12.713 -9.265,13.568c-6.452,0.854 -12.777,-3.837 -14.117,-10.471c-2.066,6.172 -8.825,9.091 -15.082,6.515c-6.257,-2.577 -9.66,-9.68 -7.594,-15.851c-4.917,4.056 -12.471,3.033 -16.858,-2.285c-4.386,-5.317 -3.953,-12.928 0.965,-16.984c-6.452,0.855 -12.777,-3.837 -14.117,-10.471c-1.339,-6.633 2.813,-12.712 9.265,-13.567c-6.257,-2.576 -9.661,-9.679 -7.594,-15.851c2.067,-6.172 8.825,-9.091 15.082,-6.515c-4.385,-5.316 -3.954,-12.928 0.964,-16.984c4.919,-4.058 12.474,-3.033 16.859,2.283c-1.338,-6.633 2.813,-12.712 9.265,-13.567c6.452,-0.855 12.778,3.837 14.117,10.471c2.067,-6.172 8.824,-9.091 15.082,-6.515c6.258,2.577 9.66,9.679 7.594,15.851Z" style="fill:#5b6757;"/><path d="M186.84,360.447c3.762,-3.103 9.407,-2.483 12.597,1.384c3.189,3.867 2.724,9.527 -1.038,12.63c4.853,-0.754 9.509,2.612 10.39,7.513c0.881,4.9 -2.344,9.492 -7.197,10.246c4.644,1.797 7.063,7.008 5.4,11.63c-1.665,4.621 -6.785,6.914 -11.43,5.116c3.19,3.868 2.725,9.527 -1.037,12.63c-3.763,3.104 -9.407,2.484 -12.597,-1.384c0.881,4.902 -2.344,9.492 -7.197,10.247c-4.854,0.754 -9.509,-2.612 -10.39,-7.513c-1.664,4.621 -6.785,6.914 -11.429,5.116c-4.643,-1.797 -7.063,-7.008 -5.399,-11.629c-3.763,3.104 -9.407,2.483 -12.597,-1.384c-3.189,-3.867 -2.725,-9.526 1.038,-12.63c-4.853,0.754 -9.509,-2.613 -10.39,-7.513c-0.881,-4.9 2.344,-9.492 7.197,-10.246c-4.643,-1.797 -7.062,-7.008 -5.399,-11.63c1.664,-4.621 6.784,-6.914 11.429,-5.117c-3.19,-3.867 -2.726,-9.526 1.037,-12.63c3.762,-3.103 9.407,-2.483 12.597,1.385c-0.881,-4.902 2.344,-9.492 7.198,-10.247c4.853,-0.754 9.508,2.612 10.39,7.513c1.663,-4.621 6.784,-6.914 11.428,-5.117c4.643,1.798 7.063,7.009 5.399,11.63Z" style="fill:#5b6757;"/><path d="M398.166,100.567c3.924,-3.237 9.711,-2.712 12.914,1.171c3.203,3.884 2.618,9.664 -1.306,12.901c5,-0.862 9.718,2.484 10.53,7.465c0.811,4.981 -2.589,9.725 -7.589,10.586c4.737,1.745 7.123,7.014 5.325,11.759c-1.797,4.744 -7.101,7.181 -11.837,5.436c3.204,3.883 2.617,9.665 -1.307,12.901c-3.924,3.237 -9.711,2.712 -12.914,-1.171c0.812,4.982 -2.589,9.725 -7.588,10.586c-5,0.863 -9.719,-2.482 -10.531,-7.464c-1.797,4.745 -7.101,7.18 -11.837,5.436c-4.736,-1.744 -7.122,-7.013 -5.325,-11.758c-3.924,3.237 -9.711,2.712 -12.914,-1.171c-3.203,-3.884 -2.618,-9.665 1.306,-12.902c-4.999,0.863 -9.718,-2.482 -10.53,-7.464c-0.811,-4.981 2.589,-9.725 7.589,-10.587c-4.737,-1.744 -7.122,-7.013 -5.325,-11.758c1.797,-4.745 7.101,-7.181 11.837,-5.436c-3.203,-3.883 -2.617,-9.663 1.307,-12.9c3.924,-3.237 9.711,-2.714 12.914,1.17c-0.812,-4.981 2.589,-9.725 7.589,-10.586c5,-0.862 9.718,2.482 10.53,7.464c1.797,-4.745 7.101,-7.181 11.837,-5.437c4.736,1.746 7.123,7.014 5.325,11.759Z" style="fill:#5b6757;"/><path d="M432.9,324.625c3.488,-2.877 8.708,-2.319 11.648,1.246c2.94,3.565 2.496,8.795 -0.993,11.673c4.492,-0.709 8.79,2.389 9.592,6.915c0.802,4.526 -2.194,8.777 -6.684,9.487c4.29,1.648 6.514,6.457 4.963,10.731c-1.55,4.275 -6.293,6.406 -10.583,4.758c2.94,3.565 2.495,8.796 -0.994,11.673c-3.488,2.877 -8.707,2.319 -11.648,-1.246c0.802,4.526 -2.193,8.777 -6.685,9.486c-4.491,0.709 -8.789,-2.389 -9.591,-6.915c-1.551,4.274 -6.293,6.406 -10.584,4.757c-4.291,-1.648 -6.516,-6.457 -4.965,-10.732c-3.489,2.878 -8.708,2.32 -11.648,-1.245c-2.941,-3.565 -2.496,-8.795 0.993,-11.673c-4.492,0.71 -8.79,-2.388 -9.591,-6.915c-0.802,-4.526 2.192,-8.777 6.684,-9.486c-4.291,-1.649 -6.515,-6.457 -4.965,-10.732c1.551,-4.274 6.294,-6.406 10.585,-4.758c-2.94,-3.565 -2.496,-8.795 0.993,-11.672c3.488,-2.878 8.708,-2.32 11.649,1.245c-0.803,-4.526 2.193,-8.776 6.683,-9.486c4.492,-0.709 8.79,2.39 9.592,6.916c1.55,-4.275 6.294,-6.407 10.585,-4.758c4.291,1.649 6.515,6.457 4.964,10.731Z" style="fill:#5b6757;"/><path d="M346.207,459.378c5.188,-4.279 13.125,-3.237 17.713,2.325c4.588,5.562 4.1,13.552 -1.088,17.831c6.787,-0.925 13.416,3.972 14.796,10.928c1.379,6.956 -3.011,13.355 -9.797,14.28c6.566,2.677 10.113,10.117 7.914,16.604c-2.199,6.487 -9.316,9.58 -15.883,6.902c4.588,5.562 4.101,13.552 -1.086,17.83c-5.188,4.28 -13.125,3.238 -17.713,-2.324c1.38,6.957 -3.01,13.355 -9.797,14.279c-6.787,0.925 -13.416,-3.972 -14.796,-10.928c-2.198,6.487 -9.315,9.579 -15.882,6.902c-6.567,-2.678 -10.113,-10.118 -7.914,-16.605c-5.188,4.28 -13.125,3.239 -17.712,-2.324c-4.588,-5.562 -4.101,-13.552 1.087,-17.831c-6.787,0.925 -13.416,-3.972 -14.796,-10.928c-1.379,-6.957 3.011,-13.355 9.797,-14.28c-6.566,-2.678 -10.113,-10.117 -7.914,-16.604c2.199,-6.487 9.316,-9.58 15.883,-6.902c-4.588,-5.562 -4.101,-13.552 1.087,-17.831c5.187,-4.279 13.124,-3.237 17.712,2.325c-1.379,-6.956 3.01,-13.355 9.797,-14.28c6.787,-0.924 13.416,3.973 14.796,10.929c2.199,-6.487 9.316,-9.579 15.882,-6.902c6.567,2.678 10.113,10.118 7.914,16.604Z" style="fill:#5b6757;"/><path d="M533.225,196.145c4.664,-3.846 11.722,-3.003 15.753,1.884c4.03,4.886 3.516,11.976 -1.148,15.823c6.055,-0.889 11.91,3.388 13.069,9.543c1.158,6.155 -2.817,11.874 -8.872,12.762c5.824,2.308 8.907,8.87 6.883,14.645c-2.025,5.775 -8.394,8.589 -14.217,6.281c4.03,4.887 3.516,11.977 -1.148,15.823c-4.664,3.848 -11.723,3.004 -15.753,-1.882c1.158,6.155 -2.817,11.873 -8.871,12.762c-6.054,0.889 -11.91,-3.387 -13.069,-9.543c-2.024,5.776 -8.394,8.589 -14.216,6.282c-5.823,-2.309 -8.907,-8.871 -6.882,-14.646c-4.665,3.847 -11.723,3.004 -15.754,-1.883c-4.03,-4.886 -3.516,-11.976 1.149,-15.824c-6.055,0.888 -11.911,-3.387 -13.07,-9.542c-1.157,-6.155 2.817,-11.873 8.871,-12.763c-5.822,-2.307 -8.905,-8.87 -6.882,-14.644c2.024,-5.776 8.395,-8.59 14.217,-6.282c-4.03,-4.886 -3.516,-11.977 1.148,-15.824c4.664,-3.847 11.723,-3.002 15.753,1.884c-1.157,-6.156 2.817,-11.874 8.872,-12.762c6.054,-0.889 11.91,3.387 13.067,9.542c2.025,-5.775 8.396,-8.589 14.218,-6.281c5.822,2.309 8.906,8.87 6.882,14.645Z" style="fill:#5b6757;"/></g><g><path d="M52.772,14.295c0,-7.889 6.336,-14.295 14.141,-14.295c7.804,0 14.14,6.406 14.14,14.295c3.902,-6.832 12.557,-9.177 19.316,-5.232c6.758,3.945 9.077,12.695 5.175,19.528c6.759,-3.945 15.414,-1.6 19.316,5.232c3.902,6.833 1.583,15.583 -5.175,19.528c7.804,0 14.14,6.406 14.14,14.296c0,7.889 -6.336,14.295 -14.14,14.295c6.758,3.945 9.077,12.695 5.175,19.528c-3.902,6.833 -12.557,9.177 -19.316,5.232c3.902,6.833 1.583,15.583 -5.175,19.528c-6.759,3.945 -15.414,1.601 -19.316,-5.232c0,7.89 -6.336,14.295 -14.14,14.295c-7.805,0 -14.141,-6.405 -14.141,-14.295c-3.902,6.833 -12.557,9.177 -19.316,5.232c-6.758,-3.945 -9.077,-12.695 -5.175,-19.528c-6.759,3.945 -15.414,1.601 -19.316,-5.232c-3.902,-6.833 -1.583,-15.583 5.176,-19.528c-7.805,0 -14.141,-6.406 -14.141,-14.295c0,-7.89 6.336,-14.296 14.141,-14.296c-6.759,-3.945 -9.078,-12.695 -5.176,-19.528c3.902,-6.832 12.557,-9.177 19.316,-5.232c-3.902,-6.833 -1.583,-15.583 5.175,-19.528c6.759,-3.945 15.414,-1.6 19.316,5.232Z" style="fill:#6a7866;"/><path d="M94.494,336.936c0,-6.644 5.596,-12.039 12.489,-12.039c6.893,0 12.489,5.395 12.489,12.039c3.446,-5.754 11.09,-7.729 17.06,-4.407c5.969,3.322 8.017,10.691 4.571,16.445c5.969,-3.322 13.614,-1.348 17.06,4.406c3.446,5.754 1.398,13.123 -4.571,16.445c6.893,0 12.489,5.394 12.489,12.038c0,6.644 -5.596,12.038 -12.489,12.038c5.969,3.322 8.017,10.691 4.571,16.445c-3.446,5.754 -11.091,7.728 -17.06,4.406c3.446,5.754 1.398,13.123 -4.571,16.445c-5.97,3.322 -13.614,1.347 -17.06,-4.407c0,6.644 -5.596,12.038 -12.489,12.038c-6.893,0 -12.489,-5.394 -12.489,-12.038c-3.446,5.754 -11.091,7.729 -17.06,4.407c-5.969,-3.322 -8.018,-10.691 -4.571,-16.445c-5.969,3.322 -13.614,1.348 -17.06,-4.406c-3.447,-5.754 -1.398,-13.123 4.571,-16.445c-6.893,0 -12.489,-5.394 -12.489,-12.038c0,-6.644 5.596,-12.038 12.489,-12.038c-5.969,-3.322 -8.018,-10.691 -4.571,-16.445c3.446,-5.754 11.091,-7.728 17.06,-4.406c-3.447,-5.754 -1.398,-13.123 4.571,-16.445c5.969,-3.322 13.614,-1.347 17.06,4.407Z" style="fill:#6a7866;"/><path d="M428.682,91.705c0,-8.098 7.03,-14.672 15.688,-14.672c8.659,0 15.689,6.574 15.689,14.672c4.329,-7.013 13.932,-9.419 21.43,-5.371c7.499,4.049 10.072,13.03 5.743,20.042c7.498,-4.049 17.101,-1.642 21.431,5.37c4.329,7.013 1.756,15.993 -5.743,20.042c8.659,0 15.689,6.574 15.689,14.672c0,8.097 -7.03,14.671 -15.689,14.671c7.499,4.049 10.072,13.03 5.743,20.042c-4.33,7.013 -13.933,9.419 -21.431,5.37c4.329,7.013 1.756,15.993 -5.743,20.042c-7.498,4.049 -17.101,1.643 -21.43,-5.37c0,8.097 -7.03,14.671 -15.689,14.671c-8.658,0 -15.688,-6.574 -15.688,-14.671c-4.33,7.013 -13.932,9.419 -21.431,5.37c-7.499,-4.049 -10.072,-13.029 -5.742,-20.042c-7.499,4.049 -17.102,1.643 -21.431,-5.37c-4.329,-7.012 -1.756,-15.993 5.742,-20.042c-8.658,0 -15.688,-6.574 -15.688,-14.671c0,-8.098 7.03,-14.672 15.688,-14.672c-7.498,-4.049 -10.071,-13.029 -5.742,-20.042c4.329,-7.012 13.932,-9.419 21.431,-5.37c-4.33,-7.012 -1.757,-15.993 5.742,-20.042c7.499,-4.048 17.101,-1.642 21.431,5.371Z" style="fill:#6a7866;"/><path d="M528.941,483.039c0,-5.19 4.436,-9.404 9.899,-9.404c5.463,0 9.898,4.214 9.898,9.404c2.731,-4.495 8.791,-6.037 13.521,-3.442c4.731,2.594 6.355,8.351 3.623,12.845c4.732,-2.594 10.79,-1.052 13.521,3.443c2.732,4.495 1.108,10.251 -3.622,12.847c5.462,0 9.898,4.214 9.898,9.403c0,5.191 -4.436,9.404 -9.898,9.404c4.73,2.596 6.354,8.351 3.622,12.847c-2.731,4.494 -8.789,6.037 -13.521,3.442c2.732,4.494 1.108,10.251 -3.623,12.846c-4.73,2.595 -10.79,1.052 -13.521,-3.442c0,5.19 -4.435,9.403 -9.898,9.403c-5.463,0 -9.899,-4.213 -9.899,-9.403c-2.731,4.494 -8.789,6.037 -13.521,3.442c-4.731,-2.595 -6.355,-8.352 -3.623,-12.846c-4.732,2.595 -10.79,1.052 -13.521,-3.442c-2.732,-4.496 -1.108,-10.251 3.623,-12.847c-5.463,0 -9.899,-4.213 -9.899,-9.404c0,-5.189 4.436,-9.403 9.899,-9.403c-4.731,-2.596 -6.355,-8.352 -3.623,-12.847c2.731,-4.495 8.789,-6.037 13.521,-3.443c-2.732,-4.494 -1.108,-10.251 3.623,-12.845c4.732,-2.595 10.79,-1.053 13.521,3.442Z" style="fill:#6a7866;"/><path d="M513.912,331.867c0,-6.199 5.273,-11.232 11.767,-11.232c6.494,0 11.766,5.033 11.766,11.232c3.247,-5.368 10.449,-7.21 16.073,-4.111c5.624,3.1 7.554,9.975 4.307,15.343c5.624,-3.099 12.826,-1.257 16.073,4.112c3.247,5.368 1.317,12.243 -4.307,15.343c6.494,0 11.767,5.033 11.767,11.232c0,6.199 -5.273,11.232 -11.767,11.232c5.624,3.1 7.554,9.975 4.307,15.344c-3.247,5.368 -10.449,7.21 -16.073,4.111c3.247,5.368 1.317,12.244 -4.307,15.343c-5.624,3.1 -12.826,1.257 -16.073,-4.111c0,6.199 -5.272,11.232 -11.766,11.232c-6.494,0 -11.767,-5.033 -11.767,-11.232c-3.247,5.368 -10.449,7.211 -16.073,4.111c-5.624,-3.099 -7.553,-9.975 -4.306,-15.343c-5.624,3.099 -12.827,1.257 -16.074,-4.111c-3.247,-5.369 -1.317,-12.244 4.307,-15.344c-6.494,0 -11.766,-5.033 -11.766,-11.232c0,-6.199 5.272,-11.232 11.766,-11.232c-5.624,-3.1 -7.554,-9.975 -4.307,-15.343c3.247,-5.369 10.45,-7.211 16.074,-4.112c-3.247,-5.368 -1.318,-12.243 4.306,-15.343c5.624,-3.099 12.826,-1.257 16.073,4.111Z" style="fill:#6a7866;"/><path d="M59.609,468.187c0,-6.375 5.596,-11.552 12.489,-11.552c6.893,0 12.489,5.177 12.489,11.552c3.446,-5.522 11.091,-7.416 17.06,-4.228c5.969,3.188 8.018,10.259 4.571,15.78c5.97,-3.188 13.614,-1.294 17.06,4.228c3.447,5.521 1.398,12.592 -4.571,15.78c6.893,0 12.489,5.176 12.489,11.552c0,6.375 -5.596,11.552 -12.489,11.552c5.969,3.188 8.018,10.258 4.571,15.78c-3.446,5.521 -11.09,7.416 -17.06,4.228c3.447,5.521 1.398,12.593 -4.571,15.78c-5.969,3.188 -13.614,1.293 -17.06,-4.228c0,6.375 -5.596,11.551 -12.489,11.551c-6.893,0 -12.489,-5.176 -12.489,-11.551c-3.446,5.521 -11.09,7.416 -17.06,4.228c-5.969,-3.187 -8.017,-10.259 -4.571,-15.78c-5.969,3.188 -13.614,1.293 -17.06,-4.228c-3.446,-5.522 -1.398,-12.592 4.571,-15.78c-6.892,0 -12.489,-5.177 -12.489,-11.552c0,-6.376 5.597,-11.552 12.489,-11.552c-5.969,-3.188 -8.017,-10.259 -4.571,-15.78c3.446,-5.522 11.091,-7.416 17.06,-4.228c-3.446,-5.521 -1.398,-12.592 4.571,-15.78c5.97,-3.188 13.614,-1.294 17.06,4.228Z" style="fill:#6a7866;"/><path d="M199.731,458.836c0,-4.877 4.07,-8.837 9.083,-8.837c5.013,0 9.083,3.96 9.083,8.837c2.506,-4.224 8.066,-5.673 12.407,-3.235c4.341,2.439 5.831,7.848 3.325,12.072c4.341,-2.439 9.9,-0.989 12.407,3.234c2.506,4.225 1.017,9.634 -3.325,12.073c5.013,0 9.083,3.96 9.083,8.837c0,4.878 -4.07,8.837 -9.083,8.837c4.342,2.44 5.831,7.848 3.325,12.073c-2.507,4.223 -8.066,5.673 -12.407,3.234c2.506,4.224 1.016,9.634 -3.325,12.072c-4.341,2.438 -9.901,0.989 -12.407,-3.235c0,4.878 -4.07,8.837 -9.083,8.837c-5.013,0 -9.083,-3.959 -9.083,-8.837c-2.506,4.224 -8.066,5.673 -12.407,3.235c-4.341,-2.438 -5.831,-7.848 -3.325,-12.072c-4.341,2.439 -9.9,0.989 -12.407,-3.234c-2.506,-4.225 -1.017,-9.633 3.325,-12.073c-5.013,0 -9.083,-3.959 -9.083,-8.837c0,-4.877 4.07,-8.837 9.083,-8.837c-4.342,-2.439 -5.831,-7.848 -3.325,-12.073c2.507,-4.223 8.066,-5.673 12.407,-3.234c-2.506,-4.224 -1.016,-9.633 3.325,-12.072c4.341,-2.438 9.901,-0.989 12.407,3.235Z" style="fill:#6a7866;"/><path d="M133.717,130.448c0,-5.087 4.087,-9.217 9.121,-9.217c5.034,0 9.121,4.13 9.121,9.217c2.517,-4.406 8.1,-5.917 12.459,-3.374c4.359,2.544 5.855,8.185 3.338,12.591c4.36,-2.544 9.943,-1.032 12.459,3.374c2.517,4.405 1.022,10.047 -3.338,12.59c5.034,0 9.121,4.131 9.121,9.218c0,5.087 -4.087,9.217 -9.121,9.217c4.36,2.543 5.855,8.185 3.338,12.59c-2.516,4.406 -8.099,5.918 -12.459,3.374c2.517,4.406 1.021,10.047 -3.338,12.591c-4.359,2.543 -9.942,1.032 -12.459,-3.374c0,5.087 -4.087,9.217 -9.121,9.217c-5.034,0 -9.121,-4.13 -9.121,-9.217c-2.516,4.406 -8.099,5.917 -12.459,3.374c-4.359,-2.544 -5.855,-8.185 -3.338,-12.591c-4.36,2.544 -9.942,1.032 -12.459,-3.374c-2.517,-4.405 -1.021,-10.047 3.338,-12.59c-5.034,0 -9.12,-4.13 -9.12,-9.217c0,-5.087 4.086,-9.218 9.12,-9.218c-4.359,-2.543 -5.855,-8.185 -3.338,-12.59c2.517,-4.406 8.099,-5.918 12.459,-3.374c-2.517,-4.406 -1.021,-10.047 3.338,-12.591c4.36,-2.543 9.943,-1.032 12.459,3.374Z" style="fill:#6a7866;"/><path d="M529.242,33.126c0,-4.522 3.752,-8.193 8.373,-8.193c4.621,0 8.373,3.671 8.373,8.193c2.311,-3.916 7.436,-5.26 11.438,-2.999c4.002,2.261 5.375,7.277 3.065,11.193c4.002,-2.261 9.127,-0.917 11.437,2.999c2.311,3.916 0.938,8.931 -3.064,11.192c4.621,0 8.373,3.672 8.373,8.194c0,4.522 -3.752,8.193 -8.373,8.193c4.002,2.261 5.375,7.277 3.064,11.193c-2.31,3.916 -7.435,5.26 -11.437,2.999c2.31,3.916 0.937,8.931 -3.065,11.192c-4.002,2.262 -9.127,0.918 -11.438,-2.999c0,4.523 -3.752,8.194 -8.373,8.194c-4.621,0 -8.373,-3.671 -8.373,-8.194c-2.31,3.917 -7.435,5.261 -11.437,2.999c-4.002,-2.261 -5.376,-7.276 -3.065,-11.192c-4.002,2.261 -9.127,0.917 -11.438,-2.999c-2.31,-3.916 -0.937,-8.932 3.065,-11.193c-4.621,0 -8.373,-3.671 -8.373,-8.193c0,-4.522 3.752,-8.194 8.373,-8.194c-4.002,-2.261 -5.375,-7.276 -3.065,-11.192c2.311,-3.916 7.436,-5.26 11.438,-2.999c-2.311,-3.916 -0.937,-8.932 3.065,-11.193c4.002,-2.261 9.127,-0.917 11.437,2.999Z" style="fill:#6a7866;"/><path d="M441.589,411.308c0,-5.891 5.113,-10.673 11.411,-10.673c6.299,0 11.411,4.782 11.411,10.673c3.15,-5.101 10.134,-6.851 15.589,-3.907c5.454,2.945 7.326,9.477 4.177,14.578c5.454,-2.945 12.439,-1.195 15.588,3.906c3.149,5.101 1.278,11.634 -4.177,14.578c6.298,0 11.412,4.782 11.412,10.672c0,5.89 -5.114,10.672 -11.412,10.672c5.455,2.945 7.326,9.477 4.177,14.578c-3.149,5.101 -10.134,6.851 -15.588,3.906c3.149,5.101 1.277,11.634 -4.177,14.578c-5.455,2.945 -12.439,1.195 -15.589,-3.906c0,5.89 -5.112,10.672 -11.411,10.672c-6.298,0 -11.411,-4.782 -11.411,-10.672c-3.15,5.101 -10.134,6.851 -15.589,3.906c-5.454,-2.944 -7.326,-9.477 -4.177,-14.578c-5.454,2.945 -12.439,1.195 -15.588,-3.906c-3.149,-5.101 -1.277,-11.633 4.177,-14.578c-6.298,0 -11.412,-4.782 -11.412,-10.672c0,-5.89 5.114,-10.672 11.412,-10.672c-5.454,-2.944 -7.326,-9.477 -4.177,-14.578c3.149,-5.101 10.134,-6.851 15.588,-3.906c-3.149,-5.101 -1.277,-11.633 4.177,-14.578c5.455,-2.944 12.439,-1.194 15.589,3.907Z" style="fill:#6a7866;"/><path d="M322.114,27.893c0,-5.59 4.698,-10.129 10.485,-10.129c5.787,0 10.485,4.539 10.485,10.129c2.893,-4.842 9.311,-6.502 14.323,-3.707c5.011,2.795 6.731,8.996 3.837,13.838c5.012,-2.796 11.43,-1.135 14.323,3.708c2.893,4.842 1.174,11.041 -3.838,13.838c5.787,0 10.485,4.539 10.485,10.129c0,5.591 -4.698,10.131 -10.485,10.131c5.012,2.795 6.731,8.996 3.838,13.838c-2.893,4.841 -9.311,6.503 -14.323,3.707c2.894,4.843 1.174,11.042 -3.837,13.838c-5.012,2.796 -11.43,1.134 -14.323,-3.708c0,5.591 -4.698,10.13 -10.485,10.13c-5.787,0 -10.485,-4.539 -10.485,-10.13c-2.894,4.842 -9.311,6.504 -14.323,3.708c-5.011,-2.796 -6.731,-8.995 -3.838,-13.838c-5.011,2.796 -11.429,1.134 -14.322,-3.707c-2.894,-4.842 -1.174,-11.043 3.837,-13.838c-5.786,0 -10.485,-4.54 -10.485,-10.131c0,-5.59 4.699,-10.129 10.485,-10.129c-5.011,-2.797 -6.731,-8.996 -3.837,-13.838c2.893,-4.843 9.311,-6.504 14.322,-3.708c-2.893,-4.842 -1.173,-11.043 3.838,-13.838c5.012,-2.795 11.429,-1.135 14.323,3.707Z" style="fill:#6a7866;"/></g></g></svg>