<?xml version="1.0" encoding="UTF-8" standalone="no"?><!DOCTYPE svg PUBLIC "-//W3C//DTD SVG 1.1//EN" "http://www.w3.org/Graphics/SVG/1.1/DTD/svg11.dtd"><svg width="100%" height="100%" viewBox="0 0 60 67" version="1.1" xmlns="http://www.w3.org/2000/svg" xmlns:xlink="http://www.w3.org/1999/xlink" xml:space="preserve" xmlns:serif="http://www.serif.com/" style="fill-rule:evenodd;clip-rule:evenodd;stroke-linecap:round;stroke-linejoin:round;stroke-miterlimit:1.5;"><g id="squirell"><g><ellipse cx="34.579" cy="54.219" rx="19.67" ry="7.11" style="fill:#352e2e;"/><path d="M12.306,63.674c0.008,-0.046 0.021,-0.093 0.038,-0.139l1.223,-3.294c0.173,-0.464 0.744,-0.713 1.274,-0.557l1.924,0.566c0.53,0.157 0.821,0.66 0.649,1.124l-1.223,3.294c-0.072,0.194 -0.214,0.35 -0.394,0.456l-0.774,0.593l-0.582,-0.509l-0.372,0.602l-1.146,-0.455l0.278,-0.6l0.383,-0.989l-1.279,0.17c-0.014,-0.084 -0.014,-0.172 0.001,-0.259l-0,-0.003l0,0Z" style="fill:#352e2e;"/><path d="M33.329,63.402c-0.006,-0.051 -0.018,-0.102 -0.034,-0.153l-1.165,-3.635c-0.164,-0.512 -0.766,-0.81 -1.343,-0.664l-2.091,0.528c-0.577,0.145 -0.912,0.679 -0.748,1.191l1.166,3.635c0.068,0.215 0.214,0.391 0.402,0.514l0.727,0.221l0.725,-0.068l0.272,0.665l1.352,-0.436l-0.272,-0.665l0.927,-0.01l0.072,-0.838c0.019,-0.092 0.023,-0.187 0.011,-0.282l-0,-0.003l-0.001,-0Z" style="fill:#352e2e;"/></g><g><path d="M9.707,29.114c-0.384,-1.586 -0.587,-3.234 -0.587,-4.925c0,-12.565 11.185,-22.766 24.961,-22.766c13.776,0 24.96,10.201 24.96,22.766c0,10.496 -7.805,19.343 -18.407,21.971c-2.8,7.434 -8.379,12.507 -14.797,12.507c-9.226,0 -16.717,-10.481 -16.717,-23.391c0,-2.132 0.204,-4.198 0.587,-6.162Z" style="fill:#5f4232;"/><clipPath id="_clip1"><path d="M9.707,29.114c-0.384,-1.586 -0.587,-3.234 -0.587,-4.925c0,-12.565 11.185,-22.766 24.961,-22.766c13.776,0 24.96,10.201 24.96,22.766c0,10.496 -7.805,19.343 -18.407,21.971c-2.8,7.434 -8.379,12.507 -14.797,12.507c-9.226,0 -16.717,-10.481 -16.717,-23.391c0,-2.132 0.204,-4.198 0.587,-6.162Z"/></clipPath><g clip-path="url(#_clip1)"><path d="M5.54,28.114c-0.385,-1.586 -0.587,-3.234 -0.587,-4.925c-0,-12.565 11.184,-22.766 24.96,-22.766c13.776,0 24.961,10.201 24.961,22.766c-0,10.496 -7.806,19.343 -18.407,21.971c-2.801,7.434 -8.379,12.507 -14.798,12.507c-9.226,0 -16.716,-10.481 -16.716,-23.391c-0,-2.132 0.204,-4.198 0.587,-6.162Z" style="fill:#7f5b47;fill-opacity:0.59;"/></g><ellipse cx="35.857" cy="23.193" rx="21.016" ry="19.67" style="fill:#8b6652;fill-opacity:0.44;"/></g><g><path d="M11.944,63.498c0.005,-0.051 0.015,-0.103 0.028,-0.155l0.987,-3.702c0.139,-0.521 0.675,-0.832 1.196,-0.693l1.89,0.504c0.521,0.139 0.831,0.675 0.693,1.196l-0.987,3.702c-0.058,0.218 -0.186,0.399 -0.353,0.526l-0.575,0.662l-0.728,-0.485l-0.234,0.678l-1.223,-0.421l0.234,-0.678l-0.873,-0.066l-0.041,-0.779c-0.018,-0.092 -0.024,-0.189 -0.014,-0.286l-0,-0.003l0,0Z" style="fill:#5f4232;"/><path d="M32.878,63.467c-0.006,-0.052 -0.016,-0.104 -0.031,-0.156l-1.048,-3.684c-0.148,-0.519 -0.689,-0.82 -1.208,-0.673l-1.881,0.535c-0.519,0.148 -0.82,0.689 -0.672,1.208l1.048,3.684c0.061,0.218 0.192,0.397 0.361,0.521l0.586,0.652l0.721,-0.497l0.244,0.674l1.216,-0.441l-0.244,-0.675l0.871,-0.08l0.027,-0.78c0.017,-0.092 0.021,-0.188 0.01,-0.285l0,-0.003l-0,-0Z" style="fill:#5f4232;"/></g><path d="M36.394,38.145c0,-7.033 -5.71,-12.743 -12.743,-12.743c-7.033,-0 -12.743,5.71 -12.743,12.743l-0,12.507c-0,7.033 5.71,12.743 12.743,12.743c7.033,-0 12.743,-5.71 12.743,-12.743l0,-12.507Z" style="fill:#8b6652;fill-opacity:0.42;"/><path d="M35.394,38.645c0,-7.309 -5.934,-13.243 -13.243,-13.243c-7.309,-0 -13.243,5.934 -13.243,13.243l-0,11.507c-0,7.309 5.934,13.243 13.243,13.243c7.309,-0 13.243,-5.934 13.243,-13.243l0,-11.507Z" style="fill:#7f5b47;"/><path d="M33.226,39.033c-0,-6.203 -5.036,-11.239 -11.239,-11.239c-6.202,0 -11.238,5.036 -11.238,11.239l-0,11.058c-0,6.202 5.036,11.238 11.238,11.238c6.203,0 11.239,-5.036 11.239,-11.238l-0,-11.058Z" style="fill:#9e745d;"/><clipPath id="_clip2"><path d="M33.226,39.033c-0,-6.203 -5.036,-11.239 -11.239,-11.239c-6.202,0 -11.238,5.036 -11.238,11.239l-0,11.058c-0,6.202 5.036,11.238 11.238,11.238c6.203,0 11.239,-5.036 11.239,-11.238l-0,-11.058Z"/></clipPath><g clip-path="url(#_clip2)"><ellipse cx="22.143" cy="44.129" rx="7.948" ry="23.055" style="fill:#afa7a3;"/><ellipse cx="21.987" cy="46.965" rx="6.137" ry="17.802" style="fill:#b9b3b0;"/></g><g><path d="M13.238,50.766c-0.454,-0.644 -0.859,-1.475 -1.155,-2.428c-0.794,-2.56 -0.492,-5.031 0.674,-5.514c1.166,-0.483 2.757,1.204 3.551,3.764c0.206,0.663 0.338,1.321 0.401,1.939l0.71,0.63l-0.637,1.07l1.031,0.408l-0.487,1.827l-1.031,-0.408l0,1.322l-1.575,-0l0,-1.29c-0.013,-0.005 -0.027,-0.011 -0.04,-0.016l-0.991,0.392l-0.451,-1.696Z" style="fill:#7f5b47;"/><clipPath id="_clip3"><path d="M13.238,50.766c-0.454,-0.644 -0.859,-1.475 -1.155,-2.428c-0.794,-2.56 -0.492,-5.031 0.674,-5.514c1.166,-0.483 2.757,1.204 3.551,3.764c0.206,0.663 0.338,1.321 0.401,1.939l0.71,0.63l-0.637,1.07l1.031,0.408l-0.487,1.827l-1.031,-0.408l0,1.322l-1.575,-0l0,-1.29c-0.013,-0.005 -0.027,-0.011 -0.04,-0.016l-0.991,0.392l-0.451,-1.696Z"/></clipPath><g clip-path="url(#_clip3)"><path d="M17.962,48.059l-5.759,2.963l1.724,3.352l5.76,-2.963l-1.725,-3.352Z" style="fill:#695042;fill-opacity:0.4;"/></g><path d="M30.216,50.766c0.453,-0.644 0.858,-1.475 1.154,-2.428c0.794,-2.56 0.492,-5.031 -0.674,-5.514c-1.166,-0.483 -2.757,1.204 -3.551,3.764c-0.206,0.663 -0.338,1.321 -0.4,1.939l-0.711,0.63l0.637,1.07l-1.031,0.408l0.487,1.827l1.031,-0.408l-0,1.322l1.575,-0l-0,-1.29c0.013,-0.005 0.027,-0.011 0.04,-0.016l0.991,0.392l0.452,-1.696Z" style="fill:#7f5b47;"/><clipPath id="_clip4"><path d="M30.216,50.766c0.453,-0.644 0.858,-1.475 1.154,-2.428c0.794,-2.56 0.492,-5.031 -0.674,-5.514c-1.166,-0.483 -2.757,1.204 -3.551,3.764c-0.206,0.663 -0.338,1.321 -0.4,1.939l-0.711,0.63l0.637,1.07l-1.031,0.408l0.487,1.827l1.031,-0.408l-0,1.322l1.575,-0l-0,-1.29c0.013,-0.005 0.027,-0.011 0.04,-0.016l0.991,0.392l0.452,-1.696Z"/></clipPath><g clip-path="url(#_clip4)"><path d="M25.491,48.059l5.759,2.963l-1.724,3.352l-5.759,-2.963l1.724,-3.352Z" style="fill:#695042;fill-opacity:0.4;"/></g></g><path d="M38.136,5.896c-0.093,0.178 0.666,0.782 0.768,-1.014c0.101,-1.797 2.093,5.096 2.481,6.895c0.483,2.244 -0.732,4.229 -1.115,6.35c-0.245,1.351 0.32,3.199 0.495,4.168c0.114,0.63 0.471,4.721 0.153,6.959c-0.397,2.792 -2.052,5.432 -3.778,7.527c-0.558,0.678 -1.048,1.177 -1.786,1.884c-0.198,0.189 -0.556,0.361 -0.817,0.455c-0.126,0.045 -0.461,0.262 -0.368,0.165c0.213,-0.221 -0.262,-1.039 -0.307,-1.283c-0.248,-1.341 -0.181,-2.805 -0.211,-4.166c-0.122,-5.425 -0.882,-11.373 0.071,-16.744c0.225,-1.268 0.633,-2.499 0.861,-3.762c0.387,-2.138 0.111,-4.38 1.249,-6.326c0.771,-1.317 1.761,-1.005 2.949,-1.16c0.482,-0.062 0.442,0.09 0.73,0.296c0.021,0.015 -1.235,-0.244 -1.375,-0.244Z" style="fill:#352e2e;fill-opacity:0.48;"/><g id="ears"><path d="M4.3,9.01l0.294,-1.928l0.317,-3.129l1.705,1.629l0.667,-3.236l1.089,2.582l1.289,-3.07l0.133,3.774l1.258,-1.42l1.147,4.655c0.35,0.55 0.668,1.15 0.943,1.79c0.81,3.088 0.579,6.411 -0.595,8.546c-1.311,1.308 -3.123,1.494 -4.842,0.559c-0.148,0.026 -0.295,0.052 -0.441,0.079l0.119,-0.268c-0.183,-0.115 -0.365,-0.244 -0.544,-0.385c-1.759,-2.143 -2.9,-5.47 -2.934,-8.556c0.09,-0.576 0.223,-1.119 0.395,-1.622Z" style="fill:#5f4232;"/><path d="M40.002,9.01l-0.294,-1.928l-0.317,-3.129l-1.705,1.629l-0.667,-3.236l-1.089,2.582l-1.289,-3.07l-0.133,3.774l-1.258,-1.42l-1.147,4.655c-0.35,0.55 -0.668,1.15 -0.943,1.79c-0.81,3.088 -0.579,6.411 0.595,8.546c1.311,1.308 3.123,1.494 4.842,0.559c0.148,0.026 0.295,0.052 0.441,0.079l-0.119,-0.268c0.183,-0.115 0.365,-0.244 0.544,-0.385c1.759,-2.143 2.9,-5.47 2.935,-8.556c-0.091,-0.576 -0.224,-1.119 -0.396,-1.622Z" style="fill:#5f4232;"/></g><ellipse id="head-shadow" serif:id="head shadow" cx="22.493" cy="26.673" rx="17.558" ry="17.126" style="fill:#845f42;fill-opacity:0.46;"/><ellipse cx="22.151" cy="26.328" rx="17.9" ry="16.781" style="fill:#7f5b47;"/><clipPath id="_clip5"><ellipse cx="22.151" cy="26.328" rx="17.9" ry="16.781"/></clipPath><g clip-path="url(#_clip5)"><path d="M33.229,47.866c1.14,-1.477 1.739,-3.153 1.739,-4.858c0,-5.362 -5.816,-9.715 -12.981,-9.715c-7.164,0 -12.981,4.353 -12.981,9.715c0,1.705 0.6,3.381 1.739,4.858l22.484,-0Z" style="fill:#a39893;"/></g><ellipse id="head-shadow1" serif:id="head shadow" cx="22.151" cy="26.328" rx="15.922" ry="15.226" style="fill:#9e745d;"/><clipPath id="_clip6"><ellipse cx="22.151" cy="26.328" rx="15.922" ry="15.226"/></clipPath><g clip-path="url(#_clip6)"><path d="M33.229,47.866c1.14,-1.477 1.739,-3.153 1.739,-4.858c0,-5.362 -5.816,-9.715 -12.981,-9.715c-7.164,0 -12.981,4.353 -12.981,9.715c0,1.705 0.6,3.381 1.739,4.858l22.484,-0Z" style="fill:#afa7a3;"/><path id="nose" d="M22.004,35.16l-1.478,-2.427l3,0.027l-1.522,2.4Z" style="fill:#85595a;"/></g><g id="face"><g><ellipse cx="33.484" cy="33.953" rx="2.388" ry="1.207" style="fill:#b47678;"/><ellipse cx="11.028" cy="33.953" rx="2.388" ry="1.207" style="fill:#a96b6d;"/></g><g><path d="M18.558,35.208c1.577,1.673 1.967,1.546 3.582,0" style="fill:none;stroke:#353535;stroke-width:0.63px;"/><path d="M22.14,35.208c1.577,1.673 1.967,1.546 3.583,0" style="fill:none;stroke:#353535;stroke-width:0.63px;"/></g><g><ellipse cx="13" cy="28.858" rx="4.39" ry="3.888" style="fill:#afa7a3;"/><ellipse cx="13" cy="28.858" rx="3.331" ry="2.838" style="fill:#353535;"/><ellipse cx="12.167" cy="27.794" rx="1.249" ry="1.064" style="fill:#c0c0c0;"/><ellipse cx="13" cy="29.922" rx="0.416" ry="0.355" style="fill:#c0c0c0;"/></g><g><ellipse cx="30.649" cy="28.858" rx="4.39" ry="3.888" style="fill:#afa7a3;"/><ellipse cx="30.649" cy="28.858" rx="3.331" ry="2.838" style="fill:#353535;"/><ellipse cx="29.816" cy="27.794" rx="1.249" ry="1.064" style="fill:#c0c0c0;"/><ellipse cx="30.649" cy="29.922" rx="0.416" ry="0.355" style="fill:#c0c0c0;"/></g></g></g></svg>