<?xml version="1.0" encoding="UTF-8" standalone="no"?><!DOCTYPE svg PUBLIC "-//W3C//DTD SVG 1.1//EN" "http://www.w3.org/Graphics/SVG/1.1/DTD/svg11.dtd"><svg width="100%" height="100%" viewBox="0 0 15 17" version="1.1" xmlns="http://www.w3.org/2000/svg" xmlns:xlink="http://www.w3.org/1999/xlink" xml:space="preserve" xmlns:serif="http://www.serif.com/" style="fill-rule:evenodd;clip-rule:evenodd;stroke-linecap:round;stroke-linejoin:round;stroke-miterlimit:1.5;"><g><g><ellipse cx="7.494" cy="13.661" rx="3.863" ry="1.706" style="fill:#424242;"/><g><path d="M7.225,14.191c0.235,-0.084 0.556,0.21 0.717,0.658c0.16,0.447 0.099,0.879 -0.136,0.963c-0.236,0.084 -0.557,-0.21 -0.717,-0.657c-0.161,-0.448 -0.1,-0.879 0.136,-0.964Z" style="fill:#424242;"/><path d="M5.166,14.191c-0.236,-0.084 -0.557,0.21 -0.717,0.658c-0.161,0.447 -0.1,0.879 0.136,0.963c0.235,0.084 0.556,-0.21 0.717,-0.657c0.16,-0.448 0.099,-0.879 -0.136,-0.964Z" style="fill:#424242;"/></g></g><g><path d="M2.781,7.06c-0.092,-0.381 -0.141,-0.776 -0.141,-1.182c0,-3.016 2.685,-5.464 5.991,-5.464c3.306,-0 5.991,2.448 5.991,5.464c-0,2.519 -1.874,4.642 -4.418,5.273c-0.672,1.784 -2.011,3.002 -3.552,3.002c-2.214,-0 -4.012,-2.516 -4.012,-5.614c0,-0.512 0.049,-1.008 0.141,-1.479Z" style="fill:#805942;"/><clipPath id="_clip1"><path d="M2.781,7.06c-0.092,-0.381 -0.141,-0.776 -0.141,-1.182c0,-3.016 2.685,-5.464 5.991,-5.464c3.306,-0 5.991,2.448 5.991,5.464c-0,2.519 -1.874,4.642 -4.418,5.273c-0.672,1.784 -2.011,3.002 -3.552,3.002c-2.214,-0 -4.012,-2.516 -4.012,-5.614c0,-0.512 0.049,-1.008 0.141,-1.479Z"/></clipPath><g clip-path="url(#_clip1)"><path d="M1.781,6.82c-0.092,-0.381 -0.141,-0.776 -0.141,-1.182c0,-3.016 2.684,-5.464 5.991,-5.464c3.306,-0 5.99,2.448 5.99,5.464c0,2.519 -1.873,4.642 -4.417,5.273c-0.673,1.784 -2.011,3.002 -3.552,3.002c-2.214,-0 -4.012,-2.516 -4.012,-5.614c0,-0.512 0.049,-1.008 0.141,-1.479Z" style="fill:#b1856a;fill-opacity:0.59;"/></g><path d="M2.781,7.06c-0.092,-0.381 -0.141,-0.776 -0.141,-1.182c0,-3.016 2.685,-5.464 5.991,-5.464c3.306,-0 5.991,2.448 5.991,5.464c-0,2.519 -1.874,4.642 -4.418,5.273c-0.672,1.784 -2.011,3.002 -3.552,3.002c-2.214,-0 -4.012,-2.516 -4.012,-5.614c0,-0.512 0.049,-1.008 0.141,-1.479Z" style="fill:none;stroke:#424242;stroke-width:0.24px;"/><ellipse cx="9.057" cy="5.639" rx="5.044" ry="4.721" style="fill:#936f5a;fill-opacity:0.44;"/></g><g><g><path d="M6.879,14.167c0.235,-0.084 0.557,0.21 0.717,0.657c0.16,0.448 0.099,0.879 -0.136,0.964c-0.235,0.084 -0.557,-0.21 -0.717,-0.658c-0.16,-0.447 -0.099,-0.879 0.136,-0.963Z" style="fill:#967866;stroke:#424242;stroke-width:0.23px;"/><path d="M4.82,14.167c-0.235,-0.084 -0.557,0.21 -0.717,0.657c-0.16,0.448 -0.099,0.879 0.136,0.964c0.235,0.084 0.557,-0.21 0.717,-0.658c0.16,-0.447 0.099,-0.879 -0.136,-0.963Z" style="fill:#977460;stroke:#424242;stroke-width:0.23px;"/></g><ellipse cx="5.738" cy="11.954" rx="2.866" ry="3.661" style="fill:#b0886f;"/><clipPath id="_clip2"><ellipse cx="5.738" cy="11.954" rx="2.866" ry="3.661"/></clipPath><g clip-path="url(#_clip2)"><ellipse cx="5.738" cy="12.355" rx="1.517" ry="3.261" style="fill:#bdbdbd;"/><rect x="5.738" y="6.571" width="2.863" height="9.519" style="fill:#8b7163;fill-opacity:0.71;"/></g><ellipse cx="5.738" cy="11.954" rx="2.866" ry="3.661" style="fill:none;stroke:#424242;stroke-width:0.24px;"/></g><g><path d="M7.543,11.179c0.143,0.638 0.101,1.042 0.459,1.218c0.439,0.216 0.262,-0.416 0.176,-0.828c-0.113,-0.55 -0.236,-0.859 -0.236,-0.859" style="fill:none;stroke:#424242;stroke-width:0.2px;"/><path d="M3.967,11.179c-0.144,0.638 -0.102,1.042 -0.459,1.218c-0.439,0.216 -0.262,-0.416 -0.177,-0.828c0.113,-0.55 0.236,-0.859 0.236,-0.859" style="fill:none;stroke:#424242;stroke-width:0.2px;"/></g><g><path d="M1.347,1.802c0.494,-0.16 1.134,-0.022 1.646,0.357c0.434,0.468 0.651,1.095 0.557,1.613c-0.226,0.45 -0.732,0.699 -1.302,0.64c-0.574,-0.189 -1.103,-0.663 -1.361,-1.217c-0.129,-0.567 0.05,-1.109 0.46,-1.393Z" style="fill:#977460;stroke:#424242;stroke-width:0.24px;"/><path d="M10.406,1.857c-0.487,-0.161 -1.111,-0.035 -1.607,0.325c-0.418,0.445 -0.62,1.047 -0.519,1.548c0.228,0.436 0.728,0.682 1.286,0.633c0.559,-0.177 1.07,-0.627 1.314,-1.158c0.118,-0.545 -0.067,-1.069 -0.474,-1.348Z" style="fill:#977460;stroke:#424242;stroke-width:0.24px;"/></g><ellipse cx="5.768" cy="6.391" rx="4.296" ry="4.027" style="fill:#b0886f;"/><clipPath id="_clip3"><ellipse cx="5.768" cy="6.391" rx="4.296" ry="4.027"/></clipPath><g clip-path="url(#_clip3)"><path d="M8.427,11.56c0.273,-0.354 0.417,-0.756 0.417,-1.166c0,-1.287 -1.396,-2.331 -3.115,-2.331c-1.72,-0 -3.116,1.044 -3.116,2.331c0,0.41 0.144,0.812 0.417,1.166l5.397,0Z" style="fill:#bdbdbd;"/><path d="M5.733,8.511l-0.355,-0.583l0.72,0.007l-0.365,0.576Z" style="fill:#85595a;"/><rect x="5.765" y="1.734" width="4.299" height="9.216" style="fill:#8d6d5a;fill-opacity:0.73;"/></g><ellipse cx="5.768" cy="6.391" rx="4.296" ry="4.027" style="fill:none;stroke:#424242;stroke-width:0.24px;"/><g><ellipse cx="8.488" cy="8.221" rx="0.573" ry="0.29" style="fill:#b47678;"/><ellipse cx="3.098" cy="8.221" rx="0.573" ry="0.29" style="fill:#a96b6d;"/></g><g><path d="M4.906,8.522c0.378,0.402 0.472,0.371 0.859,0" style="fill:none;stroke:#353535;stroke-width:0.15px;"/><path d="M5.765,8.522c0.379,0.402 0.472,0.371 0.86,0" style="fill:none;stroke:#353535;stroke-width:0.15px;"/></g><g><ellipse cx="3.572" cy="6.998" rx="1.054" ry="0.933" style="fill:#c3c3c3;"/><ellipse cx="3.572" cy="6.998" rx="0.8" ry="0.681" style="fill:#353535;"/><ellipse cx="3.372" cy="6.743" rx="0.3" ry="0.255" style="fill:#c0c0c0;"/><ellipse cx="3.572" cy="7.254" rx="0.1" ry="0.085" style="fill:#c0c0c0;"/></g><g><ellipse cx="7.807" cy="6.998" rx="1.054" ry="0.933" style="fill:#a2a2a2;"/><ellipse cx="7.807" cy="6.998" rx="0.8" ry="0.681" style="fill:#353535;"/><ellipse cx="7.607" cy="6.743" rx="0.3" ry="0.255" style="fill:#c0c0c0;"/><ellipse cx="7.807" cy="7.254" rx="0.1" ry="0.085" style="fill:#c0c0c0;"/></g></g></svg>