<?xml version="1.0" encoding="UTF-8" standalone="no"?><!DOCTYPE svg PUBLIC "-//W3C//DTD SVG 1.1//EN" "http://www.w3.org/Graphics/SVG/1.1/DTD/svg11.dtd"><svg width="100%" height="100%" viewBox="0 0 65 71" version="1.1" xmlns="http://www.w3.org/2000/svg" xmlns:xlink="http://www.w3.org/1999/xlink" xml:space="preserve" xmlns:serif="http://www.serif.com/" style="fill-rule:evenodd;clip-rule:evenodd;stroke-linecap:round;stroke-linejoin:round;stroke-miterlimit:1.5;"><g><ellipse cx="21.052" cy="63.467" rx="2.388" ry="3.587" style="fill:#4f3c30;stroke:#353432;stroke-width:1px;"/><ellipse cx="32.645" cy="63.467" rx="2.388" ry="3.587" style="fill:#4f3c30;stroke:#353432;stroke-width:0.95px;"/><path d="M14.475,33.915c-0.385,-1.587 -0.587,-3.235 -0.587,-4.926c0,-12.565 11.184,-22.766 24.96,-22.766c13.776,0 24.961,10.201 24.961,22.766c0,10.496 -7.806,19.343 -18.407,21.971c-2.801,7.434 -8.379,12.507 -14.798,12.507c-9.226,0 -16.716,-10.481 -16.716,-23.391c0,-2.132 0.204,-4.198 0.587,-6.161Z" style="fill:#4f3c30;stroke:#353432;stroke-width:1px;"/><ellipse cx="27.033" cy="49.765" rx="11.94" ry="15.255" style="fill:#624433;"/><clipPath id="_clip1"><ellipse cx="27.033" cy="49.765" rx="11.94" ry="15.255"/></clipPath><g clip-path="url(#_clip1)"><rect x="27.033" y="27.335" width="11.93" height="39.664" style="fill:#593e2f;"/></g><ellipse cx="27.033" cy="49.765" rx="11.94" ry="15.255" style="fill:none;stroke:#393735;stroke-width:1px;"/><path d="M8.612,6.509c2.06,-0.669 4.726,-0.09 6.857,1.488c1.812,1.948 2.714,4.561 2.322,6.721c-0.94,1.873 -3.048,2.91 -5.422,2.666c-2.393,-0.79 -4.598,-2.763 -5.673,-5.073c-0.539,-2.362 0.206,-4.617 1.916,-5.802Z" style="fill:#614635;stroke:#353432;stroke-width:1px;"/><path d="M46.36,6.738c-2.029,-0.67 -4.633,-0.144 -6.697,1.352c-1.743,1.857 -2.585,4.365 -2.165,6.452c0.952,1.818 3.035,2.842 5.359,2.635c2.332,-0.733 4.461,-2.609 5.477,-4.823c0.49,-2.271 -0.278,-4.454 -1.974,-5.616Z" style="fill:#614534;stroke:#353432;stroke-width:1px;"/><path d="M17.652,48.212c0.56,-0.296 2.002,0.818 3.22,2.486c1.218,1.669 1.752,3.264 1.192,3.561c-0.56,0.296 -2.003,-0.818 -3.22,-2.487c-1.218,-1.668 -1.752,-3.264 -1.192,-3.56Z" style="fill:#4f3c30;"/><path d="M34.004,48.212c-0.559,-0.296 -2.002,0.818 -3.22,2.486c-1.217,1.669 -1.752,3.264 -1.192,3.561c0.56,0.296 2.003,-0.818 3.22,-2.487c1.218,-1.668 1.752,-3.264 1.192,-3.56Z" style="fill:#4f3c30;"/><ellipse cx="27.033" cy="25.63" rx="17.9" ry="16.781" style="fill:#684a38;"/><clipPath id="_clip2"><ellipse cx="27.033" cy="25.63" rx="17.9" ry="16.781"/></clipPath><g clip-path="url(#_clip2)"><rect x="27.022" y="6.223" width="17.91" height="38.401" style="fill:#593e2f;fill-opacity:0.72642;"/></g><ellipse cx="27.033" cy="25.63" rx="17.9" ry="16.781" style="fill:none;stroke:#353432;stroke-width:1px;"/><ellipse cx="37.919" cy="32.856" rx="2.388" ry="1.207" style="fill:#be5b5d;"/><ellipse cx="16.297" cy="32.666" rx="2.388" ry="1.207" style="fill:#be5b5d;"/><g><path d="M23.44,34.51c1.577,1.672 1.967,1.545 3.582,0" style="fill:none;stroke:#353535;stroke-width:0.5px;"/><path d="M27.022,34.51c1.577,1.672 1.967,1.545 3.582,0" style="fill:none;stroke:#353535;stroke-width:0.5px;"/></g><g><ellipse cx="17.881" cy="28.131" rx="3.973" ry="3.518" style="fill:#5f5f5e;"/><ellipse cx="17.881" cy="28.16" rx="3.331" ry="2.838" style="fill:#353535;"/><ellipse cx="17.049" cy="27.096" rx="1.249" ry="1.064" style="fill:#c0c0c0;"/><ellipse cx="17.881" cy="29.224" rx="0.416" ry="0.355" style="fill:#c0c0c0;"/></g><g><ellipse cx="35.531" cy="28.131" rx="3.973" ry="3.518" style="fill:#5f5f5e;"/><ellipse cx="35.531" cy="28.16" rx="3.331" ry="2.838" style="fill:#353535;"/><ellipse cx="34.698" cy="27.096" rx="1.249" ry="1.064" style="fill:#c0c0c0;"/><ellipse cx="35.531" cy="29.224" rx="0.416" ry="0.355" style="fill:#c0c0c0;"/></g></g></svg>