<?xml version="1.0" encoding="UTF-8" standalone="no"?><!DOCTYPE svg PUBLIC "-//W3C//DTD SVG 1.1//EN" "http://www.w3.org/Graphics/SVG/1.1/DTD/svg11.dtd"><svg width="100%" height="100%" viewBox="0 0 15 17" version="1.1" xmlns="http://www.w3.org/2000/svg" xmlns:xlink="http://www.w3.org/1999/xlink" xml:space="preserve" xmlns:serif="http://www.serif.com/" style="fill-rule:evenodd;clip-rule:evenodd;stroke-linecap:round;stroke-linejoin:round;stroke-miterlimit:1.5;"><g><g><ellipse cx="7.042" cy="13.588" rx="3.863" ry="1.706" style="fill:#424242;"/><g><path d="M6.773,14.119c0.235,-0.085 0.557,0.21 0.717,0.657c0.16,0.448 0.1,0.879 -0.136,0.964c-0.235,0.084 -0.557,-0.211 -0.717,-0.658c-0.16,-0.447 -0.099,-0.879 0.136,-0.963Z" style="fill:#424242;"/><path d="M4.714,14.119c-0.235,-0.085 -0.557,0.21 -0.717,0.657c-0.16,0.448 -0.099,0.879 0.136,0.964c0.235,0.084 0.557,-0.211 0.717,-0.658c0.16,-0.447 0.1,-0.879 -0.136,-0.963Z" style="fill:#424242;"/></g></g><g><path d="M2.33,6.987c-0.093,-0.38 -0.141,-0.776 -0.141,-1.182c-0,-3.015 2.684,-5.463 5.99,-5.463c3.307,-0 5.991,2.448 5.991,5.463c-0,2.519 -1.873,4.643 -4.418,5.273c-0.672,1.785 -2.011,3.002 -3.551,3.002c-2.214,0 -4.012,-2.515 -4.012,-5.614c-0,-0.512 0.049,-1.007 0.141,-1.479Z" style="fill:#805942;"/><clipPath id="_clip1"><path d="M2.33,6.987c-0.093,-0.38 -0.141,-0.776 -0.141,-1.182c-0,-3.015 2.684,-5.463 5.99,-5.463c3.307,-0 5.991,2.448 5.991,5.463c-0,2.519 -1.873,4.643 -4.418,5.273c-0.672,1.785 -2.011,3.002 -3.551,3.002c-2.214,0 -4.012,-2.515 -4.012,-5.614c-0,-0.512 0.049,-1.007 0.141,-1.479Z"/></clipPath><g clip-path="url(#_clip1)"><path d="M1.33,6.747c-0.093,-0.38 -0.141,-0.776 -0.141,-1.182c-0,-3.015 2.684,-5.463 5.99,-5.463c3.306,-0 5.991,2.448 5.991,5.463c-0,2.519 -1.874,4.643 -4.418,5.273c-0.672,1.785 -2.011,3.002 -3.551,3.002c-2.215,0 -4.012,-2.515 -4.012,-5.614c-0,-0.512 0.049,-1.007 0.141,-1.479Z" style="fill:#b1856a;fill-opacity:0.59;"/></g><path d="M2.33,6.987c-0.093,-0.38 -0.141,-0.776 -0.141,-1.182c-0,-3.015 2.684,-5.463 5.99,-5.463c3.307,-0 5.991,2.448 5.991,5.463c-0,2.519 -1.873,4.643 -4.418,5.273c-0.672,1.785 -2.011,3.002 -3.551,3.002c-2.214,0 -4.012,-2.515 -4.012,-5.614c-0,-0.512 0.049,-1.007 0.141,-1.479Z" style="fill:none;stroke:#424242;stroke-width:0.24px;"/><ellipse cx="8.606" cy="5.566" rx="5.044" ry="4.721" style="fill:#936f5a;fill-opacity:0.44;"/></g><g><g><path d="M6.427,14.095c0.236,-0.085 0.557,0.21 0.717,0.657c0.161,0.447 0.1,0.879 -0.136,0.963c-0.235,0.085 -0.556,-0.21 -0.717,-0.657c-0.16,-0.447 -0.099,-0.879 0.136,-0.963Z" style="fill:#967866;stroke:#424242;stroke-width:0.23px;"/><path d="M4.368,14.095c-0.235,-0.085 -0.556,0.21 -0.717,0.657c-0.16,0.447 -0.099,0.879 0.136,0.963c0.236,0.085 0.557,-0.21 0.717,-0.657c0.161,-0.447 0.1,-0.879 -0.136,-0.963Z" style="fill:#977460;stroke:#424242;stroke-width:0.23px;"/></g><ellipse cx="5.286" cy="11.882" rx="2.866" ry="3.661" style="fill:#b0886f;"/><clipPath id="_clip2"><ellipse cx="5.286" cy="11.882" rx="2.866" ry="3.661"/></clipPath><g clip-path="url(#_clip2)"><ellipse cx="5.286" cy="12.282" rx="1.517" ry="3.261" style="fill:#bdbdbd;"/></g><ellipse cx="5.286" cy="11.882" rx="2.866" ry="3.661" style="fill:none;stroke:#424242;stroke-width:0.24px;"/></g><g><path d="M7.091,11.106c0.144,0.639 0.102,1.043 0.459,1.219c0.439,0.216 0.262,-0.416 0.177,-0.828c-0.114,-0.551 -0.237,-0.859 -0.237,-0.859" style="fill:none;stroke:#424242;stroke-width:0.2px;"/><path d="M3.515,11.106c-0.144,0.639 -0.102,1.043 -0.459,1.219c-0.439,0.216 -0.262,-0.416 -0.177,-0.828c0.114,-0.551 0.237,-0.859 0.237,-0.859" style="fill:none;stroke:#424242;stroke-width:0.2px;"/></g><g><path d="M0.895,1.73c0.495,-0.161 1.134,-0.022 1.646,0.357c0.435,0.467 0.651,1.095 0.557,1.613c-0.225,0.45 -0.731,0.698 -1.301,0.64c-0.574,-0.19 -1.104,-0.663 -1.362,-1.218c-0.129,-0.567 0.05,-1.108 0.46,-1.392Z" style="fill:#977460;stroke:#424242;stroke-width:0.24px;"/><path d="M9.955,1.785c-0.487,-0.161 -1.112,-0.035 -1.607,0.324c-0.419,0.446 -0.621,1.048 -0.52,1.549c0.228,0.436 0.728,0.682 1.286,0.632c0.56,-0.176 1.071,-0.626 1.315,-1.157c0.117,-0.545 -0.067,-1.069 -0.474,-1.348Z" style="fill:#977460;stroke:#424242;stroke-width:0.24px;"/></g><ellipse cx="5.316" cy="6.319" rx="4.296" ry="4.027" style="fill:#b0886f;"/><clipPath id="_clip3"><ellipse cx="5.316" cy="6.319" rx="4.296" ry="4.027"/></clipPath><g clip-path="url(#_clip3)"><path d="M7.975,11.488c0.273,-0.355 0.417,-0.757 0.417,-1.166c0,-1.287 -1.396,-2.332 -3.115,-2.332c-1.72,0 -3.116,1.045 -3.116,2.332c0,0.409 0.144,0.811 0.418,1.166l5.396,-0Z" style="fill:#bdbdbd;"/><path d="M5.281,8.438l-0.355,-0.582l0.72,0.006l-0.365,0.576Z" style="fill:#85595a;"/></g><ellipse cx="5.316" cy="6.319" rx="4.296" ry="4.027" style="fill:none;stroke:#424242;stroke-width:0.24px;"/><g><ellipse cx="8.036" cy="8.149" rx="0.573" ry="0.29" style="fill:#b47678;"/><ellipse cx="2.647" cy="8.149" rx="0.573" ry="0.29" style="fill:#a96b6d;"/></g><g><path d="M4.454,8.45c0.378,0.401 0.472,0.371 0.86,0" style="fill:none;stroke:#353535;stroke-width:0.15px;"/><path d="M5.314,8.45c0.378,0.401 0.472,0.371 0.859,0" style="fill:none;stroke:#353535;stroke-width:0.15px;"/></g><g><ellipse cx="3.12" cy="6.926" rx="1.054" ry="0.933" style="fill:#c3c3c3;"/><ellipse cx="3.12" cy="6.926" rx="0.8" ry="0.681" style="fill:#353535;"/><ellipse cx="2.92" cy="6.671" rx="0.3" ry="0.255" style="fill:#c0c0c0;"/><ellipse cx="3.12" cy="7.181" rx="0.1" ry="0.085" style="fill:#c0c0c0;"/></g><g><ellipse cx="7.356" cy="6.926" rx="1.054" ry="0.933" style="fill:#a2a2a2;"/><ellipse cx="7.356" cy="6.926" rx="0.8" ry="0.681" style="fill:#353535;"/><ellipse cx="7.156" cy="6.671" rx="0.3" ry="0.255" style="fill:#c0c0c0;"/><ellipse cx="7.356" cy="7.181" rx="0.1" ry="0.085" style="fill:#c0c0c0;"/></g></g></svg>