<?xml version="1.0" encoding="UTF-8" standalone="no"?><!DOCTYPE svg PUBLIC "-//W3C//DTD SVG 1.1//EN" "http://www.w3.org/Graphics/SVG/1.1/DTD/svg11.dtd"><svg width="100%" height="100%" viewBox="0 0 491 78" version="1.1" xmlns="http://www.w3.org/2000/svg" xmlns:xlink="http://www.w3.org/1999/xlink" xml:space="preserve" xmlns:serif="http://www.serif.com/" style="fill-rule:evenodd;clip-rule:evenodd;stroke-linejoin:round;stroke-miterlimit:2;"><g id="Layer2"><g><g><g><path d="M134.427,4.062l62.099,73.938l-124.198,-0l62.099,-73.938Z" style="fill:#7f7f7f;"/><path d="M80.766,3.641l67.08,74.359l-134.16,-0l67.08,-74.359Z" style="fill:#7f7f7f;"/></g><g><path d="M270.709,3.764l62.1,74.236l-124.199,-0l62.099,-74.236Z" style="fill:#7f7f7f;"/><path d="M217.048,3.335l67.079,74.665l-134.159,-0l67.08,-74.665Z" style="fill:#7f7f7f;"/></g><g><path d="M398.587,2.326l62.099,75.674l-124.197,-0l62.098,-75.674Z" style="fill:#7f7f7f;"/><path d="M344.926,1.905l67.08,76.095l-134.16,-0l67.08,-76.095Z" style="fill:#7f7f7f;"/></g></g><g><g><path d="M111.174,12.421l62.099,65.579l-124.197,-0l62.098,-65.579Z" style="fill:#898989;"/><path d="M63.174,12.047l61.419,65.953l-122.837,0l61.418,-65.953Z" style="fill:#848484;"/></g><g><path d="M247.457,12.156l62.099,65.844l-124.199,-0l62.1,-65.844Z" style="fill:#898989;"/><path d="M193.796,11.774l67.079,66.226l-134.159,-0l67.08,-66.226Z" style="fill:#848484;"/></g><g><path d="M375.335,10.88l62.098,67.12l-124.197,-0l62.099,-67.12Z" style="fill:#898989;"/><path d="M321.673,10.507l67.08,67.493l-134.16,-0l67.08,-67.493Z" style="fill:#848484;"/></g></g></g></g><g id="Layer21" serif:id="Layer2"><g><g><g><path d="M364.943,2.212l-63.756,75.788l127.513,0l-63.757,-75.788Z" style="fill:#aeaeae;"/><path d="M420.037,1.78l-68.87,76.22l137.74,0l-68.87,-76.22Z" style="fill:#949494;"/></g><g><path d="M225.024,1.905l-63.757,76.095l127.514,0l-63.757,-76.095Z" style="fill:#afafaf;"/><path d="M280.117,1.465l-68.87,76.535l137.74,0l-68.87,-76.535Z" style="fill:#a1a1a1;"/></g><g><g><path d="M93.733,0.431l-63.756,77.569l127.512,0l-63.756,-77.569Z" style="fill:#b2b2b2;"/><path d="M148.827,0l-68.871,78l137.741,0l-68.87,-78Z" style="fill:#8e8e8e;"/></g></g></g><g><g><path d="M125.72,20.724l63.756,57.276l-127.513,-0l63.757,-57.276Z" style="fill:#aeaeae;"/><path d="M70.626,20.398l68.87,57.602l-137.74,-0l68.87,-57.602Z" style="fill:#949494;"/></g><g><path d="M265.639,20.493l63.757,57.507l-127.514,-0l63.757,-57.507Z" style="fill:#afafaf;"/><path d="M210.546,20.16l68.87,57.84l-137.74,-0l68.87,-57.84Z" style="fill:#a1a1a1;"/></g><g><g><path d="M396.93,19.378l63.756,58.622l-127.512,-0l63.756,-58.622Z" style="fill:#b2b2b2;"/><path d="M341.836,19.053l68.871,58.947l-137.741,-0l68.87,-58.947Z" style="fill:#8e8e8e;"/></g></g></g></g><g><path d="M86.898,66.542c0,-2.273 0.154,-4.527 0.462,-6.763c0.308,-2.235 0.577,-4.47 0.807,-6.705c0,-0.114 0.02,-0.37 0.058,-0.768c0.039,-0.397 0.087,-0.824 0.144,-1.278c0.058,-0.455 0.116,-0.881 0.173,-1.279c0.058,-0.398 0.087,-0.654 0.087,-0.767l-0,-0.228l2.422,-17.73c-0.077,-0.758 0.048,-1.431 0.375,-2.018c0.327,-0.587 0.933,-0.881 1.817,-0.881c0.962,-0.113 1.759,0.01 2.394,0.37c0.634,0.36 1.163,0.824 1.586,1.392c0.423,0.568 0.769,1.193 1.038,1.875c0.269,0.682 0.558,1.307 0.866,1.876c0.192,0.53 0.432,1.155 0.72,1.875c0.289,0.72 0.635,1.629 1.039,2.728c0.403,1.099 0.884,2.444 1.442,4.035c0.557,1.591 1.201,3.523 1.932,5.797l0.231,0.227c0.269,-0.152 0.778,-0.398 1.528,-0.739c0.75,-0.341 1.538,-0.701 2.365,-1.08c0.827,-0.379 1.605,-0.739 2.336,-1.079c0.731,-0.341 1.25,-0.569 1.557,-0.682c0.039,-0.076 0.145,-0.143 0.318,-0.199c0.173,-0.057 0.298,-0.105 0.375,-0.142l0.115,-0c0.384,-0 0.673,0.142 0.865,0.426c0.192,0.284 0.288,0.559 0.288,0.824c0,0.417 -0.096,0.777 -0.288,1.08c-0.192,0.303 -0.413,0.577 -0.663,0.824c-0.25,0.246 -0.519,0.483 -0.808,0.71c-0.288,0.227 -0.509,0.474 -0.663,0.739l-5.71,2.841c-0.154,0.19 -0.231,0.341 -0.231,0.455c-0,0.303 0.163,0.777 0.49,1.421c0.327,0.644 0.587,1.155 0.779,1.534l1.442,3.126c0.308,0.644 0.606,1.259 0.894,1.847c0.288,0.587 0.49,0.994 0.606,1.222l-0,0.17c-0,1.364 -0.693,2.046 -2.077,2.046c-0.423,-0 -0.865,-0.047 -1.326,-0.142c-0.462,-0.095 -0.808,-0.37 -1.039,-0.824l-3.864,-8.127l-0.519,0c-1.462,1.099 -3.019,2.179 -4.672,3.239c-1.654,1.061 -3.346,1.971 -5.076,2.728c-0.269,1.364 -0.433,2.747 -0.49,4.149c-0.058,1.402 -0.049,2.803 0.028,4.205c-0.307,0.417 -0.615,0.73 -0.922,0.938c-0.308,0.208 -0.731,0.313 -1.269,0.313c-0.539,-0 -0.943,-0.124 -1.212,-0.37c-0.269,-0.246 -0.461,-0.549 -0.576,-0.909c-0.116,-0.36 -0.174,-0.748 -0.174,-1.165l0,-1.137Zm5.134,-11.025c1.154,-0.454 2.278,-1.061 3.374,-1.818c1.096,-0.758 2.144,-1.459 3.144,-2.103c0.115,-0.076 0.259,-0.152 0.432,-0.227c0.173,-0.076 0.337,-0.171 0.491,-0.284c0.153,-0.114 0.346,-0.247 0.576,-0.398l0,-0.455l-5.306,-14.889l-0.231,-0.228c-0.115,0.228 -0.259,0.872 -0.432,1.933c-0.173,1.06 -0.366,2.434 -0.577,4.12c-0.212,1.686 -0.442,3.627 -0.692,5.825c-0.25,2.197 -0.51,4.546 -0.779,7.047l-0,1.477Z" style="fill:#474747;fill-rule:nonzero;"/><path d="M116.142,63.303c-0.269,-1.137 -0.26,-2.482 0.029,-4.035c0.288,-1.553 0.75,-3.116 1.384,-4.688c0.635,-1.573 1.423,-3.06 2.365,-4.462c0.942,-1.401 1.942,-2.519 2.999,-3.353c1.058,-0.833 2.134,-1.297 3.23,-1.392c1.096,-0.095 2.144,0.388 3.144,1.449c-0,0.038 0.019,0.133 0.057,0.284c0.039,0.152 0.077,0.465 0.116,0.938c0.038,0.474 0.067,1.137 0.086,1.989c0.02,0.853 0.029,2.018 0.029,3.495c0.039,0.076 0.087,0.199 0.144,0.37c0.058,0.17 0.087,0.293 0.087,0.369c-0.115,0.417 -0.337,0.805 -0.663,1.165c-0.327,0.36 -0.741,0.54 -1.24,0.54c-0.654,-0 -1.183,-0.104 -1.587,-0.313c-0.403,-0.208 -0.701,-0.71 -0.894,-1.506c0.077,-0.113 0.096,-0.35 0.058,-0.71c-0.038,-0.36 -0.106,-0.767 -0.202,-1.222c-0.096,-0.455 -0.183,-0.909 -0.259,-1.364c-0.077,-0.454 -0.116,-0.814 -0.116,-1.08c-0.038,0 -0.086,0.029 -0.144,0.086c-0.058,0.056 -0.106,0.104 -0.144,0.142c-0.654,1.136 -1.26,2.396 -1.817,3.779c-0.558,1.383 -0.981,2.785 -1.269,4.205c-0.288,1.421 -0.385,2.832 -0.288,4.234c0.096,1.402 0.509,2.671 1.24,3.808c0.538,-0 1.038,-0.218 1.499,-0.654c0.462,-0.435 0.846,-0.843 1.154,-1.222c0.654,-0.757 1.298,-1.534 1.932,-2.33c0.635,-0.795 1.221,-1.629 1.759,-2.5c0.231,-0.379 0.404,-0.72 0.519,-1.023c0.116,-0.303 0.26,-0.549 0.433,-0.739c0.173,-0.189 0.394,-0.341 0.663,-0.455c0.27,-0.113 0.673,-0.17 1.212,-0.17c0.615,-0 1.192,0.142 1.73,0.426c0.538,0.284 0.808,0.748 0.808,1.393c-0,0.871 -0.395,1.96 -1.183,3.267c-0.788,1.307 -1.749,2.567 -2.884,3.779c-1.134,1.213 -2.336,2.245 -3.605,3.098c-1.269,0.852 -2.384,1.278 -3.345,1.278c-0.923,0 -1.817,-0.18 -2.682,-0.54c-0.865,-0.359 -1.615,-0.842 -2.25,-1.449c-0.634,-0.606 -1.144,-1.326 -1.528,-2.159c-0.385,-0.834 -0.577,-1.743 -0.577,-2.728Z" style="fill:#474747;fill-rule:nonzero;"/><path d="M136.733,61.428l2.135,-14.606c0.076,-0.492 0.298,-0.852 0.663,-1.08c0.365,-0.227 0.779,-0.34 1.24,-0.34c0.846,-0 1.519,0.236 2.019,0.71c0.5,0.473 0.923,1.051 1.269,1.733l0.057,0c0.462,0 0.875,-0.085 1.241,-0.256c0.365,-0.17 0.817,-0.255 1.355,-0.255c1.23,-0 2.278,0.379 3.143,1.136c0.866,0.758 1.567,1.677 2.106,2.757c0.538,1.079 0.932,2.244 1.182,3.495c0.25,1.25 0.375,2.349 0.375,3.296c0,1.136 -0.298,2.406 -0.894,3.807c-0.596,1.402 -1.384,2.728 -2.365,3.978c-0.98,1.251 -2.086,2.293 -3.316,3.126c-1.231,0.834 -2.481,1.25 -3.749,1.25c-1.154,0 -2.144,-0.265 -2.971,-0.795c-0.827,-0.531 -1.5,-1.203 -2.019,-2.018c-0.519,-0.814 -0.894,-1.733 -1.124,-2.756c-0.231,-1.023 -0.347,-2.027 -0.347,-3.012l0,-0.17Zm4.846,0.341c0.076,0.378 0.153,0.814 0.23,1.307c0.077,0.492 0.192,0.937 0.346,1.335c0.154,0.398 0.375,0.701 0.664,0.909c0.288,0.209 0.701,0.218 1.24,0.029c0.5,-0.455 1.038,-0.966 1.615,-1.535c0.577,-0.568 1.124,-1.174 1.644,-1.818c0.519,-0.644 0.951,-1.326 1.297,-2.046c0.346,-0.72 0.52,-1.478 0.52,-2.273c0.153,-1.288 0.057,-2.472 -0.289,-3.552c-0.346,-1.08 -0.836,-1.857 -1.471,-2.33c-0.634,-0.474 -1.355,-0.531 -2.163,-0.171c-0.807,0.36 -1.615,1.336 -2.422,2.927c-0.462,0.985 -0.779,2.131 -0.952,3.438c-0.173,1.307 -0.259,2.51 -0.259,3.609l-0,0.171Z" style="fill:#474747;fill-rule:nonzero;"/><path d="M158.652,67.679c-0.077,-1.364 -0.202,-3.192 -0.375,-5.484c-0.173,-2.292 -0.366,-4.67 -0.577,-7.132c-0.212,-2.463 -0.433,-4.793 -0.663,-6.99c-0.231,-2.198 -0.423,-3.903 -0.577,-5.115c-0,-0.493 0.231,-0.815 0.692,-0.966c0.461,-0.152 0.904,-0.228 1.327,-0.228c0.538,0 1.105,0.152 1.701,0.455c0.596,0.303 0.971,0.72 1.125,1.25l0.288,4.092l0,0.824c0,0.095 0.019,0.199 0.058,0.313c0.038,0.113 0.096,0.303 0.173,0.568l0.461,-0.512c0.616,-0.871 1.212,-1.638 1.788,-2.301c0.577,-0.663 1.173,-1.288 1.789,-1.876c0.615,-0.587 1.297,-1.212 2.047,-1.875c0.75,-0.663 1.625,-1.43 2.625,-2.302c0.23,-0.189 0.403,-0.331 0.519,-0.426c0.115,-0.094 0.221,-0.17 0.317,-0.227c0.096,-0.057 0.202,-0.095 0.317,-0.114c0.115,-0.019 0.269,-0.028 0.462,-0.028c0.653,-0 1.317,0.218 1.99,0.653c0.672,0.436 1.009,1.033 1.009,1.791c-0,0.265 -0.096,0.539 -0.288,0.824c-0.193,0.284 -0.423,0.549 -0.693,0.795c-0.269,0.246 -0.548,0.464 -0.836,0.654c-0.288,0.189 -0.548,0.322 -0.779,0.398c-0.999,0.871 -2.057,1.865 -3.172,2.983c-1.115,1.118 -2.153,2.321 -3.115,3.609c-0.961,1.288 -1.749,2.633 -2.365,4.035c-0.615,1.402 -0.922,2.803 -0.922,4.205c-0,1.288 0.096,2.558 0.288,3.808c0.192,1.25 0.288,2.519 0.288,3.807l0,1.989c-0.307,0.304 -0.576,0.55 -0.807,0.739c-0.231,0.19 -0.558,0.284 -0.981,0.284c-0.653,0 -1.288,-0.274 -1.903,-0.824c-0.615,-0.549 -1.019,-1.108 -1.211,-1.676Z" style="fill:#474747;fill-rule:nonzero;"/><path d="M193.086,68.19c-0.538,-0.757 -0.99,-1.809 -1.355,-3.154c-0.366,-1.345 -0.712,-2.765 -1.039,-4.262c-0.326,-1.497 -0.624,-2.955 -0.894,-4.376c-0.269,-1.421 -0.547,-2.557 -0.836,-3.41c-0.288,-0.852 -0.606,-1.335 -0.952,-1.449c-0.346,-0.114 -0.749,0.398 -1.211,1.535l-5.018,15.23c-0.192,0.53 -0.423,0.9 -0.692,1.108c-0.269,0.209 -0.712,0.313 -1.327,0.313c-0.307,-0 -0.634,-0.048 -0.98,-0.142c-0.346,-0.095 -0.673,-0.237 -0.981,-0.427c-0.307,-0.189 -0.567,-0.416 -0.779,-0.682c-0.211,-0.265 -0.336,-0.568 -0.374,-0.909c0.115,-0.454 0.221,-1.288 0.317,-2.5c0.096,-1.213 0.163,-2.615 0.202,-4.206c0.038,-1.591 0.067,-3.267 0.086,-5.029c0.019,-1.762 0.019,-3.41 0,-4.944c-0.019,-1.535 -0.048,-2.861 -0.086,-3.978c-0.039,-1.118 -0.077,-1.847 -0.116,-2.188c0,-0.379 0.01,-0.768 0.029,-1.165c0.019,-0.398 0.077,-0.768 0.173,-1.109c0.096,-0.341 0.269,-0.615 0.519,-0.824c0.25,-0.208 0.644,-0.312 1.183,-0.312c0.73,-0 1.413,0.303 2.047,0.909c0.635,0.606 0.952,1.25 0.952,1.932c0,0.985 -0.048,1.961 -0.144,2.927c-0.096,0.966 -0.144,1.942 -0.144,2.927l-0,1.534c-0,0.417 0.077,0.928 0.23,1.535c0.116,-0.304 0.308,-0.834 0.577,-1.592c0.269,-0.757 0.567,-1.553 0.894,-2.387c0.327,-0.833 0.625,-1.619 0.894,-2.358c0.269,-0.739 0.462,-1.26 0.577,-1.563c0.269,-0.758 0.673,-1.487 1.211,-2.188c0.539,-0.701 1.25,-1.089 2.134,-1.165c0.577,-0.038 1.106,0.114 1.587,0.455c0.48,0.341 0.894,0.786 1.24,1.335c0.346,0.55 0.634,1.118 0.865,1.705c0.231,0.588 0.404,1.09 0.519,1.506l3.115,14.151l2.422,6.479c0.039,0.037 0.058,0.142 0.058,0.312l-0,0.369c-0,0.455 -0.106,0.9 -0.317,1.336c-0.212,0.436 -0.587,0.654 -1.125,0.654c-0.654,-0 -1.327,-0.18 -2.019,-0.54c-0.692,-0.36 -1.173,-0.824 -1.442,-1.393Z" style="fill:#474747;fill-rule:nonzero;"/><path d="M209.236,67.963c0,-0.189 0.01,-0.36 0.029,-0.511c0.019,-0.152 0.106,-0.304 0.26,-0.455c0.461,-0.568 0.98,-1.165 1.557,-1.79c0.577,-0.625 1.134,-1.251 1.673,-1.876c0.538,-0.625 1.038,-1.278 1.5,-1.96c0.461,-0.682 0.845,-1.364 1.153,-2.046l0,-0.341l-7.556,1.534l-0.865,0c-0.538,0 -1.202,-0.038 -1.99,-0.113c-0.788,-0.076 -1.557,-0.237 -2.307,-0.483c-0.75,-0.247 -1.385,-0.597 -1.904,-1.052c-0.519,-0.454 -0.778,-1.061 -0.778,-1.818c0.038,-0.872 0.5,-1.838 1.384,-2.899c0.884,-1.061 1.923,-2.102 3.115,-3.125c1.192,-1.023 2.393,-1.97 3.605,-2.842c1.211,-0.871 2.182,-1.553 2.912,-2.046c0.808,-0.454 1.769,-0.824 2.884,-1.108c1.116,-0.284 2.135,-0.426 3.057,-0.426c0.769,-0 1.442,0.142 2.019,0.426c0.577,0.284 0.865,0.843 0.865,1.677c0,0.341 -0.028,0.663 -0.086,0.966c-0.058,0.303 -0.298,0.511 -0.721,0.625c-1.231,-0.114 -2.384,-0.029 -3.461,0.256c-1.077,0.284 -2.096,0.71 -3.057,1.278c-0.961,0.569 -1.865,1.241 -2.711,2.018c-0.846,0.776 -1.673,1.581 -2.48,2.415c-0.231,0.265 -0.519,0.635 -0.865,1.108c-0.346,0.474 -0.519,0.748 -0.519,0.824l-0,0.057c0.999,0 1.99,-0.095 2.97,-0.284c0.981,-0.19 1.961,-0.388 2.942,-0.597c0.98,-0.208 1.961,-0.407 2.941,-0.597c0.981,-0.189 1.99,-0.284 3.029,-0.284c0.384,0 0.807,0.029 1.269,0.086c0.461,0.056 0.894,0.18 1.297,0.369c0.404,0.189 0.731,0.445 0.981,0.767c0.25,0.322 0.375,0.729 0.375,1.222c-0,0.72 -0.183,1.411 -0.548,2.074c-0.365,0.663 -0.904,1.459 -1.615,2.387c-0.712,0.928 -1.615,2.055 -2.711,3.382c-1.096,1.326 -2.394,3.03 -3.893,5.114c-0.077,0.114 -0.26,0.19 -0.548,0.228c-0.289,0.037 -0.529,0.056 -0.721,0.056c-0.539,0 -1.087,-0.227 -1.644,-0.682c-0.558,-0.454 -0.837,-0.966 -0.837,-1.534Z" style="fill:#474747;fill-rule:nonzero;"/><path d="M247.939,63.303c-0.269,-1.137 -0.259,-2.482 0.029,-4.035c0.288,-1.553 0.75,-3.116 1.384,-4.688c0.635,-1.573 1.423,-3.06 2.365,-4.462c0.942,-1.401 1.942,-2.519 3,-3.353c1.057,-0.833 2.134,-1.297 3.23,-1.392c1.096,-0.095 2.143,0.388 3.143,1.449c0,0.038 0.019,0.133 0.058,0.284c0.038,0.152 0.077,0.465 0.115,0.938c0.039,0.474 0.067,1.137 0.087,1.989c0.019,0.853 0.029,2.018 0.029,3.495c0.038,0.076 0.086,0.199 0.144,0.37c0.057,0.17 0.086,0.293 0.086,0.369c-0.115,0.417 -0.336,0.805 -0.663,1.165c-0.327,0.36 -0.74,0.54 -1.24,0.54c-0.654,-0 -1.183,-0.104 -1.586,-0.313c-0.404,-0.208 -0.702,-0.71 -0.894,-1.506c0.077,-0.113 0.096,-0.35 0.057,-0.71c-0.038,-0.36 -0.105,-0.767 -0.202,-1.222c-0.096,-0.455 -0.182,-0.909 -0.259,-1.364c-0.077,-0.454 -0.115,-0.814 -0.115,-1.08c-0.039,0 -0.087,0.029 -0.145,0.086c-0.057,0.056 -0.105,0.104 -0.144,0.142c-0.654,1.136 -1.259,2.396 -1.817,3.779c-0.557,1.383 -0.98,2.785 -1.269,4.205c-0.288,1.421 -0.384,2.832 -0.288,4.234c0.096,1.402 0.509,2.671 1.24,3.808c0.538,-0 1.038,-0.218 1.5,-0.654c0.461,-0.435 0.846,-0.843 1.153,-1.222c0.654,-0.757 1.298,-1.534 1.932,-2.33c0.635,-0.795 1.221,-1.629 1.76,-2.5c0.23,-0.379 0.403,-0.72 0.519,-1.023c0.115,-0.303 0.259,-0.549 0.432,-0.739c0.173,-0.189 0.395,-0.341 0.664,-0.455c0.269,-0.113 0.673,-0.17 1.211,-0.17c0.615,-0 1.192,0.142 1.73,0.426c0.539,0.284 0.808,0.748 0.808,1.393c-0,0.871 -0.394,1.96 -1.183,3.267c-0.788,1.307 -1.749,2.567 -2.884,3.779c-1.134,1.213 -2.336,2.245 -3.604,3.098c-1.269,0.852 -2.385,1.278 -3.346,1.278c-0.923,0 -1.817,-0.18 -2.682,-0.54c-0.865,-0.359 -1.615,-0.842 -2.249,-1.449c-0.635,-0.606 -1.144,-1.326 -1.529,-2.159c-0.384,-0.834 -0.577,-1.743 -0.577,-2.728Z" style="fill:#474747;fill-rule:nonzero;"/><path d="M268.531,61.428l2.134,-14.606c0.077,-0.492 0.298,-0.852 0.663,-1.08c0.366,-0.227 0.779,-0.34 1.24,-0.34c0.846,-0 1.519,0.236 2.019,0.71c0.5,0.473 0.923,1.051 1.269,1.733l0.058,0c0.461,0 0.875,-0.085 1.24,-0.256c0.365,-0.17 0.817,-0.255 1.355,-0.255c1.231,-0 2.279,0.379 3.144,1.136c0.865,0.758 1.567,1.677 2.105,2.757c0.538,1.079 0.933,2.244 1.183,3.495c0.249,1.25 0.374,2.349 0.374,3.296c0,1.136 -0.298,2.406 -0.894,3.807c-0.596,1.402 -1.384,2.728 -2.364,3.978c-0.981,1.251 -2.086,2.293 -3.317,3.126c-1.23,0.834 -2.48,1.25 -3.749,1.25c-1.154,0 -2.144,-0.265 -2.971,-0.795c-0.826,-0.531 -1.499,-1.203 -2.018,-2.018c-0.52,-0.814 -0.894,-1.733 -1.125,-2.756c-0.231,-1.023 -0.346,-2.027 -0.346,-3.012l-0,-0.17Zm4.845,0.341c0.077,0.378 0.154,0.814 0.231,1.307c0.076,0.492 0.192,0.937 0.346,1.335c0.153,0.398 0.375,0.701 0.663,0.909c0.288,0.209 0.702,0.218 1.24,0.029c0.5,-0.455 1.038,-0.966 1.615,-1.535c0.577,-0.568 1.125,-1.174 1.644,-1.818c0.519,-0.644 0.952,-1.326 1.298,-2.046c0.346,-0.72 0.519,-1.478 0.519,-2.273c0.154,-1.288 0.058,-2.472 -0.289,-3.552c-0.346,-1.08 -0.836,-1.857 -1.47,-2.33c-0.635,-0.474 -1.356,-0.531 -2.163,-0.171c-0.808,0.36 -1.615,1.336 -2.423,2.927c-0.461,0.985 -0.779,2.131 -0.952,3.438c-0.173,1.307 -0.259,2.51 -0.259,3.609l-0,0.171Z" style="fill:#474747;fill-rule:nonzero;"/><path d="M299.274,64.724c-0.269,0.568 -0.538,1.184 -0.808,1.847c-0.269,0.663 -0.576,1.259 -0.923,1.79c-0.346,0.53 -0.769,0.975 -1.268,1.335c-0.5,0.36 -1.135,0.54 -1.904,0.54c-1.346,0 -2.461,-0.331 -3.345,-0.994c-0.885,-0.663 -1.606,-1.497 -2.163,-2.501c-0.558,-1.004 -0.952,-2.093 -1.183,-3.268c-0.23,-1.174 -0.346,-2.273 -0.346,-3.296l0.462,-13.753c-0.039,-0.265 0.029,-0.539 0.202,-0.824c0.173,-0.284 0.403,-0.549 0.692,-0.795c0.288,-0.246 0.615,-0.445 0.98,-0.597c0.366,-0.151 0.702,-0.227 1.01,-0.227c0.884,-0 1.634,0.274 2.249,0.824c0.615,0.549 0.923,1.26 0.923,2.131l0,0.568c-0.423,0.682 -0.788,1.573 -1.096,2.671c-0.308,1.099 -0.548,2.283 -0.721,3.552c-0.173,1.269 -0.279,2.567 -0.317,3.893c-0.039,1.326 0.009,2.538 0.144,3.637c0.135,1.099 0.356,2.036 0.663,2.813c0.308,0.777 0.712,1.241 1.212,1.392c0.192,0 0.49,-0.094 0.894,-0.284c0.403,-0.189 0.836,-0.549 1.297,-1.079c0.462,-0.531 0.943,-1.279 1.442,-2.245c0.5,-0.966 0.943,-2.245 1.327,-3.836c0.385,-1.591 0.673,-3.524 0.865,-5.797c0.193,-2.273 0.25,-5.001 0.173,-8.183c0.154,-0.417 0.375,-0.644 0.664,-0.682c0.288,-0.038 0.586,-0.057 0.894,-0.057c0.346,-0 0.634,0.009 0.865,0.028c0.231,0.019 0.481,0.161 0.75,0.426c0.192,0.19 0.403,0.474 0.634,0.853c0.231,0.379 0.346,0.587 0.346,0.625l0.981,25.176c-0,0.568 -0.154,1.042 -0.462,1.42c-0.307,0.379 -0.749,0.569 -1.326,0.569c-0.193,-0 -0.423,-0.019 -0.692,-0.057c-0.27,-0.038 -0.539,-0.114 -0.808,-0.227c-0.269,-0.114 -0.509,-0.256 -0.721,-0.427c-0.211,-0.17 -0.336,-0.369 -0.375,-0.596l-0.98,-5.683l-0.231,-0.682Z" style="fill:#474747;fill-rule:nonzero;"/><path d="M324.48,68.19c-0.539,-0.757 -0.99,-1.809 -1.356,-3.154c-0.365,-1.345 -0.711,-2.765 -1.038,-4.262c-0.327,-1.497 -0.625,-2.955 -0.894,-4.376c-0.269,-1.421 -0.548,-2.557 -0.836,-3.41c-0.289,-0.852 -0.606,-1.335 -0.952,-1.449c-0.346,-0.114 -0.75,0.398 -1.211,1.535l-5.018,15.23c-0.193,0.53 -0.423,0.9 -0.693,1.108c-0.269,0.209 -0.711,0.313 -1.326,0.313c-0.308,-0 -0.635,-0.048 -0.981,-0.142c-0.346,-0.095 -0.673,-0.237 -0.98,-0.427c-0.308,-0.189 -0.567,-0.416 -0.779,-0.682c-0.211,-0.265 -0.336,-0.568 -0.375,-0.909c0.115,-0.454 0.221,-1.288 0.317,-2.5c0.097,-1.213 0.164,-2.615 0.202,-4.206c0.039,-1.591 0.068,-3.267 0.087,-5.029c0.019,-1.762 0.019,-3.41 -0,-4.944c-0.019,-1.535 -0.048,-2.861 -0.087,-3.978c-0.038,-1.118 -0.077,-1.847 -0.115,-2.188c-0,-0.379 0.01,-0.768 0.029,-1.165c0.019,-0.398 0.077,-0.768 0.173,-1.109c0.096,-0.341 0.269,-0.615 0.519,-0.824c0.25,-0.208 0.644,-0.312 1.182,-0.312c0.731,-0 1.413,0.303 2.048,0.909c0.634,0.606 0.952,1.25 0.952,1.932c-0,0.985 -0.048,1.961 -0.145,2.927c-0.096,0.966 -0.144,1.942 -0.144,2.927l0,1.534c0,0.417 0.077,0.928 0.231,1.535c0.115,-0.304 0.308,-0.834 0.577,-1.592c0.269,-0.757 0.567,-1.553 0.894,-2.387c0.327,-0.833 0.625,-1.619 0.894,-2.358c0.269,-0.739 0.461,-1.26 0.577,-1.563c0.269,-0.758 0.673,-1.487 1.211,-2.188c0.538,-0.701 1.25,-1.089 2.134,-1.165c0.577,-0.038 1.106,0.114 1.586,0.455c0.481,0.341 0.894,0.786 1.24,1.335c0.346,0.55 0.635,1.118 0.865,1.705c0.231,0.588 0.404,1.09 0.52,1.506l3.114,14.151l2.423,6.479c0.038,0.037 0.057,0.142 0.057,0.312l0,0.369c0,0.455 -0.105,0.9 -0.317,1.336c-0.211,0.436 -0.586,0.654 -1.124,0.654c-0.654,-0 -1.327,-0.18 -2.019,-0.54c-0.692,-0.36 -1.173,-0.824 -1.442,-1.393Z" style="fill:#474747;fill-rule:nonzero;"/><path d="M337.458,53.528c-0.539,0 -1.019,0.133 -1.442,0.398c-0.423,0.265 -0.923,0.398 -1.5,0.398l-1.211,-0.057c-0.154,-0.189 -0.327,-0.341 -0.519,-0.455c-0.193,-0.113 -0.385,-0.236 -0.577,-0.369c-0.192,-0.133 -0.356,-0.294 -0.49,-0.483c-0.135,-0.19 -0.202,-0.455 -0.202,-0.796c-0,-0.568 0.23,-1.032 0.692,-1.392c0.461,-0.36 1,-0.673 1.615,-0.938c0.615,-0.265 1.24,-0.511 1.874,-0.739c0.635,-0.227 1.144,-0.492 1.529,-0.795l-0,-2.501c-0,-2.803 -0.135,-5.616 -0.404,-8.439c-0.269,-2.822 -0.404,-5.617 -0.404,-8.382c0,-0.758 0.193,-1.251 0.577,-1.478c0.385,-0.227 0.904,-0.341 1.558,-0.341c0.769,0 1.336,0.218 1.701,0.654c0.365,0.435 0.625,0.966 0.779,1.591c0.154,0.625 0.23,1.288 0.23,1.989c0,0.701 0.02,1.298 0.058,1.79c0,0.493 0.039,1.364 0.115,2.614l0.462,7.956c0.077,1.251 0.135,2.122 0.173,2.615c0.154,-0.038 0.452,-0.142 0.894,-0.313c0.442,-0.17 0.913,-0.341 1.413,-0.511c0.5,-0.171 0.971,-0.332 1.413,-0.483c0.442,-0.152 0.76,-0.266 0.952,-0.341c1,-0.417 2.038,-0.881 3.115,-1.393c1.076,-0.511 2.172,-0.767 3.287,-0.767c0.769,0 1.356,0.256 1.76,0.767c0.403,0.512 0.605,1.108 0.605,1.79c0,0.493 -0.192,0.853 -0.577,1.08c-0.384,0.227 -0.788,0.436 -1.211,0.625l-10.497,3.865c-0.116,0.075 -0.231,0.142 -0.347,0.199c-0.115,0.056 -0.23,0.142 -0.346,0.255l0,1.819c0,1.326 0.029,2.699 0.087,4.12c0.058,1.421 0.183,2.794 0.375,4.12c0.192,1.137 0.404,2.254 0.634,3.353c0.231,1.099 0.346,2.217 0.346,3.353c0,0.341 -0.115,0.796 -0.346,1.364c-0.23,0.568 -0.596,0.853 -1.096,0.853c-1.038,-0 -1.884,-0.304 -2.538,-0.91c-0.653,-0.606 -1.019,-1.42 -1.095,-2.443c-0.193,-1.971 -0.395,-4.13 -0.606,-6.479c-0.212,-2.349 -0.413,-4.603 -0.606,-6.763l-0.23,0Z" style="fill:#474747;fill-rule:nonzero;"/></g></g></svg>