<?xml version="1.0" encoding="UTF-8" standalone="no"?><!DOCTYPE svg PUBLIC "-//W3C//DTD SVG 1.1//EN" "http://www.w3.org/Graphics/SVG/1.1/DTD/svg11.dtd"><svg width="100%" height="100%" viewBox="0 0 491 78" version="1.1" xmlns="http://www.w3.org/2000/svg" xmlns:xlink="http://www.w3.org/1999/xlink" xml:space="preserve" xmlns:serif="http://www.serif.com/" style="fill-rule:evenodd;clip-rule:evenodd;stroke-linejoin:round;stroke-miterlimit:2;"><g id="Layer2"><g><g><g><path d="M150.181,2.211l64.767,75.789l-129.535,0l64.768,-75.789Z" style="fill:#7f7f7f;"/><path d="M94.214,1.779l69.962,76.221l-139.924,0l69.962,-76.221Z" style="fill:#7f7f7f;"/></g><g><path d="M292.318,1.905l64.768,76.095l-129.535,0l64.767,-76.095Z" style="fill:#7f7f7f;"/><path d="M236.351,1.465l69.962,76.535l-139.924,0l69.962,-76.535Z" style="fill:#7f7f7f;"/></g><g><path d="M425.691,0.431l64.767,77.569l-129.534,0l64.767,-77.569Z" style="fill:#7f7f7f;"/><path d="M369.724,0l69.962,78l-139.924,0l69.962,-78Z" style="fill:#7f7f7f;"/></g></g><g><g><path d="M125.929,10.779l64.767,67.221l-129.534,0l64.767,-67.221Z" style="fill:#898989;"/><path d="M69.962,10.396l69.962,67.604l-139.924,0l69.962,-67.604Z" style="fill:#848484;"/></g><g><path d="M268.067,10.507l64.767,67.493l-129.535,0l64.768,-67.493Z" style="fill:#898989;"/><path d="M212.1,10.116l69.962,67.884l-139.924,0l69.962,-67.884Z" style="fill:#848484;"/></g><g><path d="M401.439,9.199l64.767,68.801l-129.534,0l64.767,-68.801Z" style="fill:#898989;"/><path d="M345.472,8.817l69.962,69.183l-139.924,0l69.962,-69.183Z" style="fill:#848484;"/></g></g></g><g><path d="M60.97,51.862l-0.261,-0.221c-0.262,0.884 -0.414,1.767 -0.458,2.651c-0.043,0.883 -0.087,1.785 -0.13,2.706c0,0.294 -0.011,0.791 -0.033,1.491l-0.196,4.5c-0.022,0.718 -0.033,1.206 -0.033,1.464c-0.131,0.442 -0.414,0.828 -0.85,1.159c-0.436,0.332 -0.937,0.497 -1.503,0.497c-0.218,0 -0.491,-0.027 -0.818,-0.082c-0.326,-0.056 -0.653,-0.129 -0.98,-0.221c-0.327,-0.092 -0.632,-0.212 -0.915,-0.359c-0.284,-0.147 -0.447,-0.313 -0.491,-0.497l-4.118,-12.204l-3.007,-9.996c-0.044,-0.036 -0.131,-0.165 -0.262,-0.386c-0.131,-0.221 -0.261,-0.47 -0.392,-0.746c-0.131,-0.276 -0.251,-0.543 -0.36,-0.8c-0.109,-0.258 -0.163,-0.461 -0.163,-0.608c0,-0.515 0.294,-0.929 0.883,-1.242c0.588,-0.313 1.122,-0.47 1.601,-0.47c1.613,0 2.637,0.571 3.073,1.712l3.595,10.989c0.218,-0.073 0.36,-0.276 0.425,-0.607l0.196,-1.16c0.066,-0.331 0.185,-0.911 0.36,-1.739c0.174,-0.829 0.425,-1.961 0.752,-3.396c0.326,-1.436 0.773,-3.277 1.34,-5.523c0.348,-0.368 0.762,-0.616 1.242,-0.745c0.479,-0.129 1.024,-0.193 1.634,-0.193c0.567,0 1.013,0.073 1.34,0.22c0.327,0.148 0.556,0.479 0.687,0.994l4.445,15.794l0.523,1.215l0.85,-5.992c0.131,-0.902 0.261,-1.859 0.392,-2.871c0.131,-1.013 0.305,-2.181 0.523,-3.507c0.218,-1.325 0.48,-2.89 0.785,-4.694c0.305,-1.804 0.675,-3.957 1.111,-6.461c0.131,-0.736 0.512,-1.196 1.144,-1.38c0.632,-0.184 1.34,-0.276 2.125,-0.276c0.043,0 0.141,0.027 0.294,0.082c0.152,0.056 0.25,0.102 0.294,0.138l1.046,0.221c0.174,0.332 0.327,0.617 0.458,0.856c0.13,0.24 0.196,0.506 0.196,0.801c-0.087,-0.368 -0.24,-0.202 -0.458,0.497c-0.218,0.7 -0.49,1.841 -0.817,3.424c-0.327,1.583 -0.676,3.543 -1.046,5.881c-0.371,2.338 -0.73,4.97 -1.079,7.897c-0.348,2.927 -0.664,6.093 -0.948,9.498c-0.283,3.405 -0.512,6.93 -0.686,10.575c-0.131,0 -0.349,-0.018 -0.654,-0.055c-0.305,-0.037 -0.621,-0.092 -0.948,-0.166c-0.327,-0.073 -0.621,-0.165 -0.882,-0.276c-0.262,-0.11 -0.436,-0.258 -0.523,-0.442l-8.303,-17.947Z" style="fill:#474747;fill-rule:nonzero;"/><path d="M95.618,55.341c-0.392,0.589 -0.839,1.298 -1.34,2.126c-0.501,0.828 -1.035,1.712 -1.602,2.651c-0.566,0.939 -1.187,1.877 -1.863,2.816c-0.675,0.939 -1.373,1.795 -2.092,2.568c-0.719,0.773 -1.471,1.427 -2.255,1.96c-0.785,0.534 -1.591,0.856 -2.419,0.967c-0.349,0 -0.741,-0.028 -1.177,-0.083c-0.435,-0.055 -0.871,-0.147 -1.307,-0.276c-0.436,-0.129 -0.795,-0.313 -1.079,-0.552c-0.283,-0.24 -0.425,-0.562 -0.425,-0.967c0.044,-3.755 0.371,-7.169 0.981,-10.244c0.61,-3.074 1.569,-5.779 2.876,-8.117c1.308,-2.338 2.986,-4.28 5.034,-5.826c2.048,-1.546 4.533,-2.651 7.453,-3.314c0.087,0 0.25,-0.009 0.49,-0.027c0.24,-0.019 0.403,-0.028 0.49,-0.028c1.308,-0.037 2.256,0.47 2.844,1.519c0.588,1.049 1.024,2.706 1.307,4.97c0.284,2.264 0.48,5.172 0.589,8.725c0.109,3.553 0.337,7.814 0.686,12.784c0.131,0.405 0.207,0.755 0.229,1.049c0.022,0.295 0.033,0.645 0.033,1.049c0,0.553 -0.196,0.967 -0.589,1.243c-0.392,0.276 -0.893,0.414 -1.503,0.414c-1.264,0 -2.158,-0.294 -2.681,-0.883c-0.523,-0.589 -0.871,-1.381 -1.046,-2.375c0,-0.037 -0.032,-0.331 -0.098,-0.884c-0.065,-0.552 -0.152,-1.187 -0.261,-1.905c-0.109,-0.718 -0.207,-1.445 -0.294,-2.181c-0.087,-0.736 -0.153,-1.344 -0.196,-1.822l0,-0.221c-0.088,-0.368 -0.142,-0.829 -0.164,-1.381c-0.022,-0.552 -0.076,-1.086 -0.163,-1.601c-0.087,-0.626 -0.153,-1.252 -0.196,-1.878l-0.262,-0.276Zm-1.438,-10.934c-1.177,0.736 -2.332,1.73 -3.465,2.982c-1.133,1.252 -1.939,2.467 -2.419,3.645c-0.218,0.552 -0.457,1.307 -0.719,2.264c-0.261,0.957 -0.49,1.905 -0.686,2.844c-0.196,0.939 -0.36,1.804 -0.49,2.595c-0.131,0.792 -0.197,1.298 -0.197,1.519c0.044,0 0.098,-0.037 0.164,-0.111c0.065,-0.073 0.12,-0.128 0.163,-0.165c2.702,-2.209 4.609,-4.593 5.72,-7.152c1.112,-2.558 1.755,-5.365 1.929,-8.421Z" style="fill:#474747;fill-rule:nonzero;"/><path d="M106.993,66.883c0,-1.547 0.044,-3.056 0.131,-4.529c0.087,-1.472 0.131,-2.982 0.131,-4.528c-0.131,-4.197 -0.175,-8.311 -0.131,-12.342c0.043,-4.031 -0.175,-8.164 -0.654,-12.398c0,-0.699 0.196,-1.168 0.588,-1.408c0.393,-0.239 0.981,-0.359 1.765,-0.359c1.003,0 1.864,0.249 2.583,0.746c0.719,0.497 1.1,1.187 1.144,2.071c-0.087,5.227 -0.011,10.409 0.229,15.545c0.239,5.135 0.359,10.336 0.359,15.6l0,4.252c-0.261,0.295 -0.632,0.589 -1.111,0.884c-0.48,0.294 -0.959,0.405 -1.438,0.331c-1.264,-0.184 -2.18,-0.616 -2.746,-1.298c-0.567,-0.681 -0.85,-1.537 -0.85,-2.567Z" style="fill:#474747;fill-rule:nonzero;"/><path d="M135.103,68.871c-0.61,-0.737 -1.122,-1.758 -1.536,-3.065c-0.414,-1.307 -0.806,-2.688 -1.177,-4.142c-0.37,-1.454 -0.708,-2.872 -1.013,-4.252c-0.305,-1.381 -0.621,-2.485 -0.948,-3.313c-0.327,-0.829 -0.686,-1.298 -1.078,-1.409c-0.393,-0.11 -0.85,0.387 -1.373,1.491l-5.688,14.8c-0.218,0.515 -0.479,0.874 -0.784,1.077c-0.305,0.202 -0.806,0.304 -1.504,0.304c-0.348,0 -0.719,-0.046 -1.111,-0.138c-0.392,-0.092 -0.763,-0.231 -1.111,-0.415c-0.349,-0.184 -0.643,-0.405 -0.883,-0.662c-0.24,-0.258 -0.381,-0.553 -0.425,-0.884c0.131,-0.442 0.251,-1.252 0.36,-2.43c0.109,-1.178 0.185,-2.54 0.228,-4.086c0.044,-1.546 0.077,-3.175 0.099,-4.887c0.021,-1.712 0.021,-3.314 0,-4.805c-0.022,-1.491 -0.055,-2.779 -0.099,-3.865c-0.043,-1.086 -0.087,-1.795 -0.13,-2.126c0,-0.368 0.011,-0.746 0.032,-1.132c0.022,-0.387 0.088,-0.746 0.197,-1.077c0.108,-0.332 0.305,-0.598 0.588,-0.801c0.283,-0.202 0.73,-0.304 1.34,-0.304c0.828,0 1.602,0.295 2.321,0.884c0.719,0.589 1.078,1.215 1.078,1.878c0,0.957 -0.054,1.905 -0.163,2.843c-0.109,0.939 -0.163,1.887 -0.163,2.844l0,1.491c0,0.405 0.087,0.902 0.261,1.491c0.131,-0.294 0.349,-0.81 0.654,-1.546c0.305,-0.736 0.643,-1.509 1.013,-2.319c0.37,-0.81 0.708,-1.574 1.013,-2.292c0.305,-0.718 0.523,-1.224 0.654,-1.518c0.305,-0.737 0.763,-1.445 1.373,-2.127c0.61,-0.681 1.416,-1.058 2.419,-1.132c0.653,-0.036 1.253,0.111 1.797,0.442c0.545,0.331 1.014,0.764 1.406,1.298c0.392,0.534 0.719,1.086 0.981,1.657c0.261,0.57 0.457,1.058 0.588,1.463l3.53,13.75l2.746,6.296c0.043,0.037 0.065,0.138 0.065,0.303l0,0.359c0,0.442 -0.12,0.875 -0.359,1.298c-0.24,0.423 -0.665,0.635 -1.275,0.635c-0.741,0 -1.504,-0.175 -2.288,-0.524c-0.785,-0.35 -1.33,-0.801 -1.635,-1.353Z" style="fill:#474747;fill-rule:nonzero;"/><path d="M156.48,65.502c-0.305,0.552 -0.61,1.15 -0.915,1.795c-0.305,0.644 -0.654,1.224 -1.046,1.739c-0.392,0.516 -0.871,0.948 -1.438,1.298c-0.567,0.35 -1.286,0.525 -2.157,0.525c-1.526,0 -2.79,-0.323 -3.792,-0.967c-1.002,-0.644 -1.82,-1.454 -2.451,-2.43c-0.632,-0.975 -1.079,-2.034 -1.341,-3.175c-0.261,-1.141 -0.392,-2.209 -0.392,-3.203l0.523,-13.364c-0.043,-0.257 0.033,-0.524 0.229,-0.8c0.196,-0.276 0.458,-0.534 0.784,-0.773c0.327,-0.24 0.698,-0.433 1.112,-0.58c0.414,-0.148 0.795,-0.221 1.144,-0.221c1.002,0 1.852,0.267 2.549,0.801c0.698,0.533 1.046,1.224 1.046,2.07l0,0.553c-0.479,0.662 -0.893,1.527 -1.242,2.595c-0.348,1.068 -0.621,2.218 -0.817,3.451c-0.196,1.234 -0.316,2.495 -0.359,3.783c-0.044,1.289 0.01,2.467 0.163,3.534c0.152,1.068 0.403,1.979 0.752,2.734c0.348,0.755 0.806,1.206 1.373,1.353c0.217,0 0.555,-0.092 1.013,-0.276c0.457,-0.184 0.948,-0.534 1.471,-1.049c0.523,-0.516 1.067,-1.243 1.634,-2.182c0.567,-0.938 1.068,-2.181 1.504,-3.727c0.435,-1.546 0.762,-3.424 0.98,-5.633c0.218,-2.209 0.284,-4.859 0.196,-7.952c0.175,-0.405 0.425,-0.626 0.752,-0.663c0.327,-0.036 0.665,-0.055 1.013,-0.055c0.393,0 0.72,0.009 0.981,0.028c0.262,0.018 0.545,0.156 0.85,0.414c0.218,0.184 0.457,0.46 0.719,0.828c0.261,0.368 0.392,0.571 0.392,0.608l1.112,24.463c0,0.552 -0.175,1.013 -0.523,1.381c-0.349,0.368 -0.85,0.552 -1.504,0.552c-0.218,0 -0.479,-0.018 -0.784,-0.055c-0.306,-0.037 -0.611,-0.111 -0.916,-0.221c-0.305,-0.111 -0.577,-0.249 -0.817,-0.414c-0.24,-0.166 -0.381,-0.359 -0.425,-0.58l-1.111,-5.522l-0.262,-0.663Z" style="fill:#474747;fill-rule:nonzero;"/><path d="M172.693,54.623c-0.61,0 -1.155,0.129 -1.634,0.387c-0.48,0.257 -1.046,0.386 -1.7,0.386c-0.087,0 -0.316,-0.009 -0.687,-0.027c-0.37,-0.019 -0.599,-0.028 -0.686,-0.028c-0.174,-0.184 -0.37,-0.331 -0.588,-0.442c-0.218,-0.11 -0.436,-0.23 -0.654,-0.359c-0.218,-0.128 -0.403,-0.285 -0.556,-0.469c-0.152,-0.184 -0.229,-0.442 -0.229,-0.773c0,-0.552 0.262,-1.003 0.785,-1.353c0.523,-0.35 1.133,-0.654 1.83,-0.911c0.698,-0.258 1.406,-0.497 2.125,-0.718c0.719,-0.221 1.297,-0.479 1.732,-0.773l0,-2.43c0,-2.724 -0.152,-5.458 -0.457,-8.201c-0.305,-2.742 -0.458,-5.457 -0.458,-8.145c0,-0.736 0.218,-1.215 0.654,-1.436c0.436,-0.221 1.024,-0.331 1.765,-0.331c0.872,0 1.514,0.212 1.928,0.635c0.414,0.423 0.709,0.939 0.883,1.546c0.174,0.608 0.261,1.252 0.261,1.933c0,0.681 0.022,1.261 0.066,1.74c0,0.478 0.043,1.325 0.131,2.54l0.523,7.731c0.087,1.215 0.152,2.062 0.196,2.54c0.174,-0.037 0.512,-0.138 1.013,-0.304c0.501,-0.165 1.035,-0.331 1.602,-0.497c0.566,-0.165 1.1,-0.322 1.601,-0.469c0.501,-0.147 0.861,-0.258 1.079,-0.331c1.133,-0.405 2.31,-0.856 3.53,-1.353c1.22,-0.497 2.462,-0.746 3.726,-0.746c0.872,0 1.537,0.249 1.994,0.746c0.458,0.497 0.687,1.077 0.687,1.739c0,0.479 -0.218,0.829 -0.654,1.05c-0.436,0.22 -0.894,0.423 -1.373,0.607l-11.898,3.755c-0.131,0.074 -0.261,0.138 -0.392,0.193c-0.131,0.056 -0.262,0.138 -0.392,0.249l0,1.767c0,1.289 0.032,2.623 0.098,4.004c0.065,1.38 0.207,2.715 0.425,4.003c0.218,1.105 0.457,2.191 0.719,3.258c0.261,1.068 0.392,2.154 0.392,3.258c0,0.332 -0.131,0.774 -0.392,1.326c-0.262,0.552 -0.676,0.828 -1.242,0.828c-1.177,0 -2.136,-0.294 -2.877,-0.883c-0.741,-0.589 -1.155,-1.381 -1.242,-2.375c-0.218,-1.914 -0.447,-4.013 -0.686,-6.295c-0.24,-2.283 -0.469,-4.473 -0.687,-6.572l-0.261,0Z" style="fill:#474747;fill-rule:nonzero;"/><path d="M205.118,68.65c0,-0.184 0.011,-0.35 0.033,-0.497c0.021,-0.148 0.119,-0.295 0.294,-0.442c0.523,-0.552 1.111,-1.132 1.765,-1.74c0.654,-0.607 1.285,-1.214 1.896,-1.822c0.61,-0.607 1.176,-1.242 1.699,-1.905c0.523,-0.663 0.959,-1.325 1.308,-1.988l0,-0.331l-8.564,1.491l-0.981,0c-0.61,0 -1.362,-0.037 -2.255,-0.111c-0.893,-0.074 -1.765,-0.23 -2.615,-0.469c-0.85,-0.24 -1.569,-0.58 -2.157,-1.022c-0.589,-0.442 -0.883,-1.031 -0.883,-1.767c0.044,-0.847 0.567,-1.786 1.569,-2.816c1.003,-1.031 2.179,-2.044 3.53,-3.038c1.351,-0.994 2.713,-1.914 4.086,-2.761c1.373,-0.846 2.473,-1.509 3.301,-1.988c0.916,-0.441 2.005,-0.8 3.269,-1.077c1.264,-0.276 2.419,-0.414 3.465,-0.414c0.872,0 1.634,0.138 2.288,0.414c0.654,0.277 0.981,0.82 0.981,1.63c0,0.331 -0.033,0.644 -0.099,0.938c-0.065,0.295 -0.337,0.497 -0.817,0.608c-1.394,-0.111 -2.702,-0.028 -3.922,0.248c-1.22,0.276 -2.375,0.691 -3.465,1.243c-1.089,0.552 -2.114,1.205 -3.072,1.96c-0.959,0.755 -1.896,1.537 -2.811,2.347c-0.262,0.258 -0.589,0.617 -0.981,1.077c-0.392,0.46 -0.588,0.727 -0.588,0.801l0,0.055c1.133,0 2.255,-0.092 3.366,-0.276c1.112,-0.184 2.223,-0.378 3.334,-0.58c1.112,-0.203 2.223,-0.396 3.334,-0.58c1.112,-0.184 2.256,-0.276 3.432,-0.276c0.436,0 0.916,0.028 1.439,0.083c0.523,0.055 1.013,0.175 1.471,0.359c0.457,0.184 0.828,0.432 1.111,0.745c0.283,0.313 0.425,0.709 0.425,1.188c0,0.699 -0.207,1.371 -0.621,2.015c-0.414,0.644 -1.024,1.418 -1.831,2.32c-0.806,0.901 -1.83,1.997 -3.072,3.285c-1.242,1.289 -2.713,2.945 -4.413,4.97c-0.087,0.111 -0.294,0.184 -0.621,0.221c-0.327,0.037 -0.599,0.055 -0.817,0.055c-0.61,0 -1.231,-0.221 -1.863,-0.662c-0.632,-0.442 -0.948,-0.939 -0.948,-1.491Z" style="fill:#474747;fill-rule:nonzero;"/><path d="M248.983,64.121c-0.305,-1.104 -0.294,-2.411 0.033,-3.92c0.327,-1.51 0.85,-3.028 1.569,-4.556c0.719,-1.528 1.612,-2.973 2.68,-4.335c1.068,-1.362 2.201,-2.448 3.399,-3.258c1.199,-0.81 2.419,-1.261 3.661,-1.353c1.242,-0.092 2.43,0.377 3.563,1.408c0,0.037 0.022,0.129 0.066,0.276c0.043,0.147 0.087,0.451 0.13,0.911c0.044,0.46 0.077,1.105 0.098,1.933c0.022,0.828 0.033,1.96 0.033,3.396c0.044,0.074 0.098,0.193 0.164,0.359c0.065,0.166 0.098,0.285 0.098,0.359c-0.131,0.405 -0.382,0.782 -0.752,1.132c-0.371,0.35 -0.839,0.525 -1.406,0.525c-0.741,0 -1.34,-0.101 -1.797,-0.304c-0.458,-0.202 -0.796,-0.69 -1.014,-1.463c0.087,-0.111 0.109,-0.341 0.066,-0.691c-0.044,-0.349 -0.12,-0.745 -0.229,-1.187c-0.109,-0.442 -0.207,-0.883 -0.294,-1.325c-0.088,-0.442 -0.131,-0.792 -0.131,-1.049c-0.044,0 -0.098,0.027 -0.164,0.082c-0.065,0.056 -0.119,0.102 -0.163,0.138c-0.741,1.105 -1.427,2.329 -2.059,3.673c-0.632,1.343 -1.112,2.706 -1.438,4.086c-0.327,1.381 -0.436,2.752 -0.327,4.114c0.109,1.362 0.577,2.596 1.405,3.7c0.61,0 1.177,-0.212 1.7,-0.635c0.523,-0.423 0.959,-0.819 1.307,-1.187c0.741,-0.737 1.471,-1.491 2.19,-2.264c0.719,-0.773 1.384,-1.583 1.994,-2.43c0.262,-0.368 0.458,-0.7 0.589,-0.994c0.13,-0.295 0.294,-0.534 0.49,-0.718c0.196,-0.184 0.447,-0.331 0.752,-0.442c0.305,-0.11 0.762,-0.165 1.373,-0.165c0.697,0 1.351,0.138 1.961,0.414c0.61,0.276 0.915,0.727 0.915,1.353c0,0.846 -0.447,1.905 -1.34,3.175c-0.894,1.27 -1.983,2.494 -3.269,3.672c-1.286,1.178 -2.647,2.182 -4.086,3.01c-1.438,0.828 -2.702,1.242 -3.791,1.242c-1.046,0 -2.06,-0.174 -3.04,-0.524c-0.981,-0.35 -1.831,-0.819 -2.55,-1.408c-0.719,-0.589 -1.296,-1.289 -1.732,-2.099c-0.436,-0.81 -0.654,-1.693 -0.654,-2.651Z" style="fill:#474747;fill-rule:nonzero;"/><path d="M272.321,62.299l2.419,-14.192c0.087,-0.479 0.338,-0.828 0.752,-1.049c0.414,-0.221 0.882,-0.332 1.405,-0.332c0.959,0 1.722,0.23 2.288,0.691c0.567,0.46 1.046,1.021 1.439,1.684l0.065,0c0.523,0 0.992,-0.083 1.406,-0.249c0.414,-0.165 0.926,-0.248 1.536,-0.248c1.394,0 2.582,0.368 3.563,1.104c0.98,0.737 1.776,1.629 2.386,2.679c0.61,1.049 1.057,2.181 1.34,3.396c0.283,1.215 0.425,2.282 0.425,3.203c0,1.104 -0.338,2.338 -1.013,3.7c-0.676,1.362 -1.569,2.65 -2.681,3.865c-1.111,1.215 -2.364,2.228 -3.759,3.037c-1.394,0.81 -2.811,1.215 -4.249,1.215c-1.307,0 -2.43,-0.257 -3.367,-0.773c-0.937,-0.515 -1.699,-1.169 -2.288,-1.96c-0.588,-0.792 -1.013,-1.684 -1.274,-2.678c-0.262,-0.994 -0.393,-1.97 -0.393,-2.927l0,-0.166Zm5.492,0.331c0.087,0.369 0.174,0.792 0.261,1.271c0.087,0.478 0.218,0.911 0.392,1.297c0.175,0.387 0.425,0.681 0.752,0.884c0.327,0.202 0.796,0.212 1.406,0.027c0.566,-0.441 1.176,-0.938 1.83,-1.491c0.654,-0.552 1.275,-1.141 1.863,-1.767c0.589,-0.626 1.079,-1.288 1.471,-1.988c0.392,-0.699 0.589,-1.435 0.589,-2.209c0.174,-1.251 0.065,-2.402 -0.327,-3.451c-0.393,-1.049 -0.948,-1.804 -1.667,-2.264c-0.719,-0.46 -1.537,-0.515 -2.452,-0.166c-0.915,0.35 -1.83,1.298 -2.746,2.844c-0.522,0.957 -0.882,2.071 -1.078,3.341c-0.196,1.27 -0.294,2.439 -0.294,3.507l0,0.165Z" style="fill:#474747;fill-rule:nonzero;"/><path d="M307.165,65.502c-0.305,0.552 -0.61,1.15 -0.915,1.795c-0.305,0.644 -0.654,1.224 -1.046,1.739c-0.392,0.516 -0.872,0.948 -1.438,1.298c-0.567,0.35 -1.286,0.525 -2.158,0.525c-1.525,0 -2.789,-0.323 -3.791,-0.967c-1.003,-0.644 -1.82,-1.454 -2.452,-2.43c-0.632,-0.975 -1.078,-2.034 -1.34,-3.175c-0.261,-1.141 -0.392,-2.209 -0.392,-3.203l0.523,-13.364c-0.044,-0.257 0.033,-0.524 0.229,-0.8c0.196,-0.276 0.457,-0.534 0.784,-0.773c0.327,-0.24 0.698,-0.433 1.112,-0.58c0.414,-0.148 0.795,-0.221 1.144,-0.221c1.002,0 1.852,0.267 2.549,0.801c0.697,0.533 1.046,1.224 1.046,2.07l0,0.553c-0.479,0.662 -0.893,1.527 -1.242,2.595c-0.349,1.068 -0.621,2.218 -0.817,3.451c-0.196,1.234 -0.316,2.495 -0.36,3.783c-0.043,1.289 0.011,2.467 0.164,3.534c0.152,1.068 0.403,1.979 0.751,2.734c0.349,0.755 0.807,1.206 1.373,1.353c0.218,0 0.556,-0.092 1.014,-0.276c0.457,-0.184 0.948,-0.534 1.471,-1.049c0.522,-0.516 1.067,-1.243 1.634,-2.182c0.566,-0.938 1.068,-2.181 1.503,-3.727c0.436,-1.546 0.763,-3.424 0.981,-5.633c0.218,-2.209 0.283,-4.859 0.196,-7.952c0.174,-0.405 0.425,-0.626 0.752,-0.663c0.327,-0.036 0.665,-0.055 1.013,-0.055c0.392,0 0.719,0.009 0.981,0.028c0.261,0.018 0.545,0.156 0.85,0.414c0.218,0.184 0.457,0.46 0.719,0.828c0.261,0.368 0.392,0.571 0.392,0.608l1.111,24.463c0,0.552 -0.174,1.013 -0.523,1.381c-0.348,0.368 -0.85,0.552 -1.503,0.552c-0.218,0 -0.48,-0.018 -0.785,-0.055c-0.305,-0.037 -0.61,-0.111 -0.915,-0.221c-0.305,-0.111 -0.577,-0.249 -0.817,-0.414c-0.24,-0.166 -0.381,-0.359 -0.425,-0.58l-1.111,-5.522l-0.262,-0.663Z" style="fill:#474747;fill-rule:nonzero;"/><path d="M335.733,68.871c-0.61,-0.737 -1.122,-1.758 -1.536,-3.065c-0.414,-1.307 -0.806,-2.688 -1.177,-4.142c-0.37,-1.454 -0.708,-2.872 -1.013,-4.252c-0.305,-1.381 -0.621,-2.485 -0.948,-3.313c-0.327,-0.829 -0.686,-1.298 -1.079,-1.409c-0.392,-0.11 -0.85,0.387 -1.373,1.491l-5.687,14.8c-0.218,0.515 -0.479,0.874 -0.784,1.077c-0.306,0.202 -0.807,0.304 -1.504,0.304c-0.349,0 -0.719,-0.046 -1.111,-0.138c-0.393,-0.092 -0.763,-0.231 -1.112,-0.415c-0.348,-0.184 -0.643,-0.405 -0.882,-0.662c-0.24,-0.258 -0.382,-0.553 -0.425,-0.884c0.131,-0.442 0.25,-1.252 0.359,-2.43c0.109,-1.178 0.186,-2.54 0.229,-4.086c0.044,-1.546 0.076,-3.175 0.098,-4.887c0.022,-1.712 0.022,-3.314 0,-4.805c-0.022,-1.491 -0.054,-2.779 -0.098,-3.865c-0.043,-1.086 -0.087,-1.795 -0.131,-2.126c0,-0.368 0.011,-0.746 0.033,-1.132c0.022,-0.387 0.087,-0.746 0.196,-1.077c0.109,-0.332 0.305,-0.598 0.589,-0.801c0.283,-0.202 0.73,-0.304 1.34,-0.304c0.828,0 1.601,0.295 2.32,0.884c0.72,0.589 1.079,1.215 1.079,1.878c0,0.957 -0.054,1.905 -0.163,2.843c-0.109,0.939 -0.164,1.887 -0.164,2.844l0,1.491c0,0.405 0.087,0.902 0.262,1.491c0.131,-0.294 0.348,-0.81 0.654,-1.546c0.305,-0.736 0.642,-1.509 1.013,-2.319c0.37,-0.81 0.708,-1.574 1.013,-2.292c0.305,-0.718 0.523,-1.224 0.654,-1.518c0.305,-0.737 0.762,-1.445 1.373,-2.127c0.61,-0.681 1.416,-1.058 2.418,-1.132c0.654,-0.036 1.253,0.111 1.798,0.442c0.545,0.331 1.013,0.764 1.406,1.298c0.392,0.534 0.719,1.086 0.98,1.657c0.262,0.57 0.458,1.058 0.589,1.463l3.53,13.75l2.745,6.296c0.044,0.037 0.066,0.138 0.066,0.303l0,0.359c0,0.442 -0.12,0.875 -0.36,1.298c-0.239,0.423 -0.664,0.635 -1.274,0.635c-0.741,0 -1.504,-0.175 -2.289,-0.524c-0.784,-0.35 -1.329,-0.801 -1.634,-1.353Z" style="fill:#474747;fill-rule:nonzero;"/><path d="M350.442,54.623c-0.61,0 -1.155,0.129 -1.634,0.387c-0.48,0.257 -1.046,0.386 -1.7,0.386c-0.087,0 -0.316,-0.009 -0.686,-0.027c-0.371,-0.019 -0.6,-0.028 -0.687,-0.028c-0.174,-0.184 -0.37,-0.331 -0.588,-0.442c-0.218,-0.11 -0.436,-0.23 -0.654,-0.359c-0.218,-0.128 -0.403,-0.285 -0.556,-0.469c-0.152,-0.184 -0.228,-0.442 -0.228,-0.773c0,-0.552 0.261,-1.003 0.784,-1.353c0.523,-0.35 1.133,-0.654 1.831,-0.911c0.697,-0.258 1.405,-0.497 2.124,-0.718c0.719,-0.221 1.297,-0.479 1.733,-0.773l0,-2.43c0,-2.724 -0.153,-5.458 -0.458,-8.201c-0.305,-2.742 -0.458,-5.457 -0.458,-8.145c0,-0.736 0.218,-1.215 0.654,-1.436c0.436,-0.221 1.024,-0.331 1.765,-0.331c0.872,0 1.515,0.212 1.929,0.635c0.414,0.423 0.708,0.939 0.882,1.546c0.175,0.608 0.262,1.252 0.262,1.933c0,0.681 0.021,1.261 0.065,1.74c0,0.478 0.044,1.325 0.131,2.54l0.523,7.731c0.087,1.215 0.152,2.062 0.196,2.54c0.174,-0.037 0.512,-0.138 1.013,-0.304c0.501,-0.165 1.035,-0.331 1.602,-0.497c0.566,-0.165 1.1,-0.322 1.601,-0.469c0.502,-0.147 0.861,-0.258 1.079,-0.331c1.133,-0.405 2.31,-0.856 3.53,-1.353c1.221,-0.497 2.463,-0.746 3.727,-0.746c0.871,0 1.536,0.249 1.993,0.746c0.458,0.497 0.687,1.077 0.687,1.739c0,0.479 -0.218,0.829 -0.654,1.05c-0.436,0.22 -0.893,0.423 -1.373,0.607l-11.898,3.755c-0.13,0.074 -0.261,0.138 -0.392,0.193c-0.131,0.056 -0.261,0.138 -0.392,0.249l0,1.767c0,1.289 0.033,2.623 0.098,4.004c0.065,1.38 0.207,2.715 0.425,4.003c0.218,1.105 0.457,2.191 0.719,3.258c0.261,1.068 0.392,2.154 0.392,3.258c0,0.332 -0.131,0.774 -0.392,1.326c-0.262,0.552 -0.676,0.828 -1.242,0.828c-1.177,0 -2.136,-0.294 -2.877,-0.883c-0.74,-0.589 -1.154,-1.381 -1.242,-2.375c-0.218,-1.914 -0.446,-4.013 -0.686,-6.295c-0.24,-2.283 -0.469,-4.473 -0.686,-6.572l-0.262,0Z" style="fill:#474747;fill-rule:nonzero;"/></g></g></svg>