<?xml version="1.0" encoding="UTF-8" standalone="no"?><!DOCTYPE svg PUBLIC "-//W3C//DTD SVG 1.1//EN" "http://www.w3.org/Graphics/SVG/1.1/DTD/svg11.dtd"><svg width="100%" height="100%" viewBox="0 0 491 78" version="1.1" xmlns="http://www.w3.org/2000/svg" xmlns:xlink="http://www.w3.org/1999/xlink" xml:space="preserve" xmlns:serif="http://www.serif.com/" style="fill-rule:evenodd;clip-rule:evenodd;stroke-linejoin:round;stroke-miterlimit:2;"><g id="Layer2"><g><g><g><path d="M125.929,10.779l64.767,67.221l-129.534,0l64.767,-67.221Z" style="fill:#898989;"/><path d="M69.962,10.396l69.962,67.604l-139.924,0l69.962,-67.604Z" style="fill:#848484;"/></g><g><path d="M268.067,10.507l64.767,67.493l-129.535,0l64.768,-67.493Z" style="fill:#898989;"/><path d="M212.1,10.116l69.962,67.884l-139.924,0l69.962,-67.884Z" style="fill:#848484;"/></g><g><path d="M401.439,9.199l64.767,68.801l-129.534,0l64.767,-68.801Z" style="fill:#898989;"/><path d="M345.472,8.817l69.962,69.183l-139.924,0l69.962,-69.183Z" style="fill:#848484;"/></g></g><g><g><path d="M150.181,2.211l64.767,75.789l-129.535,0l64.768,-75.789Z" style="fill:#898989;"/><path d="M94.214,1.779l69.962,76.221l-139.924,0l69.962,-76.221Z" style="fill:#848484;"/></g><g><path d="M292.318,1.905l64.768,76.095l-129.535,0l64.767,-76.095Z" style="fill:#898989;"/><path d="M236.351,1.465l69.962,76.535l-139.924,0l69.962,-76.535Z" style="fill:#848484;"/></g><g><path d="M425.691,0.431l64.767,77.569l-129.534,0l64.767,-77.569Z" style="fill:#898989;"/><path d="M369.724,0l69.962,78l-139.924,0l69.962,-78Z" style="fill:#848484;"/></g></g></g><text x="45.085px" y="70.748px" style="font-family:'CoveredByYourGrace', 'Covered By Your Grace';font-size:56.548px;fill:#474747;">W<tspan x="78.883px 104.966px 114.969px 142.033px 164.913px 193.743px 220.677px 247.48px 270.622px 292.718px 315.598px 342.663px " y="70.748px 70.748px 70.748px 70.748px 70.748px 70.748px 70.748px 70.748px 70.748px 70.748px 70.748px 70.748px ">alnuts count</tspan></text></g></svg>