<?xml version="1.0" encoding="UTF-8" standalone="no"?><!DOCTYPE svg PUBLIC "-//W3C//DTD SVG 1.1//EN" "http://www.w3.org/Graphics/SVG/1.1/DTD/svg11.dtd"><svg width="100%" height="100%" viewBox="0 0 491 78" version="1.1" xmlns="http://www.w3.org/2000/svg" xmlns:xlink="http://www.w3.org/1999/xlink" xml:space="preserve" xmlns:serif="http://www.serif.com/" style="fill-rule:evenodd;clip-rule:evenodd;stroke-linejoin:round;stroke-miterlimit:2;"><g id="Layer2"><g><g><g><path d="M150.181,2.211l64.767,75.789l-129.535,0l64.768,-75.789Z" style="fill:#7f7f7f;"/><path d="M94.214,1.779l69.962,76.221l-139.924,0l69.962,-76.221Z" style="fill:#7f7f7f;"/></g><g><path d="M292.318,1.905l64.768,76.095l-129.535,0l64.767,-76.095Z" style="fill:#7f7f7f;"/><path d="M236.351,1.465l69.962,76.535l-139.924,0l69.962,-76.535Z" style="fill:#7f7f7f;"/></g><g><path d="M425.691,0.431l64.767,77.569l-129.534,0l64.767,-77.569Z" style="fill:#7f7f7f;"/><path d="M369.724,0l69.962,78l-139.924,0l69.962,-78Z" style="fill:#7f7f7f;"/></g></g><g><g><path d="M125.929,10.779l64.767,67.221l-129.534,0l64.767,-67.221Z" style="fill:#898989;"/><path d="M69.962,10.396l69.962,67.604l-139.924,0l69.962,-67.604Z" style="fill:#848484;"/></g><g><path d="M268.067,10.507l64.767,67.493l-129.535,0l64.768,-67.493Z" style="fill:#898989;"/><path d="M212.1,10.116l69.962,67.884l-139.924,0l69.962,-67.884Z" style="fill:#848484;"/></g><g><path d="M401.439,9.199l64.767,68.801l-129.534,0l64.767,-68.801Z" style="fill:#898989;"/><path d="M345.472,8.817l69.962,69.183l-139.924,0l69.962,-69.183Z" style="fill:#848484;"/></g></g></g><g><path d="M86.827,66.922c-0,-2.344 0.156,-4.668 0.469,-6.973c0.312,-2.305 0.586,-4.609 0.82,-6.914c-0,-0.117 0.019,-0.381 0.059,-0.791c0.039,-0.41 0.087,-0.85 0.146,-1.318c0.059,-0.469 0.117,-0.908 0.176,-1.319c0.058,-0.41 0.088,-0.673 0.088,-0.791l-0,-0.234l2.461,-18.281c-0.079,-0.782 0.048,-1.475 0.38,-2.08c0.332,-0.606 0.948,-0.909 1.846,-0.909c0.977,-0.117 1.787,0.01 2.432,0.381c0.644,0.371 1.181,0.85 1.611,1.436c0.43,0.586 0.781,1.23 1.055,1.933c0.273,0.704 0.566,1.348 0.879,1.934c0.195,0.547 0.439,1.191 0.732,1.934c0.293,0.742 0.645,1.679 1.055,2.812c0.41,1.133 0.898,2.52 1.465,4.16c0.566,1.641 1.22,3.633 1.963,5.977l0.234,0.234c0.273,-0.156 0.791,-0.41 1.553,-0.761c0.761,-0.352 1.562,-0.723 2.402,-1.114c0.84,-0.39 1.631,-0.761 2.373,-1.113c0.742,-0.352 1.27,-0.586 1.582,-0.703c0.039,-0.078 0.147,-0.147 0.322,-0.205c0.176,-0.059 0.303,-0.108 0.381,-0.147l0.117,0c0.391,0 0.684,0.147 0.879,0.44c0.196,0.293 0.293,0.576 0.293,0.849c0,0.43 -0.097,0.801 -0.293,1.114c-0.195,0.312 -0.42,0.595 -0.674,0.849c-0.253,0.254 -0.527,0.498 -0.82,0.733c-0.293,0.234 -0.517,0.488 -0.674,0.761l-5.8,2.93c-0.157,0.195 -0.235,0.352 -0.235,0.469c0,0.312 0.166,0.801 0.498,1.465c0.332,0.664 0.596,1.191 0.791,1.582l1.465,3.222c0.313,0.664 0.615,1.299 0.908,1.905c0.293,0.605 0.498,1.025 0.616,1.259l-0,0.176c-0,1.406 -0.704,2.11 -2.11,2.11c-0.43,-0 -0.879,-0.049 -1.347,-0.147c-0.469,-0.098 -0.821,-0.381 -1.055,-0.85l-3.926,-8.378l-0.527,-0c-1.485,1.132 -3.067,2.246 -4.746,3.339c-1.68,1.094 -3.399,2.032 -5.157,2.813c-0.273,1.406 -0.439,2.832 -0.498,4.277c-0.058,1.446 -0.049,2.891 0.03,4.336c-0.313,0.43 -0.625,0.752 -0.938,0.967c-0.312,0.215 -0.742,0.322 -1.289,0.322c-0.547,0 -0.957,-0.127 -1.23,-0.381c-0.274,-0.254 -0.469,-0.566 -0.586,-0.937c-0.118,-0.371 -0.176,-0.772 -0.176,-1.201l-0,-1.172Zm5.215,-11.367c1.172,-0.469 2.314,-1.094 3.427,-1.875c1.114,-0.782 2.178,-1.504 3.194,-2.168c0.117,-0.078 0.263,-0.157 0.439,-0.235c0.176,-0.078 0.342,-0.175 0.498,-0.293c0.157,-0.117 0.352,-0.254 0.586,-0.41l0,-0.469l-5.39,-15.351l-0.235,-0.235c-0.117,0.235 -0.263,0.899 -0.439,1.993c-0.176,1.093 -0.371,2.509 -0.586,4.248c-0.215,1.738 -0.449,3.74 -0.703,6.006c-0.254,2.265 -0.518,4.687 -0.791,7.265l-0,1.524Z" style="fill:#474747;fill-rule:nonzero;"/><path d="M116.534,63.582c-0.274,-1.172 -0.264,-2.559 0.029,-4.16c0.293,-1.602 0.762,-3.213 1.406,-4.834c0.645,-1.621 1.446,-3.154 2.403,-4.6c0.957,-1.445 1.972,-2.597 3.047,-3.457c1.074,-0.859 2.168,-1.338 3.281,-1.435c1.113,-0.098 2.178,0.4 3.193,1.494c0,0.039 0.02,0.137 0.059,0.293c0.039,0.156 0.078,0.478 0.117,0.967c0.039,0.488 0.068,1.171 0.088,2.05c0.019,0.879 0.029,2.08 0.029,3.604c0.039,0.078 0.088,0.205 0.147,0.381c0.058,0.176 0.088,0.302 0.088,0.381c-0.118,0.429 -0.342,0.83 -0.674,1.201c-0.332,0.371 -0.752,0.556 -1.26,0.556c-0.664,0 -1.201,-0.107 -1.611,-0.322c-0.41,-0.215 -0.713,-0.732 -0.909,-1.553c0.079,-0.117 0.098,-0.361 0.059,-0.732c-0.039,-0.371 -0.107,-0.791 -0.205,-1.26c-0.098,-0.469 -0.186,-0.937 -0.264,-1.406c-0.078,-0.469 -0.117,-0.84 -0.117,-1.113c-0.039,-0 -0.088,0.029 -0.146,0.088c-0.059,0.058 -0.108,0.107 -0.147,0.146c-0.664,1.172 -1.279,2.471 -1.846,3.897c-0.566,1.425 -0.996,2.871 -1.289,4.335c-0.293,1.465 -0.39,2.92 -0.293,4.366c0.098,1.445 0.518,2.754 1.26,3.926c0.547,-0 1.055,-0.225 1.524,-0.674c0.468,-0.45 0.859,-0.869 1.172,-1.26c0.664,-0.781 1.318,-1.582 1.962,-2.402c0.645,-0.821 1.241,-1.68 1.788,-2.579c0.234,-0.39 0.41,-0.742 0.527,-1.054c0.117,-0.313 0.264,-0.567 0.439,-0.762c0.176,-0.195 0.401,-0.352 0.674,-0.469c0.274,-0.117 0.684,-0.175 1.231,-0.175c0.625,-0 1.211,0.146 1.757,0.439c0.547,0.293 0.821,0.771 0.821,1.436c-0,0.898 -0.401,2.021 -1.201,3.369c-0.801,1.347 -1.778,2.646 -2.93,3.896c-1.152,1.25 -2.373,2.315 -3.662,3.193c-1.289,0.879 -2.422,1.319 -3.399,1.319c-0.937,-0 -1.845,-0.186 -2.724,-0.557c-0.879,-0.371 -1.641,-0.869 -2.285,-1.494c-0.645,-0.625 -1.163,-1.367 -1.553,-2.226c-0.391,-0.86 -0.586,-1.797 -0.586,-2.813Z" style="fill:#474747;fill-rule:nonzero;"/><path d="M137.452,61.648l2.168,-15.058c0.078,-0.508 0.303,-0.879 0.674,-1.113c0.371,-0.235 0.791,-0.352 1.259,-0.352c0.86,-0 1.543,0.244 2.051,0.732c0.508,0.489 0.938,1.084 1.289,1.787l0.059,0c0.469,0 0.889,-0.087 1.26,-0.263c0.371,-0.176 0.83,-0.264 1.377,-0.264c1.25,0 2.314,0.391 3.193,1.172c0.879,0.781 1.592,1.729 2.139,2.842c0.546,1.113 0.947,2.314 1.201,3.603c0.254,1.289 0.381,2.422 0.381,3.399c-0,1.172 -0.303,2.48 -0.909,3.926c-0.605,1.445 -1.406,2.812 -2.402,4.101c-0.996,1.289 -2.119,2.363 -3.369,3.223c-1.25,0.859 -2.52,1.289 -3.809,1.289c-1.172,-0 -2.177,-0.274 -3.017,-0.82c-0.84,-0.547 -1.524,-1.241 -2.051,-2.081c-0.527,-0.839 -0.908,-1.787 -1.143,-2.841c-0.234,-1.055 -0.351,-2.09 -0.351,-3.106l-0,-0.176Zm4.922,0.352c0.078,0.391 0.156,0.84 0.234,1.348c0.078,0.507 0.195,0.966 0.352,1.377c0.156,0.41 0.381,0.722 0.673,0.937c0.293,0.215 0.713,0.225 1.26,0.029c0.508,-0.468 1.055,-0.996 1.641,-1.582c0.586,-0.586 1.142,-1.211 1.67,-1.875c0.527,-0.664 0.967,-1.367 1.318,-2.109c0.352,-0.742 0.528,-1.523 0.528,-2.344c0.156,-1.328 0.058,-2.549 -0.293,-3.662c-0.352,-1.113 -0.85,-1.914 -1.495,-2.402c-0.644,-0.489 -1.377,-0.547 -2.197,-0.176c-0.82,0.371 -1.64,1.377 -2.461,3.018c-0.469,1.015 -0.791,2.197 -0.967,3.544c-0.175,1.348 -0.263,2.588 -0.263,3.721l-0,0.176Z" style="fill:#474747;fill-rule:nonzero;"/><path d="M159.717,68.094c-0.078,-1.407 -0.205,-3.291 -0.38,-5.655c-0.176,-2.363 -0.371,-4.814 -0.586,-7.353c-0.215,-2.539 -0.44,-4.942 -0.674,-7.207c-0.235,-2.266 -0.43,-4.024 -0.586,-5.274c-0,-0.507 0.234,-0.839 0.703,-0.996c0.469,-0.156 0.918,-0.234 1.348,-0.234c0.547,-0 1.123,0.156 1.728,0.469c0.606,0.312 0.987,0.742 1.143,1.289l0.293,4.219l-0,0.849c-0,0.098 0.019,0.205 0.058,0.322c0.039,0.118 0.098,0.313 0.176,0.586l0.469,-0.527c0.625,-0.898 1.23,-1.689 1.816,-2.373c0.586,-0.684 1.192,-1.328 1.817,-1.934c0.625,-0.605 1.318,-1.25 2.08,-1.933c0.761,-0.684 1.65,-1.475 2.666,-2.373c0.234,-0.196 0.41,-0.342 0.527,-0.44c0.117,-0.097 0.225,-0.176 0.322,-0.234c0.098,-0.059 0.205,-0.098 0.323,-0.117c0.117,-0.02 0.273,-0.03 0.468,-0.03c0.664,0 1.338,0.225 2.022,0.674c0.683,0.449 1.025,1.065 1.025,1.846c0,0.273 -0.097,0.557 -0.293,0.85c-0.195,0.293 -0.429,0.566 -0.703,0.82c-0.273,0.254 -0.556,0.478 -0.849,0.674c-0.293,0.195 -0.557,0.332 -0.791,0.41c-1.016,0.898 -2.09,1.924 -3.223,3.076c-1.133,1.152 -2.188,2.393 -3.164,3.721c-0.977,1.328 -1.777,2.715 -2.402,4.16c-0.625,1.445 -0.938,2.89 -0.938,4.336c0,1.328 0.098,2.637 0.293,3.926c0.195,1.289 0.293,2.597 0.293,3.925l-0,2.051c-0.313,0.313 -0.586,0.567 -0.82,0.762c-0.235,0.195 -0.567,0.293 -0.996,0.293c-0.665,-0 -1.309,-0.283 -1.934,-0.85c-0.625,-0.566 -1.035,-1.142 -1.231,-1.728Z" style="fill:#474747;fill-rule:nonzero;"/><path d="M194.698,68.621c-0.547,-0.781 -1.006,-1.865 -1.377,-3.252c-0.371,-1.387 -0.723,-2.851 -1.055,-4.394c-0.332,-1.543 -0.634,-3.047 -0.908,-4.512c-0.273,-1.465 -0.557,-2.637 -0.85,-3.516c-0.292,-0.879 -0.615,-1.377 -0.966,-1.494c-0.352,-0.117 -0.762,0.41 -1.231,1.582l-5.097,15.703c-0.196,0.547 -0.43,0.928 -0.704,1.143c-0.273,0.215 -0.722,0.322 -1.347,0.322c-0.313,0 -0.645,-0.049 -0.996,-0.146c-0.352,-0.098 -0.684,-0.245 -0.996,-0.44c-0.313,-0.195 -0.577,-0.43 -0.791,-0.703c-0.215,-0.273 -0.342,-0.586 -0.381,-0.937c0.117,-0.469 0.224,-1.329 0.322,-2.579c0.098,-1.25 0.166,-2.695 0.205,-4.336c0.039,-1.64 0.068,-3.369 0.088,-5.185c0.019,-1.816 0.019,-3.516 -0,-5.098c-0.02,-1.582 -0.049,-2.949 -0.088,-4.101c-0.039,-1.153 -0.078,-1.905 -0.117,-2.256c-0,-0.391 0.01,-0.791 0.029,-1.201c0.02,-0.41 0.078,-0.791 0.176,-1.143c0.098,-0.351 0.273,-0.635 0.527,-0.85c0.254,-0.214 0.655,-0.322 1.201,-0.322c0.743,0 1.436,0.313 2.081,0.938c0.644,0.625 0.966,1.289 0.966,1.992c0,1.016 -0.048,2.021 -0.146,3.017c-0.098,0.997 -0.147,2.002 -0.147,3.018l0,1.582c0,0.43 0.079,0.957 0.235,1.582c0.117,-0.312 0.312,-0.859 0.586,-1.641c0.273,-0.781 0.576,-1.601 0.908,-2.46c0.332,-0.86 0.635,-1.67 0.908,-2.432c0.274,-0.762 0.469,-1.299 0.586,-1.611c0.273,-0.782 0.684,-1.534 1.231,-2.256c0.546,-0.723 1.269,-1.123 2.167,-1.201c0.586,-0.04 1.124,0.117 1.612,0.468c0.488,0.352 0.908,0.811 1.26,1.377c0.351,0.567 0.644,1.153 0.878,1.758c0.235,0.606 0.411,1.123 0.528,1.553l3.164,14.59l2.461,6.679c0.039,0.039 0.058,0.147 0.058,0.323l0,0.38c0,0.469 -0.107,0.928 -0.322,1.377c-0.215,0.45 -0.596,0.674 -1.142,0.674c-0.664,0 -1.348,-0.185 -2.051,-0.556c-0.703,-0.371 -1.192,-0.85 -1.465,-1.436Z" style="fill:#474747;fill-rule:nonzero;"/><path d="M211.104,68.387c0,-0.196 0.01,-0.371 0.029,-0.528c0.02,-0.156 0.108,-0.312 0.264,-0.468c0.469,-0.586 0.996,-1.202 1.582,-1.846c0.586,-0.645 1.153,-1.289 1.699,-1.934c0.547,-0.644 1.055,-1.318 1.524,-2.021c0.469,-0.703 0.859,-1.406 1.172,-2.11l-0,-0.351l-7.676,1.582l-0.879,-0c-0.547,-0 -1.221,-0.039 -2.021,-0.117c-0.801,-0.078 -1.582,-0.244 -2.344,-0.498c-0.762,-0.254 -1.406,-0.616 -1.934,-1.084c-0.527,-0.469 -0.791,-1.094 -0.791,-1.875c0.039,-0.899 0.508,-1.895 1.406,-2.989c0.899,-1.093 1.954,-2.168 3.164,-3.222c1.211,-1.055 2.432,-2.032 3.663,-2.93c1.23,-0.898 2.216,-1.602 2.959,-2.109c0.82,-0.469 1.796,-0.85 2.929,-1.143c1.133,-0.293 2.168,-0.439 3.106,-0.439c0.781,-0 1.465,0.146 2.051,0.439c0.585,0.293 0.878,0.869 0.878,1.729c0,0.351 -0.029,0.683 -0.087,0.996c-0.059,0.312 -0.303,0.527 -0.733,0.644c-1.25,-0.117 -2.422,-0.029 -3.516,0.264c-1.093,0.293 -2.128,0.732 -3.105,1.318c-0.977,0.586 -1.895,1.28 -2.754,2.08c-0.859,0.801 -1.699,1.631 -2.519,2.491c-0.235,0.273 -0.528,0.654 -0.879,1.142c-0.352,0.488 -0.528,0.772 -0.528,0.85l0,0.058c1.016,0 2.022,-0.097 3.018,-0.293c0.996,-0.195 1.992,-0.4 2.988,-0.615c0.996,-0.215 1.992,-0.42 2.988,-0.615c0.997,-0.195 2.022,-0.293 3.077,-0.293c0.39,-0 0.82,0.029 1.289,0.088c0.468,0.058 0.908,0.185 1.318,0.381c0.41,0.195 0.742,0.459 0.996,0.791c0.254,0.332 0.381,0.752 0.381,1.26c0,0.742 -0.186,1.455 -0.557,2.138c-0.371,0.684 -0.918,1.504 -1.64,2.461c-0.723,0.957 -1.641,2.119 -2.754,3.486c-1.113,1.368 -2.432,3.125 -3.955,5.274c-0.078,0.117 -0.264,0.195 -0.557,0.234c-0.293,0.039 -0.537,0.059 -0.732,0.059c-0.547,-0 -1.104,-0.235 -1.67,-0.703c-0.567,-0.469 -0.85,-0.996 -0.85,-1.582Z" style="fill:#474747;fill-rule:nonzero;"/><path d="M250.421,63.582c-0.274,-1.172 -0.264,-2.559 0.029,-4.16c0.293,-1.602 0.762,-3.213 1.406,-4.834c0.645,-1.621 1.445,-3.154 2.402,-4.6c0.958,-1.445 1.973,-2.597 3.047,-3.457c1.075,-0.859 2.168,-1.338 3.282,-1.435c1.113,-0.098 2.177,0.4 3.193,1.494c-0,0.039 0.019,0.137 0.059,0.293c0.039,0.156 0.078,0.478 0.117,0.967c0.039,0.488 0.068,1.171 0.088,2.05c0.019,0.879 0.029,2.08 0.029,3.604c0.039,0.078 0.088,0.205 0.146,0.381c0.059,0.176 0.088,0.302 0.088,0.381c-0.117,0.429 -0.341,0.83 -0.674,1.201c-0.332,0.371 -0.751,0.556 -1.259,0.556c-0.664,0 -1.201,-0.107 -1.612,-0.322c-0.41,-0.215 -0.713,-0.732 -0.908,-1.553c0.078,-0.117 0.098,-0.361 0.059,-0.732c-0.039,-0.371 -0.108,-0.791 -0.205,-1.26c-0.098,-0.469 -0.186,-0.937 -0.264,-1.406c-0.078,-0.469 -0.117,-0.84 -0.117,-1.113c-0.039,-0 -0.088,0.029 -0.147,0.088c-0.058,0.058 -0.107,0.107 -0.146,0.146c-0.664,1.172 -1.279,2.471 -1.846,3.897c-0.566,1.425 -0.996,2.871 -1.289,4.335c-0.293,1.465 -0.391,2.92 -0.293,4.366c0.098,1.445 0.518,2.754 1.26,3.926c0.547,-0 1.055,-0.225 1.523,-0.674c0.469,-0.45 0.86,-0.869 1.172,-1.26c0.664,-0.781 1.319,-1.582 1.963,-2.402c0.645,-0.821 1.24,-1.68 1.787,-2.579c0.235,-0.39 0.41,-0.742 0.528,-1.054c0.117,-0.313 0.263,-0.567 0.439,-0.762c0.176,-0.195 0.4,-0.352 0.674,-0.469c0.273,-0.117 0.683,-0.175 1.23,-0.175c0.625,-0 1.211,0.146 1.758,0.439c0.547,0.293 0.82,0.771 0.82,1.436c0,0.898 -0.4,2.021 -1.201,3.369c-0.801,1.347 -1.777,2.646 -2.929,3.896c-1.153,1.25 -2.373,2.315 -3.663,3.193c-1.289,0.879 -2.421,1.319 -3.398,1.319c-0.937,-0 -1.846,-0.186 -2.725,-0.557c-0.878,-0.371 -1.64,-0.869 -2.285,-1.494c-0.644,-0.625 -1.162,-1.367 -1.552,-2.226c-0.391,-0.86 -0.586,-1.797 -0.586,-2.813Z" style="fill:#474747;fill-rule:nonzero;"/><path d="M271.339,61.648l2.168,-15.058c0.078,-0.508 0.302,-0.879 0.673,-1.113c0.371,-0.235 0.791,-0.352 1.26,-0.352c0.859,-0 1.543,0.244 2.051,0.732c0.508,0.489 0.937,1.084 1.289,1.787l0.059,0c0.468,0 0.888,-0.087 1.259,-0.263c0.371,-0.176 0.83,-0.264 1.377,-0.264c1.25,0 2.315,0.391 3.194,1.172c0.879,0.781 1.591,1.729 2.138,2.842c0.547,1.113 0.948,2.314 1.201,3.603c0.254,1.289 0.381,2.422 0.381,3.399c0,1.172 -0.302,2.48 -0.908,3.926c-0.605,1.445 -1.406,2.812 -2.402,4.101c-0.996,1.289 -2.119,2.363 -3.369,3.223c-1.25,0.859 -2.52,1.289 -3.809,1.289c-1.172,-0 -2.178,-0.274 -3.018,-0.82c-0.839,-0.547 -1.523,-1.241 -2.05,-2.081c-0.528,-0.839 -0.909,-1.787 -1.143,-2.841c-0.234,-1.055 -0.351,-2.09 -0.351,-3.106l-0,-0.176Zm4.921,0.352c0.079,0.391 0.157,0.84 0.235,1.348c0.078,0.507 0.195,0.966 0.351,1.377c0.157,0.41 0.381,0.722 0.674,0.937c0.293,0.215 0.713,0.225 1.26,0.029c0.508,-0.468 1.055,-0.996 1.641,-1.582c0.586,-0.586 1.142,-1.211 1.67,-1.875c0.527,-0.664 0.966,-1.367 1.318,-2.109c0.351,-0.742 0.527,-1.523 0.527,-2.344c0.156,-1.328 0.059,-2.549 -0.293,-3.662c-0.351,-1.113 -0.849,-1.914 -1.494,-2.402c-0.644,-0.489 -1.377,-0.547 -2.197,-0.176c-0.82,0.371 -1.641,1.377 -2.461,3.018c-0.469,1.015 -0.791,2.197 -0.967,3.544c-0.176,1.348 -0.264,2.588 -0.264,3.721l0,0.176Z" style="fill:#474747;fill-rule:nonzero;"/><path d="M302.569,65.047c-0.273,0.586 -0.547,1.221 -0.82,1.904c-0.274,0.684 -0.586,1.299 -0.938,1.846c-0.351,0.547 -0.781,1.006 -1.289,1.377c-0.508,0.371 -1.152,0.556 -1.933,0.556c-1.368,0 -2.5,-0.341 -3.399,-1.025c-0.898,-0.684 -1.631,-1.543 -2.197,-2.578c-0.567,-1.035 -0.967,-2.158 -1.201,-3.369c-0.235,-1.211 -0.352,-2.344 -0.352,-3.399l0.469,-14.179c-0.039,-0.274 0.029,-0.557 0.205,-0.85c0.176,-0.293 0.41,-0.566 0.703,-0.82c0.293,-0.254 0.625,-0.459 0.996,-0.615c0.371,-0.157 0.713,-0.235 1.026,-0.235c0.898,0 1.66,0.283 2.285,0.85c0.625,0.566 0.937,1.299 0.937,2.197l0,0.586c-0.429,0.703 -0.801,1.621 -1.113,2.754c-0.313,1.133 -0.557,2.353 -0.732,3.662c-0.176,1.309 -0.284,2.646 -0.323,4.014c-0.039,1.367 0.01,2.617 0.147,3.75c0.136,1.132 0.361,2.099 0.674,2.9c0.312,0.801 0.722,1.279 1.23,1.436c0.195,-0 0.498,-0.098 0.908,-0.293c0.41,-0.196 0.85,-0.567 1.319,-1.114c0.468,-0.547 0.957,-1.318 1.464,-2.314c0.508,-0.996 0.957,-2.315 1.348,-3.955c0.391,-1.641 0.684,-3.633 0.879,-5.977c0.195,-2.344 0.254,-5.156 0.176,-8.437c0.156,-0.43 0.381,-0.664 0.674,-0.703c0.293,-0.039 0.595,-0.059 0.908,-0.059c0.351,0 0.644,0.01 0.879,0.029c0.234,0.02 0.488,0.166 0.761,0.44c0.196,0.195 0.411,0.488 0.645,0.879c0.234,0.39 0.352,0.605 0.352,0.644l0.996,25.957c-0,0.586 -0.157,1.074 -0.469,1.465c-0.313,0.391 -0.762,0.586 -1.348,0.586c-0.195,0 -0.429,-0.02 -0.703,-0.059c-0.273,-0.039 -0.547,-0.117 -0.82,-0.234c-0.274,-0.117 -0.518,-0.264 -0.733,-0.439c-0.214,-0.176 -0.341,-0.381 -0.381,-0.616l-0.996,-5.859l-0.234,-0.703Z" style="fill:#474747;fill-rule:nonzero;"/><path d="M328.174,68.621c-0.546,-0.781 -1.005,-1.865 -1.376,-3.252c-0.372,-1.387 -0.723,-2.851 -1.055,-4.394c-0.332,-1.543 -0.635,-3.047 -0.908,-4.512c-0.274,-1.465 -0.557,-2.637 -0.85,-3.516c-0.293,-0.879 -0.615,-1.377 -0.967,-1.494c-0.351,-0.117 -0.761,0.41 -1.23,1.582l-5.098,15.703c-0.195,0.547 -0.43,0.928 -0.703,1.143c-0.273,0.215 -0.723,0.322 -1.348,0.322c-0.312,0 -0.644,-0.049 -0.996,-0.146c-0.351,-0.098 -0.683,-0.245 -0.996,-0.44c-0.312,-0.195 -0.576,-0.43 -0.791,-0.703c-0.215,-0.273 -0.342,-0.586 -0.381,-0.937c0.117,-0.469 0.225,-1.329 0.323,-2.579c0.097,-1.25 0.166,-2.695 0.205,-4.336c0.039,-1.64 0.068,-3.369 0.088,-5.185c0.019,-1.816 0.019,-3.516 -0,-5.098c-0.02,-1.582 -0.049,-2.949 -0.088,-4.101c-0.039,-1.153 -0.079,-1.905 -0.118,-2.256c0,-0.391 0.01,-0.791 0.03,-1.201c0.019,-0.41 0.078,-0.791 0.176,-1.143c0.097,-0.351 0.273,-0.635 0.527,-0.85c0.254,-0.214 0.654,-0.322 1.201,-0.322c0.742,0 1.436,0.313 2.08,0.938c0.645,0.625 0.967,1.289 0.967,1.992c-0,1.016 -0.049,2.021 -0.147,3.017c-0.097,0.997 -0.146,2.002 -0.146,3.018l-0,1.582c-0,0.43 0.078,0.957 0.234,1.582c0.118,-0.312 0.313,-0.859 0.586,-1.641c0.274,-0.781 0.576,-1.601 0.908,-2.46c0.332,-0.86 0.635,-1.67 0.909,-2.432c0.273,-0.762 0.468,-1.299 0.586,-1.611c0.273,-0.782 0.683,-1.534 1.23,-2.256c0.547,-0.723 1.27,-1.123 2.168,-1.201c0.586,-0.04 1.123,0.117 1.611,0.468c0.489,0.352 0.909,0.811 1.26,1.377c0.352,0.567 0.645,1.153 0.879,1.758c0.234,0.606 0.41,1.123 0.527,1.553l3.164,14.59l2.461,6.679c0.039,0.039 0.059,0.147 0.059,0.323l-0,0.38c-0,0.469 -0.107,0.928 -0.322,1.377c-0.215,0.45 -0.596,0.674 -1.143,0.674c-0.664,0 -1.348,-0.185 -2.051,-0.556c-0.703,-0.371 -1.191,-0.85 -1.465,-1.436Z" style="fill:#474747;fill-rule:nonzero;"/><path d="M341.358,53.504c-0.547,-0 -1.035,0.137 -1.465,0.41c-0.429,0.273 -0.937,0.41 -1.523,0.41l-1.231,-0.058c-0.156,-0.196 -0.332,-0.352 -0.527,-0.469c-0.195,-0.117 -0.391,-0.244 -0.586,-0.381c-0.195,-0.137 -0.361,-0.303 -0.498,-0.498c-0.137,-0.195 -0.205,-0.469 -0.205,-0.82c-0,-0.586 0.234,-1.065 0.703,-1.436c0.469,-0.371 1.016,-0.693 1.641,-0.967c0.625,-0.273 1.259,-0.527 1.904,-0.761c0.645,-0.235 1.162,-0.508 1.553,-0.821l-0,-2.578c-0,-2.89 -0.137,-5.791 -0.41,-8.701c-0.274,-2.91 -0.411,-5.791 -0.411,-8.643c0,-0.781 0.196,-1.289 0.586,-1.523c0.391,-0.234 0.918,-0.352 1.582,-0.352c0.782,0 1.358,0.225 1.729,0.674c0.371,0.449 0.635,0.996 0.791,1.641c0.156,0.644 0.234,1.328 0.234,2.051c0,0.722 0.02,1.338 0.059,1.845c-0,0.508 0.039,1.407 0.117,2.696l0.469,8.203c0.078,1.289 0.137,2.187 0.176,2.695c0.156,-0.039 0.459,-0.146 0.908,-0.322c0.449,-0.176 0.928,-0.352 1.435,-0.528c0.508,-0.175 0.987,-0.341 1.436,-0.498c0.449,-0.156 0.771,-0.273 0.967,-0.351c1.015,-0.43 2.07,-0.908 3.164,-1.436c1.094,-0.527 2.207,-0.791 3.34,-0.791c0.781,0 1.377,0.264 1.787,0.791c0.41,0.528 0.615,1.143 0.615,1.846c-0,0.508 -0.195,0.879 -0.586,1.113c-0.391,0.235 -0.801,0.45 -1.23,0.645l-10.665,3.984c-0.117,0.078 -0.234,0.147 -0.351,0.205c-0.117,0.059 -0.234,0.147 -0.352,0.264l0,1.875c0,1.367 0.03,2.783 0.088,4.248c0.059,1.465 0.186,2.881 0.381,4.248c0.195,1.172 0.41,2.324 0.645,3.457c0.234,1.133 0.351,2.285 0.351,3.457c0,0.352 -0.117,0.82 -0.351,1.406c-0.235,0.586 -0.606,0.879 -1.114,0.879c-1.054,0 -1.914,-0.312 -2.578,-0.937c-0.664,-0.625 -1.035,-1.465 -1.113,-2.52c-0.195,-2.031 -0.4,-4.258 -0.615,-6.679c-0.215,-2.422 -0.42,-4.747 -0.616,-6.973l-0.234,-0Z" style="fill:#474747;fill-rule:nonzero;"/></g></g></svg>