<?xml version="1.0" encoding="UTF-8" standalone="no"?><!DOCTYPE svg PUBLIC "-//W3C//DTD SVG 1.1//EN" "http://www.w3.org/Graphics/SVG/1.1/DTD/svg11.dtd"><svg width="100%" height="100%" viewBox="0 0 29 37" version="1.1" xmlns="http://www.w3.org/2000/svg" xmlns:xlink="http://www.w3.org/1999/xlink" xml:space="preserve" xmlns:serif="http://www.serif.com/" style="fill-rule:evenodd;clip-rule:evenodd;stroke-linecap:round;stroke-linejoin:round;stroke-miterlimit:1.5;"><g><ellipse cx="17.753" cy="32.128" rx="9.387" ry="3.322" style="fill:#352e2e;"/><path d="M4.378,13.183c-1.292,2.75 -1.729,5.26 -2.124,8.331c-0.529,4.123 1.799,7.762 5.361,10.611c0.968,0.775 2.634,2.561 3.747,2.173c4.984,-1.737 6.934,-1.074 10.677,-5.203c1.46,-1.611 3.342,-5.159 3.582,-6.973c0.181,-1.364 0.046,-1.858 -0.132,-2.214c-0.477,-0.953 -1.953,-0.777 -2.894,-1.19c-2.7,-1.182 -5.357,-1.771 -8.043,-2.991c-1.967,-0.893 -4.093,-1.373 -6.164,-1.704c-1.253,-0.201 -2.472,-0.687 -3.747,-0.687" style="fill:#6d4b37;"/><clipPath id="_clip1"><path d="M4.378,13.183c-1.292,2.75 -1.729,5.26 -2.124,8.331c-0.529,4.123 1.799,7.762 5.361,10.611c0.968,0.775 2.634,2.561 3.747,2.173c4.984,-1.737 6.934,-1.074 10.677,-5.203c1.46,-1.611 3.342,-5.159 3.582,-6.973c0.181,-1.364 0.046,-1.858 -0.132,-2.214c-0.477,-0.953 -1.953,-0.777 -2.894,-1.19c-2.7,-1.182 -5.357,-1.771 -8.043,-2.991c-1.967,-0.893 -4.093,-1.373 -6.164,-1.704c-1.253,-0.201 -2.472,-0.687 -3.747,-0.687"/></clipPath><g clip-path="url(#_clip1)"><path d="M3.769,13.183c-1.292,2.75 -1.729,5.26 -2.124,8.331c-0.529,4.123 1.799,7.762 5.361,10.611c0.968,0.775 4.616,2.971 3.748,2.173c-4.083,-3.752 -5.723,-7.946 -6.208,-10.53c-0.8,-4.26 0.659,-9.488 0.763,-9.873c0.53,-1.961 -0.002,-0.559 -1.277,-0.559" style="fill:#513c30;"/></g><path d="M23.739,19.732c0.251,-0.293 0.474,2.507 -0.799,5.058c-0.386,0.774 -0.402,0.987 -1.365,2.233" style="fill:none;stroke:#f5f5f5;stroke-opacity:0.34;stroke-width:0.63px;"/><path d="M18.101,6.199c0.133,-0.218 0.738,-0.889 1.233,-0.395c0.504,0.504 -0.504,1.562 -0.212,1.95c0.419,0.56 3.195,2.934 3.687,3.433c2.099,2.134 2.275,1.697 4.018,4.181c0.711,1.014 1.855,3.492 1.17,4.81c-0.459,0.884 -2.684,0.49 -3.323,0.366c-0.289,-0.056 -0.577,-0.12 -0.866,-0.174c-1.205,-0.225 -2.394,-0.266 -3.577,-0.625c-2.984,-0.908 -5.731,-2.63 -8.685,-3.682c-2.328,-0.83 -4.579,-1.178 -6.958,-1.708c-0.825,-0.184 -1.974,-0.432 -2.29,-1.337c-0.529,-1.511 1.173,-2.633 2.328,-3.223c0.804,-0.41 1.503,-0.94 2.36,-1.256c2.244,-0.829 4.935,-0.737 7.299,-0.871c0.959,-0.054 1.334,0.052 2.278,-0.125c0.363,-0.069 0.848,-0.222 1.538,-1.344Z" style="fill:#563c2d;"/><clipPath id="_clip2"><path d="M18.101,6.199c0.133,-0.218 0.738,-0.889 1.233,-0.395c0.504,0.504 -0.504,1.562 -0.212,1.95c0.419,0.56 3.195,2.934 3.687,3.433c2.099,2.134 2.275,1.697 4.018,4.181c0.711,1.014 1.855,3.492 1.17,4.81c-0.459,0.884 -2.684,0.49 -3.323,0.366c-0.289,-0.056 -0.577,-0.12 -0.866,-0.174c-1.205,-0.225 -2.394,-0.266 -3.577,-0.625c-2.984,-0.908 -5.731,-2.63 -8.685,-3.682c-2.328,-0.83 -4.579,-1.178 -6.958,-1.708c-0.825,-0.184 -1.974,-0.432 -2.29,-1.337c-0.529,-1.511 1.173,-2.633 2.328,-3.223c0.804,-0.41 1.503,-0.94 2.36,-1.256c2.244,-0.829 4.935,-0.737 7.299,-0.871c0.959,-0.054 1.334,0.052 2.278,-0.125c0.363,-0.069 0.848,-0.222 1.538,-1.344Z"/></clipPath><g clip-path="url(#_clip2)"><path d="M18.64,4.961c0.112,-0.209 0.619,-0.854 1.033,-0.379c0.423,0.484 -0.422,1.501 -0.178,1.874c0.352,0.538 2.68,2.818 3.092,3.298c1.759,2.05 1.907,1.631 3.368,4.018c0.596,0.973 1.555,3.355 0.981,4.621c-0.385,0.849 -2.25,0.471 -2.786,0.352c-0.242,-0.054 -0.484,-0.116 -0.726,-0.168c-1.01,-0.216 -2.006,-0.255 -2.999,-0.601c-2.501,-0.871 -4.804,-2.526 -7.281,-3.537c-1.951,-0.797 -3.838,-1.131 -5.832,-1.641c-0.692,-0.177 -1.655,-0.415 -1.92,-1.284c-0.443,-1.452 0.983,-2.531 1.952,-3.097c0.674,-0.394 1.26,-0.903 1.978,-1.207c1.882,-0.797 4.137,-0.708 6.119,-0.837c0.804,-0.052 1.118,0.05 1.909,-0.121c0.305,-0.065 0.711,-0.212 1.29,-1.291Z" style="fill:#7e695d;"/><path d="M18.64,4.961c0.112,-0.209 0.619,-0.854 1.033,-0.379c0.423,0.484 -0.422,1.501 -0.178,1.874c0.352,0.538 2.68,2.818 3.092,3.298c1.759,2.05 1.907,1.631 3.368,4.018c0.596,0.973 1.555,3.355 0.981,4.621c-0.385,0.849 -2.25,0.471 -2.786,0.352c-0.242,-0.054 -0.484,-0.116 -0.726,-0.168c-1.01,-0.216 -2.006,-0.255 -2.999,-0.601c-2.501,-0.871 -4.804,-2.526 -7.281,-3.537c-1.951,-0.797 -3.838,-1.131 -5.832,-1.641c-0.692,-0.177 -1.655,-0.415 -1.92,-1.284c-0.443,-1.452 0.983,-2.531 1.952,-3.097c0.674,-0.394 1.26,-0.903 1.978,-1.207c1.882,-0.797 4.137,-0.708 6.119,-0.837c0.804,-0.052 1.118,0.05 1.909,-0.121c0.305,-0.065 0.711,-0.212 1.29,-1.291Z" style="fill:#7e695d;"/><path d="M20.041,3.323c0.093,-0.174 0.516,-0.713 0.862,-0.316c0.353,0.404 -0.352,1.253 -0.148,1.564c0.294,0.449 2.236,2.352 2.58,2.753c1.469,1.711 1.592,1.361 2.812,3.353c0.497,0.813 1.298,2.801 0.818,3.857c-0.321,0.709 -1.878,0.393 -2.325,0.294c-0.202,-0.045 -0.404,-0.097 -0.606,-0.14c-0.843,-0.18 -1.675,-0.213 -2.503,-0.501c-2.087,-0.728 -4.01,-2.109 -6.077,-2.953c-1.629,-0.665 -3.204,-0.944 -4.868,-1.37c-0.577,-0.147 -1.381,-0.346 -1.603,-1.071c-0.37,-1.213 0.821,-2.113 1.63,-2.585c0.562,-0.329 1.051,-0.754 1.65,-1.008c1.571,-0.665 3.454,-0.591 5.108,-0.698c0.671,-0.044 0.933,0.041 1.593,-0.101c0.255,-0.055 0.594,-0.177 1.077,-1.078Z" style="fill:#957e72;"/></g></g></svg>