<?xml version="1.0" encoding="UTF-8" standalone="no"?><!DOCTYPE svg PUBLIC "-//W3C//DTD SVG 1.1//EN" "http://www.w3.org/Graphics/SVG/1.1/DTD/svg11.dtd"><svg width="100%" height="100%" viewBox="0 0 9 10" version="1.1" xmlns="http://www.w3.org/2000/svg" xmlns:xlink="http://www.w3.org/1999/xlink" xml:space="preserve" xmlns:serif="http://www.serif.com/" style="fill-rule:evenodd;clip-rule:evenodd;stroke-linecap:round;stroke-linejoin:round;stroke-miterlimit:1.5;"><g><ellipse cx="4.549" cy="7.43" rx="2.253" ry="0.797" style="fill:#424242;"/><path d="M1.339,2.883c-0.31,0.66 -0.415,1.262 -0.509,2c-0.128,0.989 0.431,1.862 1.286,2.546c0.232,0.186 0.632,0.615 0.9,0.522c1.196,-0.417 1.664,-0.258 2.562,-1.249c0.35,-0.387 0.802,-1.238 0.86,-1.674c0.043,-0.327 0.011,-0.445 -0.032,-0.531c-0.114,-0.229 -0.469,-0.187 -0.695,-0.285c-0.648,-0.284 -1.285,-0.426 -1.93,-0.718c-0.472,-0.215 -0.982,-0.33 -1.479,-0.409c-0.301,-0.048 -0.594,-0.165 -0.9,-0.165" style="fill:#6d4b37;"/><clipPath id="_clip1"><path d="M1.339,2.883c-0.31,0.66 -0.415,1.262 -0.509,2c-0.128,0.989 0.431,1.862 1.286,2.546c0.232,0.186 0.632,0.615 0.9,0.522c1.196,-0.417 1.664,-0.258 2.562,-1.249c0.35,-0.387 0.802,-1.238 0.86,-1.674c0.043,-0.327 0.011,-0.445 -0.032,-0.531c-0.114,-0.229 -0.469,-0.187 -0.695,-0.285c-0.648,-0.284 -1.285,-0.426 -1.93,-0.718c-0.472,-0.215 -0.982,-0.33 -1.479,-0.409c-0.301,-0.048 -0.594,-0.165 -0.9,-0.165"/></clipPath><g clip-path="url(#_clip1)"><path d="M1.193,2.883c-0.31,0.66 -0.415,1.262 -0.51,2c-0.127,0.989 0.432,1.862 1.287,2.546c0.232,0.186 1.108,0.713 0.899,0.522c-0.979,-0.901 -1.373,-1.907 -1.489,-2.528c-0.192,-1.022 0.158,-2.277 0.183,-2.369c0.127,-0.471 -0.001,-0.134 -0.307,-0.134" style="fill:#563622;"/></g><path d="M1.339,2.883c-0.31,0.66 -0.415,1.262 -0.509,2c-0.128,0.989 0.431,1.862 1.286,2.546c0.232,0.186 0.632,0.615 0.9,0.522c1.196,-0.417 1.664,-0.258 2.562,-1.249c0.35,-0.387 0.802,-1.238 0.86,-1.674c0.043,-0.327 0.011,-0.445 -0.032,-0.531c-0.114,-0.229 -0.469,-0.187 -0.695,-0.285c-0.648,-0.284 -1.285,-0.426 -1.93,-0.718c-0.472,-0.215 -0.982,-0.33 -1.479,-0.409c-0.301,-0.048 -0.594,-0.165 -0.9,-0.165" style="fill:none;stroke:#424242;stroke-width:0.15px;"/><path d="M5.986,4.455c0.06,-0.071 0.114,0.601 -0.192,1.214c-0.092,0.185 -0.096,0.237 -0.327,0.536" style="fill:none;stroke:#f5f5f5;stroke-opacity:0.34;stroke-width:0.15px;"/><path d="M4.633,1.207c0.032,-0.052 0.177,-0.214 0.296,-0.095c0.121,0.121 -0.121,0.375 -0.051,0.468c0.1,0.134 0.767,0.704 0.885,0.824c0.504,0.512 0.546,0.407 0.964,1.004c0.171,0.243 0.445,0.838 0.281,1.154c-0.11,0.212 -0.644,0.117 -0.798,0.088c-0.069,-0.014 -0.138,-0.029 -0.208,-0.042c-0.289,-0.054 -0.574,-0.064 -0.858,-0.15c-0.716,-0.218 -1.375,-0.631 -2.084,-0.884c-0.559,-0.199 -1.099,-0.282 -1.67,-0.41c-0.198,-0.044 -0.474,-0.103 -0.55,-0.32c-0.127,-0.363 0.282,-0.633 0.559,-0.774c0.193,-0.098 0.361,-0.226 0.566,-0.302c0.539,-0.199 1.185,-0.176 1.752,-0.208c0.23,-0.014 0.32,0.012 0.547,-0.031c0.087,-0.016 0.203,-0.053 0.369,-0.322Z" style="fill:#9f7f6b;"/><clipPath id="_clip2"><path d="M4.633,1.207c0.032,-0.052 0.177,-0.214 0.296,-0.095c0.121,0.121 -0.121,0.375 -0.051,0.468c0.1,0.134 0.767,0.704 0.885,0.824c0.504,0.512 0.546,0.407 0.964,1.004c0.171,0.243 0.445,0.838 0.281,1.154c-0.11,0.212 -0.644,0.117 -0.798,0.088c-0.069,-0.014 -0.138,-0.029 -0.208,-0.042c-0.289,-0.054 -0.574,-0.064 -0.858,-0.15c-0.716,-0.218 -1.375,-0.631 -2.084,-0.884c-0.559,-0.199 -1.099,-0.282 -1.67,-0.41c-0.198,-0.044 -0.474,-0.103 -0.55,-0.32c-0.127,-0.363 0.282,-0.633 0.559,-0.774c0.193,-0.098 0.361,-0.226 0.566,-0.302c0.539,-0.199 1.185,-0.176 1.752,-0.208c0.23,-0.014 0.32,0.012 0.547,-0.031c0.087,-0.016 0.203,-0.053 0.369,-0.322Z"/></clipPath><g clip-path="url(#_clip2)"><path d="M4.762,0.91c0.027,-0.05 0.149,-0.205 0.248,-0.091c0.102,0.116 -0.101,0.36 -0.043,0.45c0.085,0.129 0.643,0.676 0.742,0.791c0.423,0.492 0.458,0.391 0.809,0.964c0.143,0.234 0.373,0.806 0.235,1.109c-0.092,0.204 -0.54,0.113 -0.668,0.085c-0.059,-0.013 -0.116,-0.028 -0.175,-0.04c-0.242,-0.052 -0.481,-0.062 -0.719,-0.145c-0.601,-0.209 -1.153,-0.606 -1.748,-0.849c-0.468,-0.191 -0.921,-0.271 -1.4,-0.393c-0.166,-0.043 -0.397,-0.1 -0.46,-0.309c-0.107,-0.348 0.236,-0.607 0.468,-0.743c0.162,-0.094 0.302,-0.217 0.475,-0.289c0.451,-0.192 0.993,-0.17 1.468,-0.201c0.193,-0.013 0.269,0.012 0.459,-0.029c0.073,-0.016 0.17,-0.051 0.309,-0.31Z" style="fill:#a68976;"/></g><path d="M4.633,1.207c0.032,-0.052 0.177,-0.214 0.296,-0.095c0.121,0.121 -0.121,0.375 -0.051,0.468c0.1,0.134 0.767,0.704 0.885,0.824c0.504,0.512 0.546,0.407 0.964,1.004c0.171,0.243 0.445,0.838 0.281,1.154c-0.11,0.212 -0.644,0.117 -0.798,0.088c-0.069,-0.014 -0.138,-0.029 -0.208,-0.042c-0.289,-0.054 -0.574,-0.064 -0.858,-0.15c-0.716,-0.218 -1.375,-0.631 -2.084,-0.884c-0.559,-0.199 -1.099,-0.282 -1.67,-0.41c-0.198,-0.044 -0.474,-0.103 -0.55,-0.32c-0.127,-0.363 0.282,-0.633 0.559,-0.774c0.193,-0.098 0.361,-0.226 0.566,-0.302c0.539,-0.199 1.185,-0.176 1.752,-0.208c0.23,-0.014 0.32,0.012 0.547,-0.031c0.087,-0.016 0.203,-0.053 0.369,-0.322Z" style="fill:none;stroke:#424242;stroke-width:0.2px;"/></g></svg>