<?xml version="1.0" encoding="UTF-8" standalone="no"?><!DOCTYPE svg PUBLIC "-//W3C//DTD SVG 1.1//EN" "http://www.w3.org/Graphics/SVG/1.1/DTD/svg11.dtd"><svg width="100%" height="100%" viewBox="0 0 10 10" version="1.1" xmlns="http://www.w3.org/2000/svg" xmlns:xlink="http://www.w3.org/1999/xlink" xml:space="preserve" xmlns:serif="http://www.serif.com/" style="fill-rule:evenodd;clip-rule:evenodd;stroke-linecap:round;stroke-linejoin:round;stroke-miterlimit:1.5;"><rect x="-150.96" y="-111.6" width="307.2" height="195.84" style="fill:#9e9e9e;"/><g><ellipse cx="5.146" cy="7.35" rx="1.8" ry="0.637" style="fill:#424242;"/><path d="M2.582,3.718c-0.248,0.527 -0.332,1.009 -0.408,1.597c-0.101,0.791 0.345,1.488 1.028,2.035c0.186,0.148 0.505,0.491 0.719,0.416c0.955,-0.333 1.329,-0.206 2.046,-0.997c0.28,-0.309 0.641,-0.989 0.687,-1.337c0.035,-0.262 0.009,-0.356 -0.025,-0.425c-0.092,-0.182 -0.375,-0.149 -0.555,-0.228c-0.518,-0.226 -1.027,-0.339 -1.542,-0.573c-0.377,-0.171 -0.785,-0.263 -1.182,-0.327c-0.24,-0.038 -0.474,-0.132 -0.718,-0.132" style="fill:#593b29;"/><clipPath id="_clip1"><path d="M2.582,3.718c-0.248,0.527 -0.332,1.009 -0.408,1.597c-0.101,0.791 0.345,1.488 1.028,2.035c0.186,0.148 0.505,0.491 0.719,0.416c0.955,-0.333 1.329,-0.206 2.046,-0.997c0.28,-0.309 0.641,-0.989 0.687,-1.337c0.035,-0.262 0.009,-0.356 -0.025,-0.425c-0.092,-0.182 -0.375,-0.149 -0.555,-0.228c-0.518,-0.226 -1.027,-0.339 -1.542,-0.573c-0.377,-0.171 -0.785,-0.263 -1.182,-0.327c-0.24,-0.038 -0.474,-0.132 -0.718,-0.132"/></clipPath><g clip-path="url(#_clip1)"><path d="M2.465,3.718c-0.248,0.527 -0.332,1.009 -0.407,1.597c-0.102,0.791 0.344,1.488 1.027,2.035c0.186,0.148 0.885,0.569 0.719,0.416c-0.783,-0.719 -1.484,-2.098 -1.43,-2.599c0.086,-0.817 0.366,-1.239 0.386,-1.312c0.102,-0.376 -0,-0.108 -0.245,-0.108" style="fill:#51301c;"/></g><path d="M2.582,3.718c-0.248,0.527 -0.332,1.009 -0.408,1.597c-0.101,0.791 0.345,1.488 1.028,2.035c0.186,0.148 0.505,0.491 0.719,0.416c0.955,-0.333 1.329,-0.206 2.046,-0.997c0.28,-0.309 0.641,-0.989 0.687,-1.337c0.035,-0.262 0.009,-0.356 -0.025,-0.425c-0.092,-0.182 -0.375,-0.149 -0.555,-0.228c-0.518,-0.226 -1.027,-0.339 -1.542,-0.573c-0.377,-0.171 -0.785,-0.263 -1.182,-0.327c-0.24,-0.038 -0.474,-0.132 -0.718,-0.132" style="fill:none;stroke:#424242;stroke-width:0.15px;"/><path d="M6.293,4.974c0.048,-0.056 0.091,0.48 -0.153,0.969c-0.074,0.149 -0.077,0.19 -0.262,0.429" style="fill:none;stroke:#f5f5f5;stroke-opacity:0.34;stroke-width:0.15px;"/><path d="M5.212,2.379c0.026,-0.042 0.142,-0.17 0.237,-0.076c0.096,0.097 -0.097,0.3 -0.041,0.374c0.081,0.108 0.613,0.563 0.707,0.659c0.402,0.409 0.436,0.325 0.77,0.801c0.137,0.194 0.356,0.67 0.225,0.922c-0.088,0.17 -0.515,0.094 -0.637,0.07c-0.056,-0.01 -0.111,-0.023 -0.166,-0.033c-0.231,-0.043 -0.459,-0.051 -0.686,-0.12c-0.572,-0.174 -1.099,-0.504 -1.665,-0.706c-0.447,-0.159 -0.878,-0.225 -1.334,-0.327c-0.158,-0.035 -0.379,-0.083 -0.439,-0.256c-0.102,-0.29 0.225,-0.505 0.446,-0.618c0.154,-0.079 0.288,-0.18 0.452,-0.241c0.431,-0.159 0.947,-0.141 1.4,-0.167c0.184,-0.01 0.256,0.01 0.437,-0.024c0.069,-0.013 0.162,-0.043 0.294,-0.258Z" style="fill:#9f7f6b;"/><clipPath id="_clip2"><path d="M5.212,2.379c0.026,-0.042 0.142,-0.17 0.237,-0.076c0.096,0.097 -0.097,0.3 -0.041,0.374c0.081,0.108 0.613,0.563 0.707,0.659c0.402,0.409 0.436,0.325 0.77,0.801c0.137,0.194 0.356,0.67 0.225,0.922c-0.088,0.17 -0.515,0.094 -0.637,0.07c-0.056,-0.01 -0.111,-0.023 -0.166,-0.033c-0.231,-0.043 -0.459,-0.051 -0.686,-0.12c-0.572,-0.174 -1.099,-0.504 -1.665,-0.706c-0.447,-0.159 -0.878,-0.225 -1.334,-0.327c-0.158,-0.035 -0.379,-0.083 -0.439,-0.256c-0.102,-0.29 0.225,-0.505 0.446,-0.618c0.154,-0.079 0.288,-0.18 0.452,-0.241c0.431,-0.159 0.947,-0.141 1.4,-0.167c0.184,-0.01 0.256,0.01 0.437,-0.024c0.069,-0.013 0.162,-0.043 0.294,-0.258Z"/></clipPath><g clip-path="url(#_clip2)"><path d="M5.316,2.142c0.021,-0.04 0.118,-0.164 0.198,-0.073c0.081,0.093 -0.081,0.288 -0.034,0.359c0.067,0.104 0.513,0.541 0.592,0.633c0.338,0.393 0.366,0.312 0.646,0.77c0.114,0.187 0.298,0.643 0.188,0.886c-0.074,0.163 -0.431,0.09 -0.534,0.067c-0.046,-0.01 -0.093,-0.022 -0.139,-0.032c-0.194,-0.041 -0.385,-0.049 -0.575,-0.115c-0.479,-0.167 -0.921,-0.484 -1.396,-0.678c-0.374,-0.153 -0.736,-0.217 -1.118,-0.315c-0.133,-0.034 -0.317,-0.079 -0.368,-0.246c-0.085,-0.278 0.188,-0.485 0.374,-0.594c0.129,-0.075 0.242,-0.173 0.379,-0.231c0.361,-0.153 0.794,-0.136 1.173,-0.16c0.155,-0.01 0.215,0.009 0.367,-0.024c0.058,-0.012 0.136,-0.04 0.247,-0.247Z" style="fill:#a68976;"/></g><path d="M5.212,2.379c0.026,-0.042 0.142,-0.17 0.237,-0.076c0.096,0.097 -0.097,0.3 -0.041,0.374c0.081,0.108 0.613,0.563 0.707,0.659c0.402,0.409 0.436,0.325 0.77,0.801c0.137,0.194 0.356,0.67 0.225,0.922c-0.088,0.17 -0.515,0.094 -0.637,0.07c-0.056,-0.01 -0.111,-0.023 -0.166,-0.033c-0.231,-0.043 -0.459,-0.051 -0.686,-0.12c-0.572,-0.174 -1.099,-0.504 -1.665,-0.706c-0.447,-0.159 -0.878,-0.225 -1.334,-0.327c-0.158,-0.035 -0.379,-0.083 -0.439,-0.256c-0.102,-0.29 0.225,-0.505 0.446,-0.618c0.154,-0.079 0.288,-0.18 0.452,-0.241c0.431,-0.159 0.947,-0.141 1.4,-0.167c0.184,-0.01 0.256,0.01 0.437,-0.024c0.069,-0.013 0.162,-0.043 0.294,-0.258Z" style="fill:none;stroke:#424242;stroke-width:0.2px;"/></g></svg>